%TF.GenerationSoftware,KiCad,Pcbnew,8.0.4*%
%TF.CreationDate,2024-09-02T08:00:42-07:00*%
%TF.ProjectId,Muffin,4d756666-696e-42e6-9b69-6361645f7063,rev?*%
%TF.SameCoordinates,Original*%
%TF.FileFunction,Soldermask,Top*%
%TF.FilePolarity,Negative*%
%FSLAX46Y46*%
G04 Gerber Fmt 4.6, Leading zero omitted, Abs format (unit mm)*
G04 Created by KiCad (PCBNEW 8.0.4) date 2024-09-02 08:00:42*
%MOMM*%
%LPD*%
G01*
G04 APERTURE LIST*
G04 Aperture macros list*
%AMRoundRect*
0 Rectangle with rounded corners*
0 $1 Rounding radius*
0 $2 $3 $4 $5 $6 $7 $8 $9 X,Y pos of 4 corners*
0 Add a 4 corners polygon primitive as box body*
4,1,4,$2,$3,$4,$5,$6,$7,$8,$9,$2,$3,0*
0 Add four circle primitives for the rounded corners*
1,1,$1+$1,$2,$3*
1,1,$1+$1,$4,$5*
1,1,$1+$1,$6,$7*
1,1,$1+$1,$8,$9*
0 Add four rect primitives between the rounded corners*
20,1,$1+$1,$2,$3,$4,$5,0*
20,1,$1+$1,$4,$5,$6,$7,0*
20,1,$1+$1,$6,$7,$8,$9,0*
20,1,$1+$1,$8,$9,$2,$3,0*%
G04 Aperture macros list end*
%ADD10RoundRect,0.075000X-0.437500X-0.075000X0.437500X-0.075000X0.437500X0.075000X-0.437500X0.075000X0*%
%ADD11RoundRect,0.075000X-0.075000X-0.437500X0.075000X-0.437500X0.075000X0.437500X-0.075000X0.437500X0*%
%ADD12R,4.250000X4.250000*%
%ADD13RoundRect,0.150000X-0.700000X0.150000X-0.700000X-0.150000X0.700000X-0.150000X0.700000X0.150000X0*%
%ADD14RoundRect,0.250000X-1.150000X0.250000X-1.150000X-0.250000X1.150000X-0.250000X1.150000X0.250000X0*%
%ADD15RoundRect,0.225000X0.250000X-0.225000X0.250000X0.225000X-0.250000X0.225000X-0.250000X-0.225000X0*%
%ADD16RoundRect,0.150000X-0.150000X-0.700000X0.150000X-0.700000X0.150000X0.700000X-0.150000X0.700000X0*%
%ADD17RoundRect,0.250000X-0.250000X-1.150000X0.250000X-1.150000X0.250000X1.150000X-0.250000X1.150000X0*%
%ADD18RoundRect,0.175000X-0.175000X-1.675000X0.175000X-1.675000X0.175000X1.675000X-0.175000X1.675000X0*%
%ADD19RoundRect,0.250001X-0.499999X-0.899999X0.499999X-0.899999X0.499999X0.899999X-0.499999X0.899999X0*%
%ADD20RoundRect,0.200000X-0.200000X-0.275000X0.200000X-0.275000X0.200000X0.275000X-0.200000X0.275000X0*%
%ADD21RoundRect,0.200000X0.200000X0.275000X-0.200000X0.275000X-0.200000X-0.275000X0.200000X-0.275000X0*%
%ADD22RoundRect,0.225000X-0.225000X-0.250000X0.225000X-0.250000X0.225000X0.250000X-0.225000X0.250000X0*%
%ADD23RoundRect,0.200000X-0.200000X-1.650000X0.200000X-1.650000X0.200000X1.650000X-0.200000X1.650000X0*%
%ADD24RoundRect,0.208334X-0.541666X-0.941666X0.541666X-0.941666X0.541666X0.941666X-0.541666X0.941666X0*%
%ADD25RoundRect,0.150000X0.700000X-0.150000X0.700000X0.150000X-0.700000X0.150000X-0.700000X-0.150000X0*%
%ADD26RoundRect,0.250000X1.150000X-0.250000X1.150000X0.250000X-1.150000X0.250000X-1.150000X-0.250000X0*%
%ADD27R,1.100000X0.250000*%
%ADD28RoundRect,0.225000X0.225000X0.250000X-0.225000X0.250000X-0.225000X-0.250000X0.225000X-0.250000X0*%
%ADD29RoundRect,0.225000X-0.250000X0.225000X-0.250000X-0.225000X0.250000X-0.225000X0.250000X0.225000X0*%
%ADD30RoundRect,0.200000X0.200000X0.450000X-0.200000X0.450000X-0.200000X-0.450000X0.200000X-0.450000X0*%
%ADD31RoundRect,0.250001X0.799999X1.249999X-0.799999X1.249999X-0.799999X-1.249999X0.799999X-1.249999X0*%
%ADD32RoundRect,0.200000X-0.275000X0.200000X-0.275000X-0.200000X0.275000X-0.200000X0.275000X0.200000X0*%
%ADD33RoundRect,0.100000X-0.225000X-0.100000X0.225000X-0.100000X0.225000X0.100000X-0.225000X0.100000X0*%
%ADD34R,1.300000X0.300000*%
%ADD35R,2.200000X1.800000*%
%ADD36R,1.600000X0.700000*%
%ADD37R,1.400000X1.200000*%
%ADD38R,2.200000X1.200000*%
%ADD39R,1.400000X1.600000*%
%ADD40RoundRect,0.200000X-0.200000X-0.450000X0.200000X-0.450000X0.200000X0.450000X-0.200000X0.450000X0*%
%ADD41RoundRect,0.250001X-0.799999X-1.249999X0.799999X-1.249999X0.799999X1.249999X-0.799999X1.249999X0*%
%ADD42RoundRect,0.200000X1.650000X-0.200000X1.650000X0.200000X-1.650000X0.200000X-1.650000X-0.200000X0*%
%ADD43RoundRect,0.208334X0.941666X-0.541666X0.941666X0.541666X-0.941666X0.541666X-0.941666X-0.541666X0*%
%ADD44RoundRect,0.150000X-0.150000X-0.625000X0.150000X-0.625000X0.150000X0.625000X-0.150000X0.625000X0*%
%ADD45RoundRect,0.250000X-0.350000X-0.650000X0.350000X-0.650000X0.350000X0.650000X-0.350000X0.650000X0*%
%ADD46RoundRect,0.200000X0.275000X-0.200000X0.275000X0.200000X-0.275000X0.200000X-0.275000X-0.200000X0*%
%ADD47R,3.000000X3.000000*%
%ADD48C,3.000000*%
%ADD49R,1.280000X0.300000*%
%ADD50R,3.000000X2.000000*%
%ADD51RoundRect,0.218750X0.218750X0.256250X-0.218750X0.256250X-0.218750X-0.256250X0.218750X-0.256250X0*%
%ADD52RoundRect,0.218750X0.256250X-0.218750X0.256250X0.218750X-0.256250X0.218750X-0.256250X-0.218750X0*%
%ADD53C,0.650000*%
%ADD54O,1.000000X1.800000*%
%ADD55O,1.000000X2.100000*%
%ADD56R,1.800000X1.800000*%
%ADD57C,1.800000*%
%ADD58R,2.000000X3.000000*%
%ADD59O,2.000000X3.000000*%
G04 APERTURE END LIST*
D10*
%TO.C,U12*%
X104612500Y-58087500D03*
X104612500Y-58737500D03*
X104612500Y-59387500D03*
X104612500Y-60037500D03*
X104612500Y-60687500D03*
X104612500Y-61337500D03*
X104612500Y-61987500D03*
D11*
X105500000Y-62875000D03*
X106150000Y-62875000D03*
X106800000Y-62875000D03*
X107450000Y-62875000D03*
X108100000Y-62875000D03*
X108750000Y-62875000D03*
X109400000Y-62875000D03*
D10*
X110287500Y-61987500D03*
X110287500Y-61337500D03*
X110287500Y-60687500D03*
X110287500Y-60037500D03*
X110287500Y-59387500D03*
X110287500Y-58737500D03*
X110287500Y-58087500D03*
D11*
X109400000Y-57200000D03*
X108750000Y-57200000D03*
X108100000Y-57200000D03*
X107450000Y-57200000D03*
X106800000Y-57200000D03*
X106150000Y-57200000D03*
X105500000Y-57200000D03*
D12*
X107450000Y-60037500D03*
%TD*%
D13*
%TO.C,J3*%
X190250000Y-63750000D03*
X190250000Y-65000000D03*
X190250000Y-66250000D03*
D14*
X193600000Y-61900000D03*
X193600000Y-68100000D03*
%TD*%
D15*
%TO.C,C21*%
X134200000Y-58375000D03*
X134200000Y-56825000D03*
%TD*%
D16*
%TO.C,J9*%
X147650000Y-55250000D03*
X148900000Y-55250000D03*
X150150000Y-55250000D03*
X151400000Y-55250000D03*
X152650000Y-55250000D03*
X153900000Y-55250000D03*
X155150000Y-55250000D03*
X156400000Y-55250000D03*
X157650000Y-55250000D03*
X158900000Y-55250000D03*
D17*
X145800000Y-51900000D03*
X160750000Y-51900000D03*
%TD*%
D18*
%TO.C,J12*%
X122100000Y-54400000D03*
X123600000Y-54400000D03*
X125100000Y-54400000D03*
X126600000Y-54400000D03*
D19*
X120050000Y-52300000D03*
X128650000Y-52300000D03*
%TD*%
D20*
%TO.C,R30*%
X80800000Y-106200000D03*
X82450000Y-106200000D03*
%TD*%
D21*
%TO.C,R14*%
X59425000Y-51600000D03*
X57775000Y-51600000D03*
%TD*%
D22*
%TO.C,C9*%
X62225000Y-57800000D03*
X63775000Y-57800000D03*
%TD*%
D23*
%TO.C,J8*%
X107650000Y-53912500D03*
X109150000Y-53912500D03*
X110650000Y-53912500D03*
X112150000Y-53912500D03*
X113650000Y-53912500D03*
X115150000Y-53912500D03*
D24*
X105600000Y-52312500D03*
X117200000Y-52312500D03*
%TD*%
D15*
%TO.C,C27*%
X95400000Y-58375000D03*
X95400000Y-56825000D03*
%TD*%
D25*
%TO.C,J5*%
X55250000Y-76250000D03*
X55250000Y-75000000D03*
X55250000Y-73750000D03*
D26*
X51900000Y-78100000D03*
X51900000Y-71900000D03*
%TD*%
D27*
%TO.C,U3*%
X182750000Y-56400000D03*
X182750000Y-55900000D03*
X182750000Y-55400000D03*
X182750000Y-54900000D03*
X182750000Y-54400000D03*
X178450000Y-54400000D03*
X178450000Y-54900000D03*
X178450000Y-55400000D03*
X178450000Y-55900000D03*
X178450000Y-56400000D03*
%TD*%
D21*
%TO.C,R10*%
X75425000Y-55800000D03*
X73775000Y-55800000D03*
%TD*%
%TO.C,R17*%
X59425000Y-54200000D03*
X57775000Y-54200000D03*
%TD*%
D15*
%TO.C,C20*%
X139200000Y-58375000D03*
X139200000Y-56825000D03*
%TD*%
D20*
%TO.C,R12*%
X186375000Y-57800000D03*
X188025000Y-57800000D03*
%TD*%
D13*
%TO.C,J2*%
X190250000Y-73750000D03*
X190250000Y-75000000D03*
X190250000Y-76250000D03*
D14*
X193600000Y-71900000D03*
X193600000Y-78100000D03*
%TD*%
D22*
%TO.C,C6*%
X182025000Y-58000000D03*
X183575000Y-58000000D03*
%TD*%
D28*
%TO.C,C17*%
X77975000Y-76400000D03*
X76425000Y-76400000D03*
%TD*%
D21*
%TO.C,R18*%
X59425000Y-56000000D03*
X57775000Y-56000000D03*
%TD*%
D20*
%TO.C,R13*%
X57775000Y-59000000D03*
X59425000Y-59000000D03*
%TD*%
D29*
%TO.C,C31*%
X103000000Y-61025000D03*
X103000000Y-62575000D03*
%TD*%
D30*
%TO.C,J18*%
X139100000Y-54800000D03*
X137850000Y-54800000D03*
X136600000Y-54800000D03*
X135350000Y-54800000D03*
X134100000Y-54800000D03*
D31*
X141650000Y-52050000D03*
X131550000Y-52050000D03*
%TD*%
D20*
%TO.C,R16*%
X186175000Y-56200000D03*
X187825000Y-56200000D03*
%TD*%
%TO.C,R19*%
X70375000Y-56600000D03*
X72025000Y-56600000D03*
%TD*%
D32*
%TO.C,R37*%
X93800000Y-56775000D03*
X93800000Y-58425000D03*
%TD*%
D33*
%TO.C,U6*%
X135850000Y-56950000D03*
X135850000Y-57600000D03*
X135850000Y-58250000D03*
X137750000Y-58250000D03*
X137750000Y-57600000D03*
X137750000Y-56950000D03*
%TD*%
D20*
%TO.C,R15*%
X186175000Y-54400000D03*
X187825000Y-54400000D03*
%TD*%
D29*
%TO.C,C30*%
X143600000Y-62625000D03*
X143600000Y-64175000D03*
%TD*%
D34*
%TO.C,J19*%
X100850000Y-89950000D03*
X100850000Y-90450000D03*
X100850000Y-90950000D03*
X100850000Y-91450000D03*
X100850000Y-91950000D03*
X100850000Y-92450000D03*
D35*
X98525000Y-88300000D03*
X98525000Y-94100000D03*
%TD*%
D36*
%TO.C,J17*%
X80150000Y-73750000D03*
X80150000Y-74850000D03*
X80150000Y-75950000D03*
X80150000Y-77050000D03*
X80150000Y-78150000D03*
X80150000Y-79250000D03*
X80150000Y-80350000D03*
X80150000Y-81450000D03*
D37*
X80650000Y-83750000D03*
D38*
X90250000Y-83750000D03*
D39*
X80650000Y-69150000D03*
D38*
X90250000Y-68250000D03*
D36*
X80150000Y-82550000D03*
%TD*%
D22*
%TO.C,C12*%
X65625000Y-57800000D03*
X67175000Y-57800000D03*
%TD*%
D40*
%TO.C,J24*%
X176775000Y-109200000D03*
X178025000Y-109200000D03*
D41*
X174225000Y-111950000D03*
X180575000Y-111950000D03*
%TD*%
D42*
%TO.C,J11*%
X53512500Y-91150000D03*
X53512500Y-89650000D03*
X53512500Y-88150000D03*
X53512500Y-86650000D03*
X53512500Y-85150000D03*
X53512500Y-83650000D03*
D43*
X51912500Y-93200000D03*
X51912500Y-81600000D03*
%TD*%
D27*
%TO.C,U2*%
X62650000Y-54200000D03*
X62650000Y-54700000D03*
X62650000Y-55200000D03*
X62650000Y-55700000D03*
X62650000Y-56200000D03*
X66950000Y-56200000D03*
X66950000Y-55700000D03*
X66950000Y-55200000D03*
X66950000Y-54700000D03*
X66950000Y-54200000D03*
%TD*%
D20*
%TO.C,R20*%
X152575000Y-57400000D03*
X154225000Y-57400000D03*
%TD*%
D25*
%TO.C,J7*%
X55250000Y-56250000D03*
X55250000Y-55000000D03*
X55250000Y-53750000D03*
D26*
X51900000Y-58100000D03*
X51900000Y-51900000D03*
%TD*%
D29*
%TO.C,C10*%
X61000000Y-54625000D03*
X61000000Y-56175000D03*
%TD*%
D15*
%TO.C,C7*%
X184600000Y-56075000D03*
X184600000Y-54525000D03*
%TD*%
D44*
%TO.C,J10*%
X165100000Y-54125000D03*
X166100000Y-54125000D03*
X167100000Y-54125000D03*
X168100000Y-54125000D03*
D45*
X163800000Y-51600000D03*
X169400000Y-51600000D03*
%TD*%
D22*
%TO.C,C13*%
X70425000Y-55000000D03*
X71975000Y-55000000D03*
%TD*%
D28*
%TO.C,C16*%
X77975000Y-78000000D03*
X76425000Y-78000000D03*
%TD*%
D29*
%TO.C,C29*%
X101400000Y-62625000D03*
X101400000Y-64175000D03*
%TD*%
D28*
%TO.C,C5*%
X183375000Y-52600000D03*
X181825000Y-52600000D03*
%TD*%
D46*
%TO.C,R11*%
X187800000Y-52825000D03*
X187800000Y-51175000D03*
%TD*%
D15*
%TO.C,C4*%
X176800000Y-54975000D03*
X176800000Y-53425000D03*
%TD*%
D28*
%TO.C,C26*%
X96975000Y-60000000D03*
X95425000Y-60000000D03*
%TD*%
D20*
%TO.C,R9*%
X73775000Y-57400000D03*
X75425000Y-57400000D03*
%TD*%
D32*
%TO.C,R8*%
X75600000Y-59775000D03*
X75600000Y-61425000D03*
%TD*%
D21*
%TO.C,R35*%
X144025000Y-56800000D03*
X142375000Y-56800000D03*
%TD*%
D22*
%TO.C,C11*%
X70425000Y-53400000D03*
X71975000Y-53400000D03*
%TD*%
D32*
%TO.C,R29*%
X132600000Y-56775000D03*
X132600000Y-58425000D03*
%TD*%
D47*
%TO.C,J21*%
X105700000Y-110800000D03*
D48*
X100700000Y-110800000D03*
%TD*%
D29*
%TO.C,C32*%
X142000000Y-62625000D03*
X142000000Y-64175000D03*
%TD*%
D33*
%TO.C,U9*%
X97050000Y-56950000D03*
X97050000Y-57600000D03*
X97050000Y-58250000D03*
X98950000Y-58250000D03*
X98950000Y-57600000D03*
X98950000Y-56950000D03*
%TD*%
D28*
%TO.C,C8*%
X64375000Y-52600000D03*
X62825000Y-52600000D03*
%TD*%
D25*
%TO.C,J4*%
X55250000Y-66250000D03*
X55250000Y-65000000D03*
X55250000Y-63750000D03*
D26*
X51900000Y-68100000D03*
X51900000Y-61900000D03*
%TD*%
D30*
%TO.C,J15*%
X100500000Y-54800000D03*
X99250000Y-54800000D03*
X98000000Y-54800000D03*
X96750000Y-54800000D03*
X95500000Y-54800000D03*
D31*
X103050000Y-52050000D03*
X92950000Y-52050000D03*
%TD*%
D10*
%TO.C,U11*%
X145312500Y-59687500D03*
X145312500Y-60337500D03*
X145312500Y-60987500D03*
X145312500Y-61637500D03*
X145312500Y-62287500D03*
X145312500Y-62937500D03*
X145312500Y-63587500D03*
D11*
X146200000Y-64475000D03*
X146850000Y-64475000D03*
X147500000Y-64475000D03*
X148150000Y-64475000D03*
X148800000Y-64475000D03*
X149450000Y-64475000D03*
X150100000Y-64475000D03*
D10*
X150987500Y-63587500D03*
X150987500Y-62937500D03*
X150987500Y-62287500D03*
X150987500Y-61637500D03*
X150987500Y-60987500D03*
X150987500Y-60337500D03*
X150987500Y-59687500D03*
D11*
X150100000Y-58800000D03*
X149450000Y-58800000D03*
X148800000Y-58800000D03*
X148150000Y-58800000D03*
X147500000Y-58800000D03*
X146850000Y-58800000D03*
X146200000Y-58800000D03*
D12*
X148150000Y-61637500D03*
%TD*%
D49*
%TO.C,J20*%
X121827500Y-92400000D03*
X121827500Y-91900000D03*
X121827500Y-91400000D03*
X121827500Y-90900000D03*
X121827500Y-90400000D03*
X121827500Y-89900000D03*
X121827500Y-89400000D03*
X121827500Y-88900000D03*
X121827500Y-88400000D03*
X121827500Y-87900000D03*
X121827500Y-87400000D03*
X121827500Y-86900000D03*
X121827500Y-86400000D03*
X121827500Y-85900000D03*
X121827500Y-85400000D03*
X121827500Y-84900000D03*
X121827500Y-84400000D03*
X121827500Y-83900000D03*
X121827500Y-83400000D03*
X121827500Y-82900000D03*
X121827500Y-82400000D03*
X121827500Y-81900000D03*
X121827500Y-81400000D03*
X121827500Y-80900000D03*
X121827500Y-80400000D03*
X121827500Y-79900000D03*
X121827500Y-79400000D03*
X121827500Y-78900000D03*
X121827500Y-78400000D03*
X121827500Y-77900000D03*
X121827500Y-77400000D03*
X121827500Y-76900000D03*
X121827500Y-76400000D03*
X121827500Y-75900000D03*
X121827500Y-75400000D03*
X121827500Y-74900000D03*
X121827500Y-74400000D03*
X121827500Y-73900000D03*
X121827500Y-73400000D03*
X121827500Y-72900000D03*
D50*
X119487500Y-71450000D03*
X119487500Y-93850000D03*
%TD*%
D51*
%TO.C,D10*%
X80812500Y-104600000D03*
X79237500Y-104600000D03*
%TD*%
D52*
%TO.C,D9*%
X79225000Y-107787500D03*
X79225000Y-106212500D03*
%TD*%
D32*
%TO.C,R28*%
X77625000Y-106175000D03*
X77625000Y-107825000D03*
%TD*%
D13*
%TO.C,J6*%
X190250000Y-53750000D03*
X190250000Y-55000000D03*
X190250000Y-56250000D03*
D14*
X193600000Y-51900000D03*
X193600000Y-58100000D03*
%TD*%
D53*
%TO.C,J13*%
X125640000Y-107695000D03*
X119860000Y-107695000D03*
D54*
X127070000Y-111375000D03*
D55*
X127070000Y-107195000D03*
D54*
X118430000Y-111375000D03*
D55*
X118430000Y-107195000D03*
%TD*%
D53*
%TO.C,J1*%
X144690000Y-107695000D03*
X138910000Y-107695000D03*
D54*
X146120000Y-111375000D03*
D55*
X146120000Y-107195000D03*
D54*
X137480000Y-111375000D03*
D55*
X137480000Y-107195000D03*
%TD*%
D56*
%TO.C,SW9*%
X166250000Y-101500000D03*
D57*
X178750000Y-101500000D03*
X166250000Y-96500000D03*
X178750000Y-96500000D03*
%TD*%
D58*
%TO.C,SW10*%
X74000000Y-93350000D03*
D59*
X74000000Y-97350000D03*
X74000000Y-101350000D03*
X71400000Y-101350000D03*
X71400000Y-97350000D03*
X71400000Y-93350000D03*
%TD*%
M02*
