%TF.GenerationSoftware,KiCad,Pcbnew,8.0.4*%
%TF.CreationDate,2024-09-02T08:00:42-07:00*%
%TF.ProjectId,Muffin,4d756666-696e-42e6-9b69-6361645f7063,rev?*%
%TF.SameCoordinates,Original*%
%TF.FileFunction,Profile,NP*%
%FSLAX46Y46*%
G04 Gerber Fmt 4.6, Leading zero omitted, Abs format (unit mm)*
G04 Created by KiCad (PCBNEW 8.0.4) date 2024-09-02 08:00:42*
%MOMM*%
%LPD*%
G01*
G04 APERTURE LIST*
%TA.AperFunction,Profile*%
%ADD10C,0.050000*%
%TD*%
%TA.AperFunction,Profile*%
%ADD11C,0.100000*%
%TD*%
G04 APERTURE END LIST*
D10*
X58000000Y-95000000D02*
X50000000Y-95000000D01*
X187500000Y-95000000D02*
X187500000Y-114000000D01*
X133500000Y-110000000D02*
X136000000Y-110000000D01*
X93200000Y-62000000D02*
G75*
G02*
X90800000Y-62000000I-1200000J0D01*
G01*
X90800000Y-62000000D02*
G75*
G02*
X93200000Y-62000000I1200000J0D01*
G01*
X195500000Y-95000000D02*
X187500000Y-95000000D01*
X77000000Y-114000000D02*
X77000000Y-110000000D01*
X93500000Y-110000000D02*
X96500000Y-110000000D01*
X80000000Y-85400000D02*
X86000000Y-85400000D01*
X86000000Y-94400000D01*
X80000000Y-94400000D01*
X80000000Y-85400000D01*
X103000000Y-71400000D02*
X110000000Y-71400000D01*
X110000000Y-93400000D01*
X103000000Y-93400000D01*
X103000000Y-71400000D01*
D11*
X167700000Y-68300000D02*
X167700000Y-66500000D01*
D10*
X176000000Y-60500000D02*
G75*
G02*
X174000000Y-60500000I-1000000J0D01*
G01*
X174000000Y-60500000D02*
G75*
G02*
X176000000Y-60500000I1000000J0D01*
G01*
D11*
X84700000Y-101300000D02*
G75*
G02*
X82300000Y-101300000I-1200000J0D01*
G01*
D10*
X109000000Y-114000000D02*
X109000000Y-110000000D01*
X64500000Y-99750000D02*
G75*
G02*
X61000000Y-99750000I-1750000J0D01*
G01*
X61000000Y-99750000D02*
G75*
G02*
X64500000Y-99750000I1750000J0D01*
G01*
D11*
X82300000Y-99500000D02*
G75*
G02*
X84700000Y-99500000I1200000J0D01*
G01*
X162400000Y-107800000D02*
X162400000Y-106000000D01*
D10*
X136000000Y-110000000D02*
X136000000Y-114000000D01*
X96500000Y-110000000D02*
X96500000Y-114000000D01*
X96500000Y-114000000D02*
X109000000Y-114000000D01*
D11*
X84700000Y-101300000D02*
X84700000Y-99500000D01*
D10*
X63750000Y-60500000D02*
G75*
G02*
X62250000Y-60500000I-750000J0D01*
G01*
X62250000Y-60500000D02*
G75*
G02*
X63750000Y-60500000I750000J0D01*
G01*
D11*
X162400000Y-107800000D02*
G75*
G02*
X160000000Y-107800000I-1200000J0D01*
G01*
D10*
X58000000Y-114000000D02*
X73000000Y-114000000D01*
X171500000Y-114000000D02*
X187500000Y-114000000D01*
X73000000Y-114000000D02*
X73000000Y-110000000D01*
X168250000Y-60500000D02*
G75*
G02*
X166750000Y-60500000I-750000J0D01*
G01*
X166750000Y-60500000D02*
G75*
G02*
X168250000Y-60500000I750000J0D01*
G01*
X58000000Y-114000000D02*
X58000000Y-95000000D01*
D11*
X165300000Y-66500000D02*
G75*
G02*
X167700000Y-66500000I1200000J0D01*
G01*
D10*
X71500000Y-60500000D02*
G75*
G02*
X69500000Y-60500000I-1000000J0D01*
G01*
X69500000Y-60500000D02*
G75*
G02*
X71500000Y-60500000I1000000J0D01*
G01*
X168500000Y-110000000D02*
X171500000Y-110000000D01*
X93200000Y-97000000D02*
G75*
G02*
X90800000Y-97000000I-1200000J0D01*
G01*
X90800000Y-97000000D02*
G75*
G02*
X93200000Y-97000000I1200000J0D01*
G01*
X183250000Y-60500000D02*
G75*
G02*
X181750000Y-60500000I-750000J0D01*
G01*
X181750000Y-60500000D02*
G75*
G02*
X183250000Y-60500000I750000J0D01*
G01*
X149500000Y-110000000D02*
X152000000Y-110000000D01*
X61500000Y-63750000D02*
G75*
G02*
X58000000Y-63750000I-1750000J0D01*
G01*
X58000000Y-63750000D02*
G75*
G02*
X61500000Y-63750000I1750000J0D01*
G01*
X112000000Y-114000000D02*
X112000000Y-110000000D01*
X152000000Y-114000000D02*
X152000000Y-110000000D01*
X187200000Y-97000000D02*
G75*
G02*
X184800000Y-97000000I-1200000J0D01*
G01*
X184800000Y-97000000D02*
G75*
G02*
X187200000Y-97000000I1200000J0D01*
G01*
X67200000Y-97000000D02*
G75*
G02*
X64800000Y-97000000I-1200000J0D01*
G01*
X64800000Y-97000000D02*
G75*
G02*
X67200000Y-97000000I1200000J0D01*
G01*
X168500000Y-114000000D02*
X168500000Y-110000000D01*
X136000000Y-114000000D02*
X149500000Y-114000000D01*
D11*
X87000000Y-52000000D02*
G75*
G02*
X89400000Y-52000000I1200000J0D01*
G01*
D10*
X133500000Y-114000000D02*
X133500000Y-110000000D01*
X78750000Y-60500000D02*
G75*
G02*
X77250000Y-60500000I-750000J0D01*
G01*
X77250000Y-60500000D02*
G75*
G02*
X78750000Y-60500000I750000J0D01*
G01*
X184500000Y-99750000D02*
G75*
G02*
X181000000Y-99750000I-1750000J0D01*
G01*
X181000000Y-99750000D02*
G75*
G02*
X184500000Y-99750000I1750000J0D01*
G01*
X152000000Y-114000000D02*
X168500000Y-114000000D01*
D11*
X165300000Y-68300000D02*
X165300000Y-66500000D01*
D10*
X93500000Y-114000000D02*
X93500000Y-110000000D01*
X73000000Y-110000000D02*
X77000000Y-110000000D01*
X109000000Y-110000000D02*
X112000000Y-110000000D01*
D11*
X160000000Y-107800000D02*
X160000000Y-106000000D01*
X89400000Y-53800000D02*
X89400000Y-52000000D01*
X160000000Y-106000000D02*
G75*
G02*
X162400000Y-106000000I1200000J0D01*
G01*
D10*
X50000000Y-95000000D02*
X50000000Y-50000000D01*
D11*
X87000000Y-53800000D02*
X87000000Y-52000000D01*
D10*
X171500000Y-114000000D02*
X171500000Y-110000000D01*
X50000000Y-50000000D02*
X195500000Y-50000000D01*
D11*
X89400000Y-53800000D02*
G75*
G02*
X87000000Y-53800000I-1200000J0D01*
G01*
D10*
X165200000Y-62000000D02*
G75*
G02*
X162800000Y-62000000I-1200000J0D01*
G01*
X162800000Y-62000000D02*
G75*
G02*
X165200000Y-62000000I1200000J0D01*
G01*
D11*
X167700000Y-68300000D02*
G75*
G02*
X165300000Y-68300000I-1200000J0D01*
G01*
D10*
X112000000Y-114000000D02*
X133500000Y-114000000D01*
X195500000Y-50000000D02*
X195500000Y-95000000D01*
X149500000Y-114000000D02*
X149500000Y-110000000D01*
X77000000Y-114000000D02*
X93500000Y-114000000D01*
X187500000Y-63750000D02*
G75*
G02*
X184000000Y-63750000I-1750000J0D01*
G01*
X184000000Y-63750000D02*
G75*
G02*
X187500000Y-63750000I1750000J0D01*
G01*
D11*
X82300000Y-101300000D02*
X82300000Y-99500000D01*
%TO.C,J17*%
X91150000Y-72950000D02*
G75*
G02*
X90150000Y-72950000I-500000J0D01*
G01*
X90150000Y-72950000D02*
G75*
G02*
X91150000Y-72950000I500000J0D01*
G01*
X91150000Y-80930000D02*
G75*
G02*
X90150000Y-80930000I-500000J0D01*
G01*
X90150000Y-80930000D02*
G75*
G02*
X91150000Y-80930000I500000J0D01*
G01*
%TD*%
M02*
