%TF.GenerationSoftware,KiCad,Pcbnew,8.0.4*%
%TF.CreationDate,2024-09-02T08:00:42-07:00*%
%TF.ProjectId,Muffin,4d756666-696e-42e6-9b69-6361645f7063,rev?*%
%TF.SameCoordinates,Original*%
%TF.FileFunction,Paste,Bot*%
%TF.FilePolarity,Positive*%
%FSLAX46Y46*%
G04 Gerber Fmt 4.6, Leading zero omitted, Abs format (unit mm)*
G04 Created by KiCad (PCBNEW 8.0.4) date 2024-09-02 08:00:42*
%MOMM*%
%LPD*%
G01*
G04 APERTURE LIST*
G04 Aperture macros list*
%AMRoundRect*
0 Rectangle with rounded corners*
0 $1 Rounding radius*
0 $2 $3 $4 $5 $6 $7 $8 $9 X,Y pos of 4 corners*
0 Add a 4 corners polygon primitive as box body*
4,1,4,$2,$3,$4,$5,$6,$7,$8,$9,$2,$3,0*
0 Add four circle primitives for the rounded corners*
1,1,$1+$1,$2,$3*
1,1,$1+$1,$4,$5*
1,1,$1+$1,$6,$7*
1,1,$1+$1,$8,$9*
0 Add four rect primitives between the rounded corners*
20,1,$1+$1,$2,$3,$4,$5,0*
20,1,$1+$1,$4,$5,$6,$7,0*
20,1,$1+$1,$6,$7,$8,$9,0*
20,1,$1+$1,$8,$9,$2,$3,0*%
G04 Aperture macros list end*
%ADD10RoundRect,0.100000X0.225000X0.100000X-0.225000X0.100000X-0.225000X-0.100000X0.225000X-0.100000X0*%
%ADD11R,1.600000X1.300000*%
%ADD12RoundRect,0.150000X0.150000X0.355000X-0.150000X0.355000X-0.150000X-0.355000X0.150000X-0.355000X0*%
%ADD13RoundRect,0.150000X0.150000X0.425000X-0.150000X0.425000X-0.150000X-0.425000X0.150000X-0.425000X0*%
%ADD14RoundRect,0.075000X0.075000X0.500000X-0.075000X0.500000X-0.075000X-0.500000X0.075000X-0.500000X0*%
%ADD15O,1.000000X1.800000*%
%ADD16O,1.000000X2.100000*%
%ADD17RoundRect,0.225000X0.225000X0.250000X-0.225000X0.250000X-0.225000X-0.250000X0.225000X-0.250000X0*%
%ADD18RoundRect,0.200000X-0.275000X0.200000X-0.275000X-0.200000X0.275000X-0.200000X0.275000X0.200000X0*%
%ADD19RoundRect,0.250000X-1.000000X-0.650000X1.000000X-0.650000X1.000000X0.650000X-1.000000X0.650000X0*%
%ADD20RoundRect,0.200000X0.275000X-0.200000X0.275000X0.200000X-0.275000X0.200000X-0.275000X-0.200000X0*%
%ADD21RoundRect,0.200000X-0.200000X-0.275000X0.200000X-0.275000X0.200000X0.275000X-0.200000X0.275000X0*%
%ADD22RoundRect,0.225000X-0.250000X0.225000X-0.250000X-0.225000X0.250000X-0.225000X0.250000X0.225000X0*%
%ADD23RoundRect,0.250000X-0.275000X-0.275000X0.275000X-0.275000X0.275000X0.275000X-0.275000X0.275000X0*%
%ADD24RoundRect,0.062500X-0.350000X-0.062500X0.350000X-0.062500X0.350000X0.062500X-0.350000X0.062500X0*%
%ADD25RoundRect,0.062500X-0.062500X-0.350000X0.062500X-0.350000X0.062500X0.350000X-0.062500X0.350000X0*%
%ADD26RoundRect,0.250000X-0.255000X0.255000X-0.255000X-0.255000X0.255000X-0.255000X0.255000X0.255000X0*%
%ADD27RoundRect,0.062500X-0.062500X0.350000X-0.062500X-0.350000X0.062500X-0.350000X0.062500X0.350000X0*%
%ADD28RoundRect,0.062500X-0.350000X0.062500X-0.350000X-0.062500X0.350000X-0.062500X0.350000X0.062500X0*%
%ADD29RoundRect,0.200000X0.200000X0.275000X-0.200000X0.275000X-0.200000X-0.275000X0.200000X-0.275000X0*%
%ADD30RoundRect,0.150000X-0.150000X-0.200000X0.150000X-0.200000X0.150000X0.200000X-0.150000X0.200000X0*%
%ADD31RoundRect,0.125000X-0.125000X0.125000X-0.125000X-0.125000X0.125000X-0.125000X0.125000X0.125000X0*%
%ADD32O,0.600000X0.250000*%
%ADD33O,1.000000X0.250000*%
%ADD34RoundRect,0.225000X0.250000X-0.225000X0.250000X0.225000X-0.250000X0.225000X-0.250000X-0.225000X0*%
%ADD35RoundRect,0.150000X0.200000X-0.150000X0.200000X0.150000X-0.200000X0.150000X-0.200000X-0.150000X0*%
%ADD36RoundRect,0.250000X1.000000X0.650000X-1.000000X0.650000X-1.000000X-0.650000X1.000000X-0.650000X0*%
%ADD37RoundRect,0.150000X-0.587500X-0.150000X0.587500X-0.150000X0.587500X0.150000X-0.587500X0.150000X0*%
%ADD38R,0.900000X0.900000*%
%ADD39R,0.900000X1.500000*%
%ADD40R,1.500000X0.900000*%
%ADD41R,1.700000X3.700000*%
%ADD42RoundRect,0.050000X0.285000X0.100000X-0.285000X0.100000X-0.285000X-0.100000X0.285000X-0.100000X0*%
%ADD43RoundRect,0.150000X-0.200000X0.150000X-0.200000X-0.150000X0.200000X-0.150000X0.200000X0.150000X0*%
%ADD44RoundRect,0.150000X0.150000X0.200000X-0.150000X0.200000X-0.150000X-0.200000X0.150000X-0.200000X0*%
%ADD45RoundRect,0.150000X0.825000X0.150000X-0.825000X0.150000X-0.825000X-0.150000X0.825000X-0.150000X0*%
%ADD46RoundRect,0.225000X-0.225000X-0.250000X0.225000X-0.250000X0.225000X0.250000X-0.225000X0.250000X0*%
G04 APERTURE END LIST*
D10*
%TO.C,Q1*%
X160750000Y-83350000D03*
X160750000Y-84000000D03*
X160750000Y-84650000D03*
X158850000Y-84650000D03*
X158850000Y-84000000D03*
X158850000Y-83350000D03*
%TD*%
D11*
%TO.C,SW4*%
X59000000Y-57250000D03*
X67000000Y-57250000D03*
X59000000Y-52800000D03*
X67000000Y-52750000D03*
%TD*%
D12*
%TO.C,J13*%
X125950000Y-106550000D03*
D13*
X125150000Y-106620000D03*
D14*
X124000000Y-106620000D03*
X123000000Y-106620000D03*
X122500000Y-106620000D03*
X121500000Y-106620000D03*
D13*
X120350000Y-106620000D03*
D12*
X119550000Y-106550000D03*
X119550000Y-106550000D03*
D13*
X120350000Y-106620000D03*
D14*
X121000000Y-106620000D03*
X122000000Y-106620000D03*
X123500000Y-106620000D03*
X124500000Y-106620000D03*
D13*
X125150000Y-106620000D03*
D12*
X125950000Y-106550000D03*
D15*
X127070000Y-111375000D03*
D16*
X127070000Y-107195000D03*
D15*
X118430000Y-111375000D03*
D16*
X118430000Y-107195000D03*
%TD*%
D17*
%TO.C,C3*%
X152775000Y-105200000D03*
X151225000Y-105200000D03*
%TD*%
D18*
%TO.C,R2*%
X135600000Y-107375000D03*
X135600000Y-109025000D03*
%TD*%
D19*
%TO.C,D2*%
X138000000Y-102200000D03*
X142000000Y-102200000D03*
%TD*%
D20*
%TO.C,R25*%
X116400000Y-72225000D03*
X116400000Y-70575000D03*
%TD*%
D21*
%TO.C,R5*%
X154175000Y-102000000D03*
X155825000Y-102000000D03*
%TD*%
D18*
%TO.C,R33*%
X90600000Y-77775000D03*
X90600000Y-79425000D03*
%TD*%
D22*
%TO.C,C33*%
X136400000Y-97225000D03*
X136400000Y-98775000D03*
%TD*%
D21*
%TO.C,R41*%
X108375000Y-107000000D03*
X110025000Y-107000000D03*
%TD*%
D23*
%TO.C,U1*%
X155500000Y-106412500D03*
X155500000Y-107712500D03*
X156800000Y-106412500D03*
X156800000Y-107712500D03*
D24*
X154212500Y-108312500D03*
X154212500Y-107812500D03*
X154212500Y-107312500D03*
X154212500Y-106812500D03*
X154212500Y-106312500D03*
X154212500Y-105812500D03*
D25*
X154900000Y-105125000D03*
X155400000Y-105125000D03*
X155900000Y-105125000D03*
X156400000Y-105125000D03*
X156900000Y-105125000D03*
X157400000Y-105125000D03*
D24*
X158087500Y-105812500D03*
X158087500Y-106312500D03*
X158087500Y-106812500D03*
X158087500Y-107312500D03*
X158087500Y-107812500D03*
X158087500Y-108312500D03*
D25*
X157400000Y-109000000D03*
X156900000Y-109000000D03*
X156400000Y-109000000D03*
X155900000Y-109000000D03*
X155400000Y-109000000D03*
X154900000Y-109000000D03*
%TD*%
D26*
%TO.C,U10*%
X108962500Y-101375000D03*
X107712500Y-101375000D03*
X108962500Y-102625000D03*
X107712500Y-102625000D03*
D27*
X107337500Y-100062500D03*
X107837500Y-100062500D03*
X108337500Y-100062500D03*
X108837500Y-100062500D03*
X109337500Y-100062500D03*
D28*
X110275000Y-101000000D03*
X110275000Y-101500000D03*
X110275000Y-102000000D03*
X110275000Y-102500000D03*
X110275000Y-103000000D03*
D27*
X109337500Y-103937500D03*
X108837500Y-103937500D03*
X108337500Y-103937500D03*
X107837500Y-103937500D03*
X107337500Y-103937500D03*
D28*
X106400000Y-103000000D03*
X106400000Y-102500000D03*
X106400000Y-102000000D03*
X106400000Y-101500000D03*
X106400000Y-101000000D03*
%TD*%
D29*
%TO.C,R26*%
X123425000Y-71400000D03*
X121775000Y-71400000D03*
%TD*%
%TO.C,R39*%
X113425000Y-100200000D03*
X111775000Y-100200000D03*
%TD*%
D11*
%TO.C,SW2*%
X163500000Y-57250000D03*
X171500000Y-57250000D03*
X163500000Y-52800000D03*
X171500000Y-52750000D03*
%TD*%
D21*
%TO.C,R38*%
X108375000Y-105400000D03*
X110025000Y-105400000D03*
%TD*%
D11*
%TO.C,SW8*%
X173500000Y-80250000D03*
X181500000Y-80250000D03*
X173500000Y-75800000D03*
X181500000Y-75750000D03*
%TD*%
D21*
%TO.C,R27*%
X87375000Y-83700000D03*
X89025000Y-83700000D03*
%TD*%
D22*
%TO.C,C34*%
X134800000Y-97225000D03*
X134800000Y-98775000D03*
%TD*%
D30*
%TO.C,D7*%
X127300000Y-104800000D03*
X125900000Y-104800000D03*
%TD*%
D29*
%TO.C,R31*%
X146025000Y-92200000D03*
X144375000Y-92200000D03*
%TD*%
D21*
%TO.C,R6*%
X154175000Y-103600000D03*
X155825000Y-103600000D03*
%TD*%
%TO.C,R32*%
X149775000Y-90400000D03*
X151425000Y-90400000D03*
%TD*%
D31*
%TO.C,U13*%
X130560000Y-96400000D03*
X129940000Y-96400000D03*
X130560000Y-97020000D03*
X129940000Y-97020000D03*
D27*
X129500000Y-95272500D03*
X130000000Y-95272500D03*
X130500000Y-95272500D03*
X131000000Y-95272500D03*
D28*
X131687500Y-95960000D03*
X131687500Y-96460000D03*
X131687500Y-96960000D03*
X131687500Y-97460000D03*
D27*
X131000000Y-98147500D03*
X130500000Y-98147500D03*
X130000000Y-98147500D03*
X129500000Y-98147500D03*
D28*
X128812500Y-97460000D03*
X128812500Y-96960000D03*
X128812500Y-96460000D03*
X128812500Y-95960000D03*
%TD*%
D30*
%TO.C,D6*%
X124500000Y-103000000D03*
X123100000Y-103000000D03*
%TD*%
D22*
%TO.C,C15*%
X135800000Y-93625000D03*
X135800000Y-95175000D03*
%TD*%
D21*
%TO.C,R22*%
X140775000Y-82400000D03*
X142425000Y-82400000D03*
%TD*%
D17*
%TO.C,C36*%
X133175000Y-106400000D03*
X131625000Y-106400000D03*
%TD*%
D20*
%TO.C,R23*%
X129000000Y-112825000D03*
X129000000Y-111175000D03*
%TD*%
D32*
%TO.C,U7*%
X90550000Y-83600000D03*
X90550000Y-83100000D03*
X90550000Y-82600000D03*
D33*
X91650000Y-82600000D03*
X91650000Y-83100000D03*
X91650000Y-83600000D03*
%TD*%
D17*
%TO.C,C2*%
X152775000Y-103600000D03*
X151225000Y-103600000D03*
%TD*%
D20*
%TO.C,R24*%
X116400000Y-112825000D03*
X116400000Y-111175000D03*
%TD*%
D17*
%TO.C,C35*%
X133175000Y-104800000D03*
X131625000Y-104800000D03*
%TD*%
D34*
%TO.C,C1*%
X152600000Y-101975000D03*
X152600000Y-100425000D03*
%TD*%
D11*
%TO.C,SW7*%
X173500000Y-70250000D03*
X181500000Y-70250000D03*
X173500000Y-65800000D03*
X181500000Y-65750000D03*
%TD*%
D21*
%TO.C,RT2*%
X114775000Y-98600000D03*
X116425000Y-98600000D03*
%TD*%
%TO.C,R1*%
X141175000Y-104800000D03*
X142825000Y-104800000D03*
%TD*%
D11*
%TO.C,SW3*%
X74000000Y-57250000D03*
X82000000Y-57250000D03*
X74000000Y-52800000D03*
X82000000Y-52750000D03*
%TD*%
D35*
%TO.C,D3*%
X148000000Y-107300000D03*
X148000000Y-108700000D03*
%TD*%
D21*
%TO.C,RT1*%
X111775000Y-98600000D03*
X113425000Y-98600000D03*
%TD*%
D36*
%TO.C,D8*%
X132400000Y-102200000D03*
X128400000Y-102200000D03*
%TD*%
D17*
%TO.C,C19*%
X148775000Y-97400000D03*
X147225000Y-97400000D03*
%TD*%
D37*
%TO.C,Q2*%
X118125000Y-72350000D03*
X118125000Y-70450000D03*
X120000000Y-71400000D03*
%TD*%
D17*
%TO.C,C18*%
X91775000Y-85300000D03*
X90225000Y-85300000D03*
%TD*%
D20*
%TO.C,R44*%
X133200000Y-97225000D03*
X133200000Y-95575000D03*
%TD*%
D11*
%TO.C,SW6*%
X69000000Y-80250000D03*
X77000000Y-80250000D03*
X69000000Y-75800000D03*
X77000000Y-75750000D03*
%TD*%
D38*
%TO.C,U4*%
X127800000Y-86000000D03*
X129200000Y-85995606D03*
X130600000Y-85995606D03*
X127800000Y-84600000D03*
X129200000Y-84595606D03*
X130600000Y-84595606D03*
X127800000Y-83200000D03*
X129200000Y-83195606D03*
X130600000Y-83195606D03*
D39*
X136920000Y-91845606D03*
X135650000Y-91845606D03*
X134380000Y-91845606D03*
X133110000Y-91845606D03*
X131840000Y-91845606D03*
X130570000Y-91845606D03*
X129300000Y-91845606D03*
X128030000Y-91845606D03*
X126760000Y-91845606D03*
X125490000Y-91845606D03*
X124220000Y-91845606D03*
X122950000Y-91845606D03*
X121680000Y-91845606D03*
X120410000Y-91845606D03*
D40*
X119160000Y-90080606D03*
X119160000Y-88810606D03*
X119160000Y-87540606D03*
X119160000Y-86270606D03*
X119160000Y-85000606D03*
X119160000Y-83730606D03*
X119160000Y-82460606D03*
X119160000Y-81190606D03*
X119160000Y-79920606D03*
X119160000Y-78650606D03*
X119160000Y-77380606D03*
X119160000Y-76110606D03*
D39*
X120410000Y-74345606D03*
X121680000Y-74345606D03*
X122950000Y-74345606D03*
X124220000Y-74345606D03*
X125490000Y-74345606D03*
X126760000Y-74345606D03*
X128030000Y-74345606D03*
X129300000Y-74345606D03*
X130570000Y-74345606D03*
X131840000Y-74345606D03*
X133110000Y-74345606D03*
X134380000Y-74345606D03*
X135650000Y-74345606D03*
X136920000Y-74345606D03*
%TD*%
D29*
%TO.C,R40*%
X113425000Y-101800000D03*
X111775000Y-101800000D03*
%TD*%
%TO.C,R21*%
X145425000Y-82400000D03*
X143775000Y-82400000D03*
%TD*%
D41*
%TO.C,L2*%
X93650000Y-83100000D03*
X96350000Y-83100000D03*
%TD*%
D18*
%TO.C,R34*%
X89000000Y-80475000D03*
X89000000Y-82125000D03*
%TD*%
D22*
%TO.C,C14*%
X137400000Y-93625000D03*
X137400000Y-95175000D03*
%TD*%
D12*
%TO.C,J1*%
X145000000Y-106550000D03*
D13*
X144200000Y-106620000D03*
D14*
X143050000Y-106620000D03*
X142050000Y-106620000D03*
X141550000Y-106620000D03*
X140550000Y-106620000D03*
D13*
X139400000Y-106620000D03*
D12*
X138600000Y-106550000D03*
X138600000Y-106550000D03*
D13*
X139400000Y-106620000D03*
D14*
X140050000Y-106620000D03*
X141050000Y-106620000D03*
X142550000Y-106620000D03*
X143550000Y-106620000D03*
D13*
X144200000Y-106620000D03*
D12*
X145000000Y-106550000D03*
D15*
X146120000Y-111375000D03*
D16*
X146120000Y-107195000D03*
D15*
X137480000Y-111375000D03*
D16*
X137480000Y-107195000D03*
%TD*%
D42*
%TO.C,U8*%
X148740000Y-94800000D03*
X148740000Y-95300000D03*
X148740000Y-95800000D03*
X147260000Y-95800000D03*
X147260000Y-95300000D03*
X147260000Y-94800000D03*
%TD*%
D41*
%TO.C,L1*%
X142450000Y-96200000D03*
X145150000Y-96200000D03*
%TD*%
D17*
%TO.C,C22*%
X96975000Y-79900000D03*
X95425000Y-79900000D03*
%TD*%
D11*
%TO.C,SW5*%
X69000000Y-70250000D03*
X77000000Y-70250000D03*
X69000000Y-65800000D03*
X77000000Y-65750000D03*
%TD*%
D43*
%TO.C,D4*%
X148000000Y-111300000D03*
X148000000Y-109900000D03*
%TD*%
D44*
%TO.C,D5*%
X120600000Y-103000000D03*
X122000000Y-103000000D03*
%TD*%
D29*
%TO.C,R4*%
X160625000Y-81800000D03*
X158975000Y-81800000D03*
%TD*%
D45*
%TO.C,U5*%
X148675000Y-84095000D03*
X148675000Y-85365000D03*
X148675000Y-86635000D03*
X148675000Y-87905000D03*
X143725000Y-87905000D03*
X143725000Y-86635000D03*
X143725000Y-85365000D03*
X143725000Y-84095000D03*
%TD*%
D11*
%TO.C,SW1*%
X178500000Y-57250000D03*
X186500000Y-57250000D03*
X178500000Y-52800000D03*
X186500000Y-52750000D03*
%TD*%
D29*
%TO.C,R45*%
X131425000Y-93800000D03*
X129775000Y-93800000D03*
%TD*%
D46*
%TO.C,C23*%
X147425000Y-92200000D03*
X148975000Y-92200000D03*
%TD*%
D17*
%TO.C,C25*%
X147575000Y-90400000D03*
X146025000Y-90400000D03*
%TD*%
D21*
%TO.C,R7*%
X154175000Y-100400000D03*
X155825000Y-100400000D03*
%TD*%
D30*
%TO.C,D1*%
X145700000Y-104800000D03*
X144300000Y-104800000D03*
%TD*%
D21*
%TO.C,R3*%
X158975000Y-86200000D03*
X160625000Y-86200000D03*
%TD*%
D20*
%TO.C,R36*%
X87400000Y-82125000D03*
X87400000Y-80475000D03*
%TD*%
D17*
%TO.C,C24*%
X93975000Y-79900000D03*
X92425000Y-79900000D03*
%TD*%
D22*
%TO.C,C28*%
X106800000Y-105425000D03*
X106800000Y-106975000D03*
%TD*%
M02*
