M48
; DRILL file {KiCad 8.0.4} date 2024-09-02T08:00:33-0700
; FORMAT={-:-/ absolute / inch / decimal}
; #@! TF.CreationDate,2024-09-02T08:00:33-07:00
; #@! TF.GenerationSoftware,Kicad,Pcbnew,8.0.4
; #@! TF.FileFunction,Plated,1,4,PTH
FMAT,2
INCH
; #@! TA.AperFunction,Plated,PTH,ViaDrill
T1C0.0118
; #@! TA.AperFunction,Plated,PTH,ComponentDrill
T2C0.0236
; #@! TA.AperFunction,Plated,PTH,ComponentDrill
T3C0.0276
; #@! TA.AperFunction,Plated,PTH,ComponentDrill
T4C0.0472
; #@! TA.AperFunction,Plated,PTH,ComponentDrill
T5C0.0709
%
G90
G05
T1
X2.3937Y-2.0157
X2.5039Y-3.4724
X2.5266Y-3.5285
X2.5276Y-2.1339
X2.5276Y-2.2047
X2.5305Y-2.4886
X2.5512Y-2.1732
X2.5744Y-2.4886
X2.5748Y-2.1339
X2.5748Y-2.2047
X2.6457Y-2.4252
X2.7165Y-2.7657
X2.7165Y-3.1594
X2.7726Y-2.1024
X2.9764Y-2.4183
X2.9764Y-2.8583
X3.0157Y-2.1575
X3.0157Y-2.2205
X3.0157Y-3.0
X3.0222Y-3.6934
X3.0463Y-3.7175
X3.0561Y-4.1801
X3.0709Y-3.7425
X3.0935Y-3.7647
X3.1191Y-4.1181
X3.1555Y-2.9469
X3.1555Y-2.9902
X3.1555Y-3.0768
X3.1555Y-3.1201
X3.1555Y-3.1634
X3.1811Y-2.378
X3.1821Y-4.1181
X3.2205Y-2.1654
X3.2283Y-2.2539
X3.2441Y-2.6378
X3.3618Y-2.1579
X3.378Y-2.7874
X3.4016Y-2.2283
X3.4331Y-2.8268
X3.44Y-3.2953
X3.4409Y-2.4016
X3.4843Y-2.3976
X3.6083Y-3.247
X3.6132Y-3.3583
X3.6929Y-2.3002
X3.6998Y-3.1457
X3.7559Y-2.2992
X3.7569Y-3.1457
X3.7795Y-3.2205
X3.7795Y-3.2598
X3.7795Y-3.2992
X3.7795Y-3.3307
X3.8091Y-2.1575
X3.811Y-3.2205
X3.811Y-3.2598
X3.811Y-3.2992
X3.811Y-3.3307
X3.8179Y-2.3622
X3.8179Y-3.1457
X3.8504Y-2.2953
X3.8583Y-2.1575
X3.8675Y-2.8031
X3.8711Y-3.5699
X3.8898Y-2.8268
X3.9055Y-3.6299
X3.9075Y-2.1575
X3.9567Y-2.1575
X3.9705Y-3.5354
X4.0079Y-4.0236
X4.0236Y-3.9528
X4.0236Y-4.0
X4.0472Y-3.9213
X4.0472Y-4.0236
X4.0551Y-2.4026
X4.063Y-3.9528
X4.0709Y-4.0
X4.0787Y-3.9213
X4.0866Y-4.0236
X4.1024Y-3.9528
X4.1102Y-4.0
X4.126Y-3.9213
X4.126Y-4.0236
X4.1378Y-2.5394
X4.1417Y-4.0
X4.1496Y-3.9528
X4.1732Y-3.9213
X4.1791Y-2.5413
X4.1811Y-2.3228
X4.1811Y-2.4173
X4.1969Y-2.6457
X4.2362Y-3.9921
X4.2362Y-4.0394
X4.2559Y-2.4754
X4.2835Y-2.3228
X4.2835Y-2.4173
X4.2913Y-3.9921
X4.2913Y-4.0394
X4.2972Y-2.1225
X4.3071Y-2.4754
X4.3071Y-2.6772
X4.3898Y-2.311
X4.4291Y-2.311
X4.4331Y-4.0551
X4.4646Y-4.0079
X4.4744Y-2.1225
X4.5433Y-3.9843
X4.6913Y-3.0465
X4.6913Y-3.0965
X4.6913Y-3.1465
X4.6913Y-3.1965
X4.6913Y-3.2465
X4.6913Y-3.2965
X4.6913Y-3.3965
X4.6913Y-3.4465
X4.6913Y-3.4965
X4.6913Y-3.5465
X4.6929Y-3.3465
X4.7382Y-4.1575
X4.7404Y-2.9762
X4.7953Y-3.0551
X4.7953Y-3.0945
X4.7953Y-3.1339
X4.8071Y-2.1417
X4.8412Y-3.616
X4.8504Y-3.4331
X4.8593Y-2.811
X4.8661Y-2.1417
X4.9134Y-2.6457
X4.9134Y-2.8583
X4.9213Y-3.6772
X4.9252Y-2.1417
X4.9764Y-2.3465
X4.9843Y-2.1417
X4.9906Y-2.5591
X5.0406Y-2.5831
X5.0406Y-3.616
X5.0551Y-4.0236
X5.0906Y-3.616
X5.128Y-3.8075
X5.1406Y-3.616
X5.189Y-4.0079
X5.189Y-4.0394
X5.1906Y-2.927
X5.1906Y-3.616
X5.2047Y-3.6929
X5.2205Y-2.3002
X5.2362Y-4.0079
X5.2362Y-4.0394
X5.2406Y-2.927
X5.2406Y-3.616
X5.2441Y-4.126
X5.2441Y-4.189
X5.252Y-3.685
X5.252Y-3.7126
X5.2906Y-3.616
X5.2953Y-3.7126
X5.2992Y-3.6822
X5.3287Y-2.1575
X5.3465Y-3.685
X5.378Y-2.1575
X5.4094Y-3.685
X5.4094Y-4.0079
X5.4094Y-4.0394
X5.4272Y-2.1575
X5.4567Y-4.0079
X5.4567Y-4.0394
X5.4803Y-2.2992
X5.4882Y-2.4409
X5.5187Y-2.4173
X5.5187Y-2.6063
X5.5423Y-3.2441
X5.5591Y-2.1969
X5.5591Y-4.126
X5.6142Y-2.5906
X5.622Y-3.9449
X5.6535Y-2.4656
X5.6535Y-3.9449
X5.6585Y-3.4608
X5.6614Y-2.622
X5.6693Y-2.0551
X5.685Y-3.9449
X5.7087Y-2.5748
X5.7165Y-3.9449
X5.7254Y-3.2441
X5.748Y-3.9449
X5.7514Y-3.5591
X5.7514Y-3.6299
X5.7795Y-2.378
X5.7795Y-2.4724
X5.7795Y-3.9449
X5.8065Y-3.5591
X5.8065Y-3.5945
X5.8065Y-3.6299
X5.813Y-2.1752
X5.8346Y-2.5669
X5.8504Y-3.3622
X5.8533Y-3.4608
X5.8622Y-2.1752
X5.8661Y-3.6299
X5.8819Y-2.378
X5.8819Y-2.4724
X5.9094Y-2.563
X5.9094Y-2.6772
X5.9528Y-4.0787
X5.9528Y-4.1417
X6.0098Y-2.1752
X6.0591Y-2.1752
X6.0719Y-2.2598
X6.0984Y-3.9094
X6.1181Y-4.189
X6.1181Y-4.2441
X6.1417Y-3.9134
X6.1575Y-2.1752
X6.1732Y-4.189
X6.1732Y-4.2441
X6.1969Y-2.622
X6.2067Y-2.1752
X6.2205Y-2.5984
X6.2224Y-2.8583
X6.2559Y-2.1752
X6.3278Y-2.2242
X6.3465Y-4.0236
X6.3583Y-2.2323
X6.3587Y-3.4602
X6.3877Y-3.3011
X6.3927Y-3.2687
X6.437Y-2.2539
X6.4409Y-2.5984
X6.5394Y-2.1309
X6.6142Y-2.2283
X6.6181Y-2.1309
X6.752Y-2.2539
X6.8287Y-2.7657
X6.8307Y-3.1594
X6.874Y-2.2677
X6.9606Y-2.1654
X7.0276Y-2.2539
X7.126Y-2.1417
X7.126Y-2.1811
X7.1457Y-2.7657
X7.1457Y-3.1594
X7.2677Y-2.2126
X7.3297Y-2.1417
X7.3937Y-2.0148
T4
X6.5453Y-3.7992
X6.5453Y-3.9961
X7.0374Y-3.7992
X7.0374Y-3.9961
T5
X3.9646Y-4.3622
X4.1614Y-4.3622
T2
G00X4.6626Y-4.2419
M15
G01X4.6626Y-4.1986
M16
G05
G00X4.6626Y-4.4006
M15
G01X4.6626Y-4.3691
M16
G05
G00X5.0028Y-4.2419
M15
G01X5.0028Y-4.1986
M16
G05
G00X5.0028Y-4.4006
M15
G01X5.0028Y-4.3691
M16
G05
G00X5.4126Y-4.2419
M15
G01X5.4126Y-4.1986
M16
G05
G00X5.4126Y-4.4006
M15
G01X5.4126Y-4.3691
M16
G05
G00X5.7528Y-4.2419
M15
G01X5.7528Y-4.1986
M16
G05
G00X5.7528Y-4.4006
M15
G01X5.7528Y-4.3691
M16
G05
T3
G00X2.811Y-3.6496
M15
G01X2.811Y-3.7008
M16
G05
G00X2.811Y-3.8071
M15
G01X2.811Y-3.8583
M16
G05
G00X2.811Y-3.9646
M15
G01X2.811Y-4.0157
M16
G05
G00X2.9134Y-3.6496
M15
G01X2.9134Y-3.7008
M16
G05
G00X2.9134Y-3.8071
M15
G01X2.9134Y-3.8583
M16
G05
G00X2.9134Y-3.9646
M15
G01X2.9134Y-4.0157
M16
G05
M30
