%TF.GenerationSoftware,KiCad,Pcbnew,8.0.4*%
%TF.CreationDate,2024-09-02T08:00:42-07:00*%
%TF.ProjectId,Muffin,4d756666-696e-42e6-9b69-6361645f7063,rev?*%
%TF.SameCoordinates,Original*%
%TF.FileFunction,Legend,Top*%
%TF.FilePolarity,Positive*%
%FSLAX46Y46*%
G04 Gerber Fmt 4.6, Leading zero omitted, Abs format (unit mm)*
G04 Created by KiCad (PCBNEW 8.0.4) date 2024-09-02 08:00:42*
%MOMM*%
%LPD*%
G01*
G04 APERTURE LIST*
%ADD10C,0.250000*%
%ADD11C,0.150000*%
%ADD12C,0.100000*%
%ADD13C,0.120000*%
G04 APERTURE END LIST*
D10*
X98002568Y-104664619D02*
X98002568Y-103664619D01*
X98002568Y-103664619D02*
X98383520Y-103664619D01*
X98383520Y-103664619D02*
X98478758Y-103712238D01*
X98478758Y-103712238D02*
X98526377Y-103759857D01*
X98526377Y-103759857D02*
X98573996Y-103855095D01*
X98573996Y-103855095D02*
X98573996Y-103997952D01*
X98573996Y-103997952D02*
X98526377Y-104093190D01*
X98526377Y-104093190D02*
X98478758Y-104140809D01*
X98478758Y-104140809D02*
X98383520Y-104188428D01*
X98383520Y-104188428D02*
X98002568Y-104188428D01*
X99573996Y-104569380D02*
X99526377Y-104617000D01*
X99526377Y-104617000D02*
X99383520Y-104664619D01*
X99383520Y-104664619D02*
X99288282Y-104664619D01*
X99288282Y-104664619D02*
X99145425Y-104617000D01*
X99145425Y-104617000D02*
X99050187Y-104521761D01*
X99050187Y-104521761D02*
X99002568Y-104426523D01*
X99002568Y-104426523D02*
X98954949Y-104236047D01*
X98954949Y-104236047D02*
X98954949Y-104093190D01*
X98954949Y-104093190D02*
X99002568Y-103902714D01*
X99002568Y-103902714D02*
X99050187Y-103807476D01*
X99050187Y-103807476D02*
X99145425Y-103712238D01*
X99145425Y-103712238D02*
X99288282Y-103664619D01*
X99288282Y-103664619D02*
X99383520Y-103664619D01*
X99383520Y-103664619D02*
X99526377Y-103712238D01*
X99526377Y-103712238D02*
X99573996Y-103759857D01*
X100335901Y-104140809D02*
X100478758Y-104188428D01*
X100478758Y-104188428D02*
X100526377Y-104236047D01*
X100526377Y-104236047D02*
X100573996Y-104331285D01*
X100573996Y-104331285D02*
X100573996Y-104474142D01*
X100573996Y-104474142D02*
X100526377Y-104569380D01*
X100526377Y-104569380D02*
X100478758Y-104617000D01*
X100478758Y-104617000D02*
X100383520Y-104664619D01*
X100383520Y-104664619D02*
X100002568Y-104664619D01*
X100002568Y-104664619D02*
X100002568Y-103664619D01*
X100002568Y-103664619D02*
X100335901Y-103664619D01*
X100335901Y-103664619D02*
X100431139Y-103712238D01*
X100431139Y-103712238D02*
X100478758Y-103759857D01*
X100478758Y-103759857D02*
X100526377Y-103855095D01*
X100526377Y-103855095D02*
X100526377Y-103950333D01*
X100526377Y-103950333D02*
X100478758Y-104045571D01*
X100478758Y-104045571D02*
X100431139Y-104093190D01*
X100431139Y-104093190D02*
X100335901Y-104140809D01*
X100335901Y-104140809D02*
X100002568Y-104140809D01*
X101764473Y-104664619D02*
X101764473Y-103664619D01*
X101764473Y-103664619D02*
X102097806Y-104378904D01*
X102097806Y-104378904D02*
X102431139Y-103664619D01*
X102431139Y-103664619D02*
X102431139Y-104664619D01*
X103335901Y-103997952D02*
X103335901Y-104664619D01*
X102907330Y-103997952D02*
X102907330Y-104521761D01*
X102907330Y-104521761D02*
X102954949Y-104617000D01*
X102954949Y-104617000D02*
X103050187Y-104664619D01*
X103050187Y-104664619D02*
X103193044Y-104664619D01*
X103193044Y-104664619D02*
X103288282Y-104617000D01*
X103288282Y-104617000D02*
X103335901Y-104569380D01*
X103669235Y-103997952D02*
X104050187Y-103997952D01*
X103812092Y-104664619D02*
X103812092Y-103807476D01*
X103812092Y-103807476D02*
X103859711Y-103712238D01*
X103859711Y-103712238D02*
X103954949Y-103664619D01*
X103954949Y-103664619D02*
X104050187Y-103664619D01*
X104240664Y-103997952D02*
X104621616Y-103997952D01*
X104383521Y-104664619D02*
X104383521Y-103807476D01*
X104383521Y-103807476D02*
X104431140Y-103712238D01*
X104431140Y-103712238D02*
X104526378Y-103664619D01*
X104526378Y-103664619D02*
X104621616Y-103664619D01*
X104954950Y-104664619D02*
X104954950Y-103997952D01*
X104954950Y-103664619D02*
X104907331Y-103712238D01*
X104907331Y-103712238D02*
X104954950Y-103759857D01*
X104954950Y-103759857D02*
X105002569Y-103712238D01*
X105002569Y-103712238D02*
X104954950Y-103664619D01*
X104954950Y-103664619D02*
X104954950Y-103759857D01*
X105431140Y-103997952D02*
X105431140Y-104664619D01*
X105431140Y-104093190D02*
X105478759Y-104045571D01*
X105478759Y-104045571D02*
X105573997Y-103997952D01*
X105573997Y-103997952D02*
X105716854Y-103997952D01*
X105716854Y-103997952D02*
X105812092Y-104045571D01*
X105812092Y-104045571D02*
X105859711Y-104140809D01*
X105859711Y-104140809D02*
X105859711Y-104664619D01*
X107002569Y-103997952D02*
X107240664Y-104664619D01*
X107240664Y-104664619D02*
X107478759Y-103997952D01*
X107812093Y-103759857D02*
X107859712Y-103712238D01*
X107859712Y-103712238D02*
X107954950Y-103664619D01*
X107954950Y-103664619D02*
X108193045Y-103664619D01*
X108193045Y-103664619D02*
X108288283Y-103712238D01*
X108288283Y-103712238D02*
X108335902Y-103759857D01*
X108335902Y-103759857D02*
X108383521Y-103855095D01*
X108383521Y-103855095D02*
X108383521Y-103950333D01*
X108383521Y-103950333D02*
X108335902Y-104093190D01*
X108335902Y-104093190D02*
X107764474Y-104664619D01*
X107764474Y-104664619D02*
X108383521Y-104664619D01*
X108812093Y-104569380D02*
X108859712Y-104617000D01*
X108859712Y-104617000D02*
X108812093Y-104664619D01*
X108812093Y-104664619D02*
X108764474Y-104617000D01*
X108764474Y-104617000D02*
X108812093Y-104569380D01*
X108812093Y-104569380D02*
X108812093Y-104664619D01*
X109478759Y-103664619D02*
X109573997Y-103664619D01*
X109573997Y-103664619D02*
X109669235Y-103712238D01*
X109669235Y-103712238D02*
X109716854Y-103759857D01*
X109716854Y-103759857D02*
X109764473Y-103855095D01*
X109764473Y-103855095D02*
X109812092Y-104045571D01*
X109812092Y-104045571D02*
X109812092Y-104283666D01*
X109812092Y-104283666D02*
X109764473Y-104474142D01*
X109764473Y-104474142D02*
X109716854Y-104569380D01*
X109716854Y-104569380D02*
X109669235Y-104617000D01*
X109669235Y-104617000D02*
X109573997Y-104664619D01*
X109573997Y-104664619D02*
X109478759Y-104664619D01*
X109478759Y-104664619D02*
X109383521Y-104617000D01*
X109383521Y-104617000D02*
X109335902Y-104569380D01*
X109335902Y-104569380D02*
X109288283Y-104474142D01*
X109288283Y-104474142D02*
X109240664Y-104283666D01*
X109240664Y-104283666D02*
X109240664Y-104045571D01*
X109240664Y-104045571D02*
X109288283Y-103855095D01*
X109288283Y-103855095D02*
X109335902Y-103759857D01*
X109335902Y-103759857D02*
X109383521Y-103712238D01*
X109383521Y-103712238D02*
X109478759Y-103664619D01*
D11*
X111249405Y-56742319D02*
X111249405Y-57551842D01*
X111249405Y-57551842D02*
X111297024Y-57647080D01*
X111297024Y-57647080D02*
X111344643Y-57694700D01*
X111344643Y-57694700D02*
X111439881Y-57742319D01*
X111439881Y-57742319D02*
X111630357Y-57742319D01*
X111630357Y-57742319D02*
X111725595Y-57694700D01*
X111725595Y-57694700D02*
X111773214Y-57647080D01*
X111773214Y-57647080D02*
X111820833Y-57551842D01*
X111820833Y-57551842D02*
X111820833Y-56742319D01*
X112820833Y-57742319D02*
X112249405Y-57742319D01*
X112535119Y-57742319D02*
X112535119Y-56742319D01*
X112535119Y-56742319D02*
X112439881Y-56885176D01*
X112439881Y-56885176D02*
X112344643Y-56980414D01*
X112344643Y-56980414D02*
X112249405Y-57028033D01*
X113201786Y-56837557D02*
X113249405Y-56789938D01*
X113249405Y-56789938D02*
X113344643Y-56742319D01*
X113344643Y-56742319D02*
X113582738Y-56742319D01*
X113582738Y-56742319D02*
X113677976Y-56789938D01*
X113677976Y-56789938D02*
X113725595Y-56837557D01*
X113725595Y-56837557D02*
X113773214Y-56932795D01*
X113773214Y-56932795D02*
X113773214Y-57028033D01*
X113773214Y-57028033D02*
X113725595Y-57170890D01*
X113725595Y-57170890D02*
X113154167Y-57742319D01*
X113154167Y-57742319D02*
X113773214Y-57742319D01*
X195654819Y-65333333D02*
X196369104Y-65333333D01*
X196369104Y-65333333D02*
X196511961Y-65380952D01*
X196511961Y-65380952D02*
X196607200Y-65476190D01*
X196607200Y-65476190D02*
X196654819Y-65619047D01*
X196654819Y-65619047D02*
X196654819Y-65714285D01*
X195654819Y-64952380D02*
X195654819Y-64333333D01*
X195654819Y-64333333D02*
X196035771Y-64666666D01*
X196035771Y-64666666D02*
X196035771Y-64523809D01*
X196035771Y-64523809D02*
X196083390Y-64428571D01*
X196083390Y-64428571D02*
X196131009Y-64380952D01*
X196131009Y-64380952D02*
X196226247Y-64333333D01*
X196226247Y-64333333D02*
X196464342Y-64333333D01*
X196464342Y-64333333D02*
X196559580Y-64380952D01*
X196559580Y-64380952D02*
X196607200Y-64428571D01*
X196607200Y-64428571D02*
X196654819Y-64523809D01*
X196654819Y-64523809D02*
X196654819Y-64809523D01*
X196654819Y-64809523D02*
X196607200Y-64904761D01*
X196607200Y-64904761D02*
X196559580Y-64952380D01*
X134359580Y-61242857D02*
X134407200Y-61290476D01*
X134407200Y-61290476D02*
X134454819Y-61433333D01*
X134454819Y-61433333D02*
X134454819Y-61528571D01*
X134454819Y-61528571D02*
X134407200Y-61671428D01*
X134407200Y-61671428D02*
X134311961Y-61766666D01*
X134311961Y-61766666D02*
X134216723Y-61814285D01*
X134216723Y-61814285D02*
X134026247Y-61861904D01*
X134026247Y-61861904D02*
X133883390Y-61861904D01*
X133883390Y-61861904D02*
X133692914Y-61814285D01*
X133692914Y-61814285D02*
X133597676Y-61766666D01*
X133597676Y-61766666D02*
X133502438Y-61671428D01*
X133502438Y-61671428D02*
X133454819Y-61528571D01*
X133454819Y-61528571D02*
X133454819Y-61433333D01*
X133454819Y-61433333D02*
X133502438Y-61290476D01*
X133502438Y-61290476D02*
X133550057Y-61242857D01*
X133550057Y-60861904D02*
X133502438Y-60814285D01*
X133502438Y-60814285D02*
X133454819Y-60719047D01*
X133454819Y-60719047D02*
X133454819Y-60480952D01*
X133454819Y-60480952D02*
X133502438Y-60385714D01*
X133502438Y-60385714D02*
X133550057Y-60338095D01*
X133550057Y-60338095D02*
X133645295Y-60290476D01*
X133645295Y-60290476D02*
X133740533Y-60290476D01*
X133740533Y-60290476D02*
X133883390Y-60338095D01*
X133883390Y-60338095D02*
X134454819Y-60909523D01*
X134454819Y-60909523D02*
X134454819Y-60290476D01*
X134454819Y-59338095D02*
X134454819Y-59909523D01*
X134454819Y-59623809D02*
X133454819Y-59623809D01*
X133454819Y-59623809D02*
X133597676Y-59719047D01*
X133597676Y-59719047D02*
X133692914Y-59814285D01*
X133692914Y-59814285D02*
X133740533Y-59909523D01*
X152941666Y-48754819D02*
X152941666Y-49469104D01*
X152941666Y-49469104D02*
X152894047Y-49611961D01*
X152894047Y-49611961D02*
X152798809Y-49707200D01*
X152798809Y-49707200D02*
X152655952Y-49754819D01*
X152655952Y-49754819D02*
X152560714Y-49754819D01*
X153465476Y-49754819D02*
X153655952Y-49754819D01*
X153655952Y-49754819D02*
X153751190Y-49707200D01*
X153751190Y-49707200D02*
X153798809Y-49659580D01*
X153798809Y-49659580D02*
X153894047Y-49516723D01*
X153894047Y-49516723D02*
X153941666Y-49326247D01*
X153941666Y-49326247D02*
X153941666Y-48945295D01*
X153941666Y-48945295D02*
X153894047Y-48850057D01*
X153894047Y-48850057D02*
X153846428Y-48802438D01*
X153846428Y-48802438D02*
X153751190Y-48754819D01*
X153751190Y-48754819D02*
X153560714Y-48754819D01*
X153560714Y-48754819D02*
X153465476Y-48802438D01*
X153465476Y-48802438D02*
X153417857Y-48850057D01*
X153417857Y-48850057D02*
X153370238Y-48945295D01*
X153370238Y-48945295D02*
X153370238Y-49183390D01*
X153370238Y-49183390D02*
X153417857Y-49278628D01*
X153417857Y-49278628D02*
X153465476Y-49326247D01*
X153465476Y-49326247D02*
X153560714Y-49373866D01*
X153560714Y-49373866D02*
X153751190Y-49373866D01*
X153751190Y-49373866D02*
X153846428Y-49326247D01*
X153846428Y-49326247D02*
X153894047Y-49278628D01*
X153894047Y-49278628D02*
X153941666Y-49183390D01*
X127590476Y-55054819D02*
X127590476Y-55769104D01*
X127590476Y-55769104D02*
X127542857Y-55911961D01*
X127542857Y-55911961D02*
X127447619Y-56007200D01*
X127447619Y-56007200D02*
X127304762Y-56054819D01*
X127304762Y-56054819D02*
X127209524Y-56054819D01*
X128590476Y-56054819D02*
X128019048Y-56054819D01*
X128304762Y-56054819D02*
X128304762Y-55054819D01*
X128304762Y-55054819D02*
X128209524Y-55197676D01*
X128209524Y-55197676D02*
X128114286Y-55292914D01*
X128114286Y-55292914D02*
X128019048Y-55340533D01*
X128971429Y-55150057D02*
X129019048Y-55102438D01*
X129019048Y-55102438D02*
X129114286Y-55054819D01*
X129114286Y-55054819D02*
X129352381Y-55054819D01*
X129352381Y-55054819D02*
X129447619Y-55102438D01*
X129447619Y-55102438D02*
X129495238Y-55150057D01*
X129495238Y-55150057D02*
X129542857Y-55245295D01*
X129542857Y-55245295D02*
X129542857Y-55340533D01*
X129542857Y-55340533D02*
X129495238Y-55483390D01*
X129495238Y-55483390D02*
X128923810Y-56054819D01*
X128923810Y-56054819D02*
X129542857Y-56054819D01*
X80982142Y-108254819D02*
X80648809Y-107778628D01*
X80410714Y-108254819D02*
X80410714Y-107254819D01*
X80410714Y-107254819D02*
X80791666Y-107254819D01*
X80791666Y-107254819D02*
X80886904Y-107302438D01*
X80886904Y-107302438D02*
X80934523Y-107350057D01*
X80934523Y-107350057D02*
X80982142Y-107445295D01*
X80982142Y-107445295D02*
X80982142Y-107588152D01*
X80982142Y-107588152D02*
X80934523Y-107683390D01*
X80934523Y-107683390D02*
X80886904Y-107731009D01*
X80886904Y-107731009D02*
X80791666Y-107778628D01*
X80791666Y-107778628D02*
X80410714Y-107778628D01*
X81315476Y-107254819D02*
X81934523Y-107254819D01*
X81934523Y-107254819D02*
X81601190Y-107635771D01*
X81601190Y-107635771D02*
X81744047Y-107635771D01*
X81744047Y-107635771D02*
X81839285Y-107683390D01*
X81839285Y-107683390D02*
X81886904Y-107731009D01*
X81886904Y-107731009D02*
X81934523Y-107826247D01*
X81934523Y-107826247D02*
X81934523Y-108064342D01*
X81934523Y-108064342D02*
X81886904Y-108159580D01*
X81886904Y-108159580D02*
X81839285Y-108207200D01*
X81839285Y-108207200D02*
X81744047Y-108254819D01*
X81744047Y-108254819D02*
X81458333Y-108254819D01*
X81458333Y-108254819D02*
X81363095Y-108207200D01*
X81363095Y-108207200D02*
X81315476Y-108159580D01*
X82553571Y-107254819D02*
X82648809Y-107254819D01*
X82648809Y-107254819D02*
X82744047Y-107302438D01*
X82744047Y-107302438D02*
X82791666Y-107350057D01*
X82791666Y-107350057D02*
X82839285Y-107445295D01*
X82839285Y-107445295D02*
X82886904Y-107635771D01*
X82886904Y-107635771D02*
X82886904Y-107873866D01*
X82886904Y-107873866D02*
X82839285Y-108064342D01*
X82839285Y-108064342D02*
X82791666Y-108159580D01*
X82791666Y-108159580D02*
X82744047Y-108207200D01*
X82744047Y-108207200D02*
X82648809Y-108254819D01*
X82648809Y-108254819D02*
X82553571Y-108254819D01*
X82553571Y-108254819D02*
X82458333Y-108207200D01*
X82458333Y-108207200D02*
X82410714Y-108159580D01*
X82410714Y-108159580D02*
X82363095Y-108064342D01*
X82363095Y-108064342D02*
X82315476Y-107873866D01*
X82315476Y-107873866D02*
X82315476Y-107635771D01*
X82315476Y-107635771D02*
X82363095Y-107445295D01*
X82363095Y-107445295D02*
X82410714Y-107350057D01*
X82410714Y-107350057D02*
X82458333Y-107302438D01*
X82458333Y-107302438D02*
X82553571Y-107254819D01*
X56654819Y-52642857D02*
X56178628Y-52976190D01*
X56654819Y-53214285D02*
X55654819Y-53214285D01*
X55654819Y-53214285D02*
X55654819Y-52833333D01*
X55654819Y-52833333D02*
X55702438Y-52738095D01*
X55702438Y-52738095D02*
X55750057Y-52690476D01*
X55750057Y-52690476D02*
X55845295Y-52642857D01*
X55845295Y-52642857D02*
X55988152Y-52642857D01*
X55988152Y-52642857D02*
X56083390Y-52690476D01*
X56083390Y-52690476D02*
X56131009Y-52738095D01*
X56131009Y-52738095D02*
X56178628Y-52833333D01*
X56178628Y-52833333D02*
X56178628Y-53214285D01*
X56654819Y-51690476D02*
X56654819Y-52261904D01*
X56654819Y-51976190D02*
X55654819Y-51976190D01*
X55654819Y-51976190D02*
X55797676Y-52071428D01*
X55797676Y-52071428D02*
X55892914Y-52166666D01*
X55892914Y-52166666D02*
X55940533Y-52261904D01*
X55988152Y-50833333D02*
X56654819Y-50833333D01*
X55607200Y-51071428D02*
X56321485Y-51309523D01*
X56321485Y-51309523D02*
X56321485Y-50690476D01*
X64633333Y-59559580D02*
X64585714Y-59607200D01*
X64585714Y-59607200D02*
X64442857Y-59654819D01*
X64442857Y-59654819D02*
X64347619Y-59654819D01*
X64347619Y-59654819D02*
X64204762Y-59607200D01*
X64204762Y-59607200D02*
X64109524Y-59511961D01*
X64109524Y-59511961D02*
X64061905Y-59416723D01*
X64061905Y-59416723D02*
X64014286Y-59226247D01*
X64014286Y-59226247D02*
X64014286Y-59083390D01*
X64014286Y-59083390D02*
X64061905Y-58892914D01*
X64061905Y-58892914D02*
X64109524Y-58797676D01*
X64109524Y-58797676D02*
X64204762Y-58702438D01*
X64204762Y-58702438D02*
X64347619Y-58654819D01*
X64347619Y-58654819D02*
X64442857Y-58654819D01*
X64442857Y-58654819D02*
X64585714Y-58702438D01*
X64585714Y-58702438D02*
X64633333Y-58750057D01*
X65109524Y-59654819D02*
X65300000Y-59654819D01*
X65300000Y-59654819D02*
X65395238Y-59607200D01*
X65395238Y-59607200D02*
X65442857Y-59559580D01*
X65442857Y-59559580D02*
X65538095Y-59416723D01*
X65538095Y-59416723D02*
X65585714Y-59226247D01*
X65585714Y-59226247D02*
X65585714Y-58845295D01*
X65585714Y-58845295D02*
X65538095Y-58750057D01*
X65538095Y-58750057D02*
X65490476Y-58702438D01*
X65490476Y-58702438D02*
X65395238Y-58654819D01*
X65395238Y-58654819D02*
X65204762Y-58654819D01*
X65204762Y-58654819D02*
X65109524Y-58702438D01*
X65109524Y-58702438D02*
X65061905Y-58750057D01*
X65061905Y-58750057D02*
X65014286Y-58845295D01*
X65014286Y-58845295D02*
X65014286Y-59083390D01*
X65014286Y-59083390D02*
X65061905Y-59178628D01*
X65061905Y-59178628D02*
X65109524Y-59226247D01*
X65109524Y-59226247D02*
X65204762Y-59273866D01*
X65204762Y-59273866D02*
X65395238Y-59273866D01*
X65395238Y-59273866D02*
X65490476Y-59226247D01*
X65490476Y-59226247D02*
X65538095Y-59178628D01*
X65538095Y-59178628D02*
X65585714Y-59083390D01*
X114666666Y-56254819D02*
X114666666Y-56969104D01*
X114666666Y-56969104D02*
X114619047Y-57111961D01*
X114619047Y-57111961D02*
X114523809Y-57207200D01*
X114523809Y-57207200D02*
X114380952Y-57254819D01*
X114380952Y-57254819D02*
X114285714Y-57254819D01*
X115285714Y-56683390D02*
X115190476Y-56635771D01*
X115190476Y-56635771D02*
X115142857Y-56588152D01*
X115142857Y-56588152D02*
X115095238Y-56492914D01*
X115095238Y-56492914D02*
X115095238Y-56445295D01*
X115095238Y-56445295D02*
X115142857Y-56350057D01*
X115142857Y-56350057D02*
X115190476Y-56302438D01*
X115190476Y-56302438D02*
X115285714Y-56254819D01*
X115285714Y-56254819D02*
X115476190Y-56254819D01*
X115476190Y-56254819D02*
X115571428Y-56302438D01*
X115571428Y-56302438D02*
X115619047Y-56350057D01*
X115619047Y-56350057D02*
X115666666Y-56445295D01*
X115666666Y-56445295D02*
X115666666Y-56492914D01*
X115666666Y-56492914D02*
X115619047Y-56588152D01*
X115619047Y-56588152D02*
X115571428Y-56635771D01*
X115571428Y-56635771D02*
X115476190Y-56683390D01*
X115476190Y-56683390D02*
X115285714Y-56683390D01*
X115285714Y-56683390D02*
X115190476Y-56731009D01*
X115190476Y-56731009D02*
X115142857Y-56778628D01*
X115142857Y-56778628D02*
X115095238Y-56873866D01*
X115095238Y-56873866D02*
X115095238Y-57064342D01*
X115095238Y-57064342D02*
X115142857Y-57159580D01*
X115142857Y-57159580D02*
X115190476Y-57207200D01*
X115190476Y-57207200D02*
X115285714Y-57254819D01*
X115285714Y-57254819D02*
X115476190Y-57254819D01*
X115476190Y-57254819D02*
X115571428Y-57207200D01*
X115571428Y-57207200D02*
X115619047Y-57159580D01*
X115619047Y-57159580D02*
X115666666Y-57064342D01*
X115666666Y-57064342D02*
X115666666Y-56873866D01*
X115666666Y-56873866D02*
X115619047Y-56778628D01*
X115619047Y-56778628D02*
X115571428Y-56731009D01*
X115571428Y-56731009D02*
X115476190Y-56683390D01*
X94559580Y-61242857D02*
X94607200Y-61290476D01*
X94607200Y-61290476D02*
X94654819Y-61433333D01*
X94654819Y-61433333D02*
X94654819Y-61528571D01*
X94654819Y-61528571D02*
X94607200Y-61671428D01*
X94607200Y-61671428D02*
X94511961Y-61766666D01*
X94511961Y-61766666D02*
X94416723Y-61814285D01*
X94416723Y-61814285D02*
X94226247Y-61861904D01*
X94226247Y-61861904D02*
X94083390Y-61861904D01*
X94083390Y-61861904D02*
X93892914Y-61814285D01*
X93892914Y-61814285D02*
X93797676Y-61766666D01*
X93797676Y-61766666D02*
X93702438Y-61671428D01*
X93702438Y-61671428D02*
X93654819Y-61528571D01*
X93654819Y-61528571D02*
X93654819Y-61433333D01*
X93654819Y-61433333D02*
X93702438Y-61290476D01*
X93702438Y-61290476D02*
X93750057Y-61242857D01*
X93750057Y-60861904D02*
X93702438Y-60814285D01*
X93702438Y-60814285D02*
X93654819Y-60719047D01*
X93654819Y-60719047D02*
X93654819Y-60480952D01*
X93654819Y-60480952D02*
X93702438Y-60385714D01*
X93702438Y-60385714D02*
X93750057Y-60338095D01*
X93750057Y-60338095D02*
X93845295Y-60290476D01*
X93845295Y-60290476D02*
X93940533Y-60290476D01*
X93940533Y-60290476D02*
X94083390Y-60338095D01*
X94083390Y-60338095D02*
X94654819Y-60909523D01*
X94654819Y-60909523D02*
X94654819Y-60290476D01*
X93654819Y-59957142D02*
X93654819Y-59290476D01*
X93654819Y-59290476D02*
X94654819Y-59719047D01*
X48754819Y-75333333D02*
X49469104Y-75333333D01*
X49469104Y-75333333D02*
X49611961Y-75380952D01*
X49611961Y-75380952D02*
X49707200Y-75476190D01*
X49707200Y-75476190D02*
X49754819Y-75619047D01*
X49754819Y-75619047D02*
X49754819Y-75714285D01*
X48754819Y-74380952D02*
X48754819Y-74857142D01*
X48754819Y-74857142D02*
X49231009Y-74904761D01*
X49231009Y-74904761D02*
X49183390Y-74857142D01*
X49183390Y-74857142D02*
X49135771Y-74761904D01*
X49135771Y-74761904D02*
X49135771Y-74523809D01*
X49135771Y-74523809D02*
X49183390Y-74428571D01*
X49183390Y-74428571D02*
X49231009Y-74380952D01*
X49231009Y-74380952D02*
X49326247Y-74333333D01*
X49326247Y-74333333D02*
X49564342Y-74333333D01*
X49564342Y-74333333D02*
X49659580Y-74380952D01*
X49659580Y-74380952D02*
X49707200Y-74428571D01*
X49707200Y-74428571D02*
X49754819Y-74523809D01*
X49754819Y-74523809D02*
X49754819Y-74761904D01*
X49754819Y-74761904D02*
X49707200Y-74857142D01*
X49707200Y-74857142D02*
X49659580Y-74904761D01*
X177238095Y-57454819D02*
X177238095Y-58264342D01*
X177238095Y-58264342D02*
X177285714Y-58359580D01*
X177285714Y-58359580D02*
X177333333Y-58407200D01*
X177333333Y-58407200D02*
X177428571Y-58454819D01*
X177428571Y-58454819D02*
X177619047Y-58454819D01*
X177619047Y-58454819D02*
X177714285Y-58407200D01*
X177714285Y-58407200D02*
X177761904Y-58359580D01*
X177761904Y-58359580D02*
X177809523Y-58264342D01*
X177809523Y-58264342D02*
X177809523Y-57454819D01*
X178190476Y-57454819D02*
X178809523Y-57454819D01*
X178809523Y-57454819D02*
X178476190Y-57835771D01*
X178476190Y-57835771D02*
X178619047Y-57835771D01*
X178619047Y-57835771D02*
X178714285Y-57883390D01*
X178714285Y-57883390D02*
X178761904Y-57931009D01*
X178761904Y-57931009D02*
X178809523Y-58026247D01*
X178809523Y-58026247D02*
X178809523Y-58264342D01*
X178809523Y-58264342D02*
X178761904Y-58359580D01*
X178761904Y-58359580D02*
X178714285Y-58407200D01*
X178714285Y-58407200D02*
X178619047Y-58454819D01*
X178619047Y-58454819D02*
X178333333Y-58454819D01*
X178333333Y-58454819D02*
X178238095Y-58407200D01*
X178238095Y-58407200D02*
X178190476Y-58359580D01*
X76757142Y-56054819D02*
X76423809Y-55578628D01*
X76185714Y-56054819D02*
X76185714Y-55054819D01*
X76185714Y-55054819D02*
X76566666Y-55054819D01*
X76566666Y-55054819D02*
X76661904Y-55102438D01*
X76661904Y-55102438D02*
X76709523Y-55150057D01*
X76709523Y-55150057D02*
X76757142Y-55245295D01*
X76757142Y-55245295D02*
X76757142Y-55388152D01*
X76757142Y-55388152D02*
X76709523Y-55483390D01*
X76709523Y-55483390D02*
X76661904Y-55531009D01*
X76661904Y-55531009D02*
X76566666Y-55578628D01*
X76566666Y-55578628D02*
X76185714Y-55578628D01*
X77709523Y-56054819D02*
X77138095Y-56054819D01*
X77423809Y-56054819D02*
X77423809Y-55054819D01*
X77423809Y-55054819D02*
X77328571Y-55197676D01*
X77328571Y-55197676D02*
X77233333Y-55292914D01*
X77233333Y-55292914D02*
X77138095Y-55340533D01*
X78328571Y-55054819D02*
X78423809Y-55054819D01*
X78423809Y-55054819D02*
X78519047Y-55102438D01*
X78519047Y-55102438D02*
X78566666Y-55150057D01*
X78566666Y-55150057D02*
X78614285Y-55245295D01*
X78614285Y-55245295D02*
X78661904Y-55435771D01*
X78661904Y-55435771D02*
X78661904Y-55673866D01*
X78661904Y-55673866D02*
X78614285Y-55864342D01*
X78614285Y-55864342D02*
X78566666Y-55959580D01*
X78566666Y-55959580D02*
X78519047Y-56007200D01*
X78519047Y-56007200D02*
X78423809Y-56054819D01*
X78423809Y-56054819D02*
X78328571Y-56054819D01*
X78328571Y-56054819D02*
X78233333Y-56007200D01*
X78233333Y-56007200D02*
X78185714Y-55959580D01*
X78185714Y-55959580D02*
X78138095Y-55864342D01*
X78138095Y-55864342D02*
X78090476Y-55673866D01*
X78090476Y-55673866D02*
X78090476Y-55435771D01*
X78090476Y-55435771D02*
X78138095Y-55245295D01*
X78138095Y-55245295D02*
X78185714Y-55150057D01*
X78185714Y-55150057D02*
X78233333Y-55102438D01*
X78233333Y-55102438D02*
X78328571Y-55054819D01*
X59957142Y-53254819D02*
X59623809Y-52778628D01*
X59385714Y-53254819D02*
X59385714Y-52254819D01*
X59385714Y-52254819D02*
X59766666Y-52254819D01*
X59766666Y-52254819D02*
X59861904Y-52302438D01*
X59861904Y-52302438D02*
X59909523Y-52350057D01*
X59909523Y-52350057D02*
X59957142Y-52445295D01*
X59957142Y-52445295D02*
X59957142Y-52588152D01*
X59957142Y-52588152D02*
X59909523Y-52683390D01*
X59909523Y-52683390D02*
X59861904Y-52731009D01*
X59861904Y-52731009D02*
X59766666Y-52778628D01*
X59766666Y-52778628D02*
X59385714Y-52778628D01*
X60909523Y-53254819D02*
X60338095Y-53254819D01*
X60623809Y-53254819D02*
X60623809Y-52254819D01*
X60623809Y-52254819D02*
X60528571Y-52397676D01*
X60528571Y-52397676D02*
X60433333Y-52492914D01*
X60433333Y-52492914D02*
X60338095Y-52540533D01*
X61242857Y-52254819D02*
X61909523Y-52254819D01*
X61909523Y-52254819D02*
X61480952Y-53254819D01*
X141159580Y-58242857D02*
X141207200Y-58290476D01*
X141207200Y-58290476D02*
X141254819Y-58433333D01*
X141254819Y-58433333D02*
X141254819Y-58528571D01*
X141254819Y-58528571D02*
X141207200Y-58671428D01*
X141207200Y-58671428D02*
X141111961Y-58766666D01*
X141111961Y-58766666D02*
X141016723Y-58814285D01*
X141016723Y-58814285D02*
X140826247Y-58861904D01*
X140826247Y-58861904D02*
X140683390Y-58861904D01*
X140683390Y-58861904D02*
X140492914Y-58814285D01*
X140492914Y-58814285D02*
X140397676Y-58766666D01*
X140397676Y-58766666D02*
X140302438Y-58671428D01*
X140302438Y-58671428D02*
X140254819Y-58528571D01*
X140254819Y-58528571D02*
X140254819Y-58433333D01*
X140254819Y-58433333D02*
X140302438Y-58290476D01*
X140302438Y-58290476D02*
X140350057Y-58242857D01*
X140350057Y-57861904D02*
X140302438Y-57814285D01*
X140302438Y-57814285D02*
X140254819Y-57719047D01*
X140254819Y-57719047D02*
X140254819Y-57480952D01*
X140254819Y-57480952D02*
X140302438Y-57385714D01*
X140302438Y-57385714D02*
X140350057Y-57338095D01*
X140350057Y-57338095D02*
X140445295Y-57290476D01*
X140445295Y-57290476D02*
X140540533Y-57290476D01*
X140540533Y-57290476D02*
X140683390Y-57338095D01*
X140683390Y-57338095D02*
X141254819Y-57909523D01*
X141254819Y-57909523D02*
X141254819Y-57290476D01*
X140254819Y-56671428D02*
X140254819Y-56576190D01*
X140254819Y-56576190D02*
X140302438Y-56480952D01*
X140302438Y-56480952D02*
X140350057Y-56433333D01*
X140350057Y-56433333D02*
X140445295Y-56385714D01*
X140445295Y-56385714D02*
X140635771Y-56338095D01*
X140635771Y-56338095D02*
X140873866Y-56338095D01*
X140873866Y-56338095D02*
X141064342Y-56385714D01*
X141064342Y-56385714D02*
X141159580Y-56433333D01*
X141159580Y-56433333D02*
X141207200Y-56480952D01*
X141207200Y-56480952D02*
X141254819Y-56576190D01*
X141254819Y-56576190D02*
X141254819Y-56671428D01*
X141254819Y-56671428D02*
X141207200Y-56766666D01*
X141207200Y-56766666D02*
X141159580Y-56814285D01*
X141159580Y-56814285D02*
X141064342Y-56861904D01*
X141064342Y-56861904D02*
X140873866Y-56909523D01*
X140873866Y-56909523D02*
X140635771Y-56909523D01*
X140635771Y-56909523D02*
X140445295Y-56861904D01*
X140445295Y-56861904D02*
X140350057Y-56814285D01*
X140350057Y-56814285D02*
X140302438Y-56766666D01*
X140302438Y-56766666D02*
X140254819Y-56671428D01*
X186557142Y-60054819D02*
X186223809Y-59578628D01*
X185985714Y-60054819D02*
X185985714Y-59054819D01*
X185985714Y-59054819D02*
X186366666Y-59054819D01*
X186366666Y-59054819D02*
X186461904Y-59102438D01*
X186461904Y-59102438D02*
X186509523Y-59150057D01*
X186509523Y-59150057D02*
X186557142Y-59245295D01*
X186557142Y-59245295D02*
X186557142Y-59388152D01*
X186557142Y-59388152D02*
X186509523Y-59483390D01*
X186509523Y-59483390D02*
X186461904Y-59531009D01*
X186461904Y-59531009D02*
X186366666Y-59578628D01*
X186366666Y-59578628D02*
X185985714Y-59578628D01*
X187509523Y-60054819D02*
X186938095Y-60054819D01*
X187223809Y-60054819D02*
X187223809Y-59054819D01*
X187223809Y-59054819D02*
X187128571Y-59197676D01*
X187128571Y-59197676D02*
X187033333Y-59292914D01*
X187033333Y-59292914D02*
X186938095Y-59340533D01*
X187890476Y-59150057D02*
X187938095Y-59102438D01*
X187938095Y-59102438D02*
X188033333Y-59054819D01*
X188033333Y-59054819D02*
X188271428Y-59054819D01*
X188271428Y-59054819D02*
X188366666Y-59102438D01*
X188366666Y-59102438D02*
X188414285Y-59150057D01*
X188414285Y-59150057D02*
X188461904Y-59245295D01*
X188461904Y-59245295D02*
X188461904Y-59340533D01*
X188461904Y-59340533D02*
X188414285Y-59483390D01*
X188414285Y-59483390D02*
X187842857Y-60054819D01*
X187842857Y-60054819D02*
X188461904Y-60054819D01*
X195654819Y-75333333D02*
X196369104Y-75333333D01*
X196369104Y-75333333D02*
X196511961Y-75380952D01*
X196511961Y-75380952D02*
X196607200Y-75476190D01*
X196607200Y-75476190D02*
X196654819Y-75619047D01*
X196654819Y-75619047D02*
X196654819Y-75714285D01*
X195750057Y-74904761D02*
X195702438Y-74857142D01*
X195702438Y-74857142D02*
X195654819Y-74761904D01*
X195654819Y-74761904D02*
X195654819Y-74523809D01*
X195654819Y-74523809D02*
X195702438Y-74428571D01*
X195702438Y-74428571D02*
X195750057Y-74380952D01*
X195750057Y-74380952D02*
X195845295Y-74333333D01*
X195845295Y-74333333D02*
X195940533Y-74333333D01*
X195940533Y-74333333D02*
X196083390Y-74380952D01*
X196083390Y-74380952D02*
X196654819Y-74952380D01*
X196654819Y-74952380D02*
X196654819Y-74333333D01*
X180233333Y-59759580D02*
X180185714Y-59807200D01*
X180185714Y-59807200D02*
X180042857Y-59854819D01*
X180042857Y-59854819D02*
X179947619Y-59854819D01*
X179947619Y-59854819D02*
X179804762Y-59807200D01*
X179804762Y-59807200D02*
X179709524Y-59711961D01*
X179709524Y-59711961D02*
X179661905Y-59616723D01*
X179661905Y-59616723D02*
X179614286Y-59426247D01*
X179614286Y-59426247D02*
X179614286Y-59283390D01*
X179614286Y-59283390D02*
X179661905Y-59092914D01*
X179661905Y-59092914D02*
X179709524Y-58997676D01*
X179709524Y-58997676D02*
X179804762Y-58902438D01*
X179804762Y-58902438D02*
X179947619Y-58854819D01*
X179947619Y-58854819D02*
X180042857Y-58854819D01*
X180042857Y-58854819D02*
X180185714Y-58902438D01*
X180185714Y-58902438D02*
X180233333Y-58950057D01*
X181090476Y-58854819D02*
X180900000Y-58854819D01*
X180900000Y-58854819D02*
X180804762Y-58902438D01*
X180804762Y-58902438D02*
X180757143Y-58950057D01*
X180757143Y-58950057D02*
X180661905Y-59092914D01*
X180661905Y-59092914D02*
X180614286Y-59283390D01*
X180614286Y-59283390D02*
X180614286Y-59664342D01*
X180614286Y-59664342D02*
X180661905Y-59759580D01*
X180661905Y-59759580D02*
X180709524Y-59807200D01*
X180709524Y-59807200D02*
X180804762Y-59854819D01*
X180804762Y-59854819D02*
X180995238Y-59854819D01*
X180995238Y-59854819D02*
X181090476Y-59807200D01*
X181090476Y-59807200D02*
X181138095Y-59759580D01*
X181138095Y-59759580D02*
X181185714Y-59664342D01*
X181185714Y-59664342D02*
X181185714Y-59426247D01*
X181185714Y-59426247D02*
X181138095Y-59331009D01*
X181138095Y-59331009D02*
X181090476Y-59283390D01*
X181090476Y-59283390D02*
X180995238Y-59235771D01*
X180995238Y-59235771D02*
X180804762Y-59235771D01*
X180804762Y-59235771D02*
X180709524Y-59283390D01*
X180709524Y-59283390D02*
X180661905Y-59331009D01*
X180661905Y-59331009D02*
X180614286Y-59426247D01*
X73582142Y-76849580D02*
X73534523Y-76897200D01*
X73534523Y-76897200D02*
X73391666Y-76944819D01*
X73391666Y-76944819D02*
X73296428Y-76944819D01*
X73296428Y-76944819D02*
X73153571Y-76897200D01*
X73153571Y-76897200D02*
X73058333Y-76801961D01*
X73058333Y-76801961D02*
X73010714Y-76706723D01*
X73010714Y-76706723D02*
X72963095Y-76516247D01*
X72963095Y-76516247D02*
X72963095Y-76373390D01*
X72963095Y-76373390D02*
X73010714Y-76182914D01*
X73010714Y-76182914D02*
X73058333Y-76087676D01*
X73058333Y-76087676D02*
X73153571Y-75992438D01*
X73153571Y-75992438D02*
X73296428Y-75944819D01*
X73296428Y-75944819D02*
X73391666Y-75944819D01*
X73391666Y-75944819D02*
X73534523Y-75992438D01*
X73534523Y-75992438D02*
X73582142Y-76040057D01*
X74534523Y-76944819D02*
X73963095Y-76944819D01*
X74248809Y-76944819D02*
X74248809Y-75944819D01*
X74248809Y-75944819D02*
X74153571Y-76087676D01*
X74153571Y-76087676D02*
X74058333Y-76182914D01*
X74058333Y-76182914D02*
X73963095Y-76230533D01*
X74867857Y-75944819D02*
X75534523Y-75944819D01*
X75534523Y-75944819D02*
X75105952Y-76944819D01*
X57957142Y-57884819D02*
X57623809Y-57408628D01*
X57385714Y-57884819D02*
X57385714Y-56884819D01*
X57385714Y-56884819D02*
X57766666Y-56884819D01*
X57766666Y-56884819D02*
X57861904Y-56932438D01*
X57861904Y-56932438D02*
X57909523Y-56980057D01*
X57909523Y-56980057D02*
X57957142Y-57075295D01*
X57957142Y-57075295D02*
X57957142Y-57218152D01*
X57957142Y-57218152D02*
X57909523Y-57313390D01*
X57909523Y-57313390D02*
X57861904Y-57361009D01*
X57861904Y-57361009D02*
X57766666Y-57408628D01*
X57766666Y-57408628D02*
X57385714Y-57408628D01*
X58909523Y-57884819D02*
X58338095Y-57884819D01*
X58623809Y-57884819D02*
X58623809Y-56884819D01*
X58623809Y-56884819D02*
X58528571Y-57027676D01*
X58528571Y-57027676D02*
X58433333Y-57122914D01*
X58433333Y-57122914D02*
X58338095Y-57170533D01*
X59480952Y-57313390D02*
X59385714Y-57265771D01*
X59385714Y-57265771D02*
X59338095Y-57218152D01*
X59338095Y-57218152D02*
X59290476Y-57122914D01*
X59290476Y-57122914D02*
X59290476Y-57075295D01*
X59290476Y-57075295D02*
X59338095Y-56980057D01*
X59338095Y-56980057D02*
X59385714Y-56932438D01*
X59385714Y-56932438D02*
X59480952Y-56884819D01*
X59480952Y-56884819D02*
X59671428Y-56884819D01*
X59671428Y-56884819D02*
X59766666Y-56932438D01*
X59766666Y-56932438D02*
X59814285Y-56980057D01*
X59814285Y-56980057D02*
X59861904Y-57075295D01*
X59861904Y-57075295D02*
X59861904Y-57122914D01*
X59861904Y-57122914D02*
X59814285Y-57218152D01*
X59814285Y-57218152D02*
X59766666Y-57265771D01*
X59766666Y-57265771D02*
X59671428Y-57313390D01*
X59671428Y-57313390D02*
X59480952Y-57313390D01*
X59480952Y-57313390D02*
X59385714Y-57361009D01*
X59385714Y-57361009D02*
X59338095Y-57408628D01*
X59338095Y-57408628D02*
X59290476Y-57503866D01*
X59290476Y-57503866D02*
X59290476Y-57694342D01*
X59290476Y-57694342D02*
X59338095Y-57789580D01*
X59338095Y-57789580D02*
X59385714Y-57837200D01*
X59385714Y-57837200D02*
X59480952Y-57884819D01*
X59480952Y-57884819D02*
X59671428Y-57884819D01*
X59671428Y-57884819D02*
X59766666Y-57837200D01*
X59766666Y-57837200D02*
X59814285Y-57789580D01*
X59814285Y-57789580D02*
X59861904Y-57694342D01*
X59861904Y-57694342D02*
X59861904Y-57503866D01*
X59861904Y-57503866D02*
X59814285Y-57408628D01*
X59814285Y-57408628D02*
X59766666Y-57361009D01*
X59766666Y-57361009D02*
X59671428Y-57313390D01*
X57557142Y-61054819D02*
X57223809Y-60578628D01*
X56985714Y-61054819D02*
X56985714Y-60054819D01*
X56985714Y-60054819D02*
X57366666Y-60054819D01*
X57366666Y-60054819D02*
X57461904Y-60102438D01*
X57461904Y-60102438D02*
X57509523Y-60150057D01*
X57509523Y-60150057D02*
X57557142Y-60245295D01*
X57557142Y-60245295D02*
X57557142Y-60388152D01*
X57557142Y-60388152D02*
X57509523Y-60483390D01*
X57509523Y-60483390D02*
X57461904Y-60531009D01*
X57461904Y-60531009D02*
X57366666Y-60578628D01*
X57366666Y-60578628D02*
X56985714Y-60578628D01*
X58509523Y-61054819D02*
X57938095Y-61054819D01*
X58223809Y-61054819D02*
X58223809Y-60054819D01*
X58223809Y-60054819D02*
X58128571Y-60197676D01*
X58128571Y-60197676D02*
X58033333Y-60292914D01*
X58033333Y-60292914D02*
X57938095Y-60340533D01*
X58842857Y-60054819D02*
X59461904Y-60054819D01*
X59461904Y-60054819D02*
X59128571Y-60435771D01*
X59128571Y-60435771D02*
X59271428Y-60435771D01*
X59271428Y-60435771D02*
X59366666Y-60483390D01*
X59366666Y-60483390D02*
X59414285Y-60531009D01*
X59414285Y-60531009D02*
X59461904Y-60626247D01*
X59461904Y-60626247D02*
X59461904Y-60864342D01*
X59461904Y-60864342D02*
X59414285Y-60959580D01*
X59414285Y-60959580D02*
X59366666Y-61007200D01*
X59366666Y-61007200D02*
X59271428Y-61054819D01*
X59271428Y-61054819D02*
X58985714Y-61054819D01*
X58985714Y-61054819D02*
X58890476Y-61007200D01*
X58890476Y-61007200D02*
X58842857Y-60959580D01*
X103359580Y-59242857D02*
X103407200Y-59290476D01*
X103407200Y-59290476D02*
X103454819Y-59433333D01*
X103454819Y-59433333D02*
X103454819Y-59528571D01*
X103454819Y-59528571D02*
X103407200Y-59671428D01*
X103407200Y-59671428D02*
X103311961Y-59766666D01*
X103311961Y-59766666D02*
X103216723Y-59814285D01*
X103216723Y-59814285D02*
X103026247Y-59861904D01*
X103026247Y-59861904D02*
X102883390Y-59861904D01*
X102883390Y-59861904D02*
X102692914Y-59814285D01*
X102692914Y-59814285D02*
X102597676Y-59766666D01*
X102597676Y-59766666D02*
X102502438Y-59671428D01*
X102502438Y-59671428D02*
X102454819Y-59528571D01*
X102454819Y-59528571D02*
X102454819Y-59433333D01*
X102454819Y-59433333D02*
X102502438Y-59290476D01*
X102502438Y-59290476D02*
X102550057Y-59242857D01*
X102454819Y-58909523D02*
X102454819Y-58290476D01*
X102454819Y-58290476D02*
X102835771Y-58623809D01*
X102835771Y-58623809D02*
X102835771Y-58480952D01*
X102835771Y-58480952D02*
X102883390Y-58385714D01*
X102883390Y-58385714D02*
X102931009Y-58338095D01*
X102931009Y-58338095D02*
X103026247Y-58290476D01*
X103026247Y-58290476D02*
X103264342Y-58290476D01*
X103264342Y-58290476D02*
X103359580Y-58338095D01*
X103359580Y-58338095D02*
X103407200Y-58385714D01*
X103407200Y-58385714D02*
X103454819Y-58480952D01*
X103454819Y-58480952D02*
X103454819Y-58766666D01*
X103454819Y-58766666D02*
X103407200Y-58861904D01*
X103407200Y-58861904D02*
X103359580Y-58909523D01*
X103454819Y-57338095D02*
X103454819Y-57909523D01*
X103454819Y-57623809D02*
X102454819Y-57623809D01*
X102454819Y-57623809D02*
X102597676Y-57719047D01*
X102597676Y-57719047D02*
X102692914Y-57814285D01*
X102692914Y-57814285D02*
X102740533Y-57909523D01*
X141190476Y-54454819D02*
X141190476Y-55169104D01*
X141190476Y-55169104D02*
X141142857Y-55311961D01*
X141142857Y-55311961D02*
X141047619Y-55407200D01*
X141047619Y-55407200D02*
X140904762Y-55454819D01*
X140904762Y-55454819D02*
X140809524Y-55454819D01*
X142190476Y-55454819D02*
X141619048Y-55454819D01*
X141904762Y-55454819D02*
X141904762Y-54454819D01*
X141904762Y-54454819D02*
X141809524Y-54597676D01*
X141809524Y-54597676D02*
X141714286Y-54692914D01*
X141714286Y-54692914D02*
X141619048Y-54740533D01*
X142761905Y-54883390D02*
X142666667Y-54835771D01*
X142666667Y-54835771D02*
X142619048Y-54788152D01*
X142619048Y-54788152D02*
X142571429Y-54692914D01*
X142571429Y-54692914D02*
X142571429Y-54645295D01*
X142571429Y-54645295D02*
X142619048Y-54550057D01*
X142619048Y-54550057D02*
X142666667Y-54502438D01*
X142666667Y-54502438D02*
X142761905Y-54454819D01*
X142761905Y-54454819D02*
X142952381Y-54454819D01*
X142952381Y-54454819D02*
X143047619Y-54502438D01*
X143047619Y-54502438D02*
X143095238Y-54550057D01*
X143095238Y-54550057D02*
X143142857Y-54645295D01*
X143142857Y-54645295D02*
X143142857Y-54692914D01*
X143142857Y-54692914D02*
X143095238Y-54788152D01*
X143095238Y-54788152D02*
X143047619Y-54835771D01*
X143047619Y-54835771D02*
X142952381Y-54883390D01*
X142952381Y-54883390D02*
X142761905Y-54883390D01*
X142761905Y-54883390D02*
X142666667Y-54931009D01*
X142666667Y-54931009D02*
X142619048Y-54978628D01*
X142619048Y-54978628D02*
X142571429Y-55073866D01*
X142571429Y-55073866D02*
X142571429Y-55264342D01*
X142571429Y-55264342D02*
X142619048Y-55359580D01*
X142619048Y-55359580D02*
X142666667Y-55407200D01*
X142666667Y-55407200D02*
X142761905Y-55454819D01*
X142761905Y-55454819D02*
X142952381Y-55454819D01*
X142952381Y-55454819D02*
X143047619Y-55407200D01*
X143047619Y-55407200D02*
X143095238Y-55359580D01*
X143095238Y-55359580D02*
X143142857Y-55264342D01*
X143142857Y-55264342D02*
X143142857Y-55073866D01*
X143142857Y-55073866D02*
X143095238Y-54978628D01*
X143095238Y-54978628D02*
X143047619Y-54931009D01*
X143047619Y-54931009D02*
X142952381Y-54883390D01*
X185454819Y-58842857D02*
X184978628Y-59176190D01*
X185454819Y-59414285D02*
X184454819Y-59414285D01*
X184454819Y-59414285D02*
X184454819Y-59033333D01*
X184454819Y-59033333D02*
X184502438Y-58938095D01*
X184502438Y-58938095D02*
X184550057Y-58890476D01*
X184550057Y-58890476D02*
X184645295Y-58842857D01*
X184645295Y-58842857D02*
X184788152Y-58842857D01*
X184788152Y-58842857D02*
X184883390Y-58890476D01*
X184883390Y-58890476D02*
X184931009Y-58938095D01*
X184931009Y-58938095D02*
X184978628Y-59033333D01*
X184978628Y-59033333D02*
X184978628Y-59414285D01*
X185454819Y-57890476D02*
X185454819Y-58461904D01*
X185454819Y-58176190D02*
X184454819Y-58176190D01*
X184454819Y-58176190D02*
X184597676Y-58271428D01*
X184597676Y-58271428D02*
X184692914Y-58366666D01*
X184692914Y-58366666D02*
X184740533Y-58461904D01*
X184454819Y-57033333D02*
X184454819Y-57223809D01*
X184454819Y-57223809D02*
X184502438Y-57319047D01*
X184502438Y-57319047D02*
X184550057Y-57366666D01*
X184550057Y-57366666D02*
X184692914Y-57461904D01*
X184692914Y-57461904D02*
X184883390Y-57509523D01*
X184883390Y-57509523D02*
X185264342Y-57509523D01*
X185264342Y-57509523D02*
X185359580Y-57461904D01*
X185359580Y-57461904D02*
X185407200Y-57414285D01*
X185407200Y-57414285D02*
X185454819Y-57319047D01*
X185454819Y-57319047D02*
X185454819Y-57128571D01*
X185454819Y-57128571D02*
X185407200Y-57033333D01*
X185407200Y-57033333D02*
X185359580Y-56985714D01*
X185359580Y-56985714D02*
X185264342Y-56938095D01*
X185264342Y-56938095D02*
X185026247Y-56938095D01*
X185026247Y-56938095D02*
X184931009Y-56985714D01*
X184931009Y-56985714D02*
X184883390Y-57033333D01*
X184883390Y-57033333D02*
X184835771Y-57128571D01*
X184835771Y-57128571D02*
X184835771Y-57319047D01*
X184835771Y-57319047D02*
X184883390Y-57414285D01*
X184883390Y-57414285D02*
X184931009Y-57461904D01*
X184931009Y-57461904D02*
X185026247Y-57509523D01*
X70357142Y-58654819D02*
X70023809Y-58178628D01*
X69785714Y-58654819D02*
X69785714Y-57654819D01*
X69785714Y-57654819D02*
X70166666Y-57654819D01*
X70166666Y-57654819D02*
X70261904Y-57702438D01*
X70261904Y-57702438D02*
X70309523Y-57750057D01*
X70309523Y-57750057D02*
X70357142Y-57845295D01*
X70357142Y-57845295D02*
X70357142Y-57988152D01*
X70357142Y-57988152D02*
X70309523Y-58083390D01*
X70309523Y-58083390D02*
X70261904Y-58131009D01*
X70261904Y-58131009D02*
X70166666Y-58178628D01*
X70166666Y-58178628D02*
X69785714Y-58178628D01*
X71309523Y-58654819D02*
X70738095Y-58654819D01*
X71023809Y-58654819D02*
X71023809Y-57654819D01*
X71023809Y-57654819D02*
X70928571Y-57797676D01*
X70928571Y-57797676D02*
X70833333Y-57892914D01*
X70833333Y-57892914D02*
X70738095Y-57940533D01*
X71785714Y-58654819D02*
X71976190Y-58654819D01*
X71976190Y-58654819D02*
X72071428Y-58607200D01*
X72071428Y-58607200D02*
X72119047Y-58559580D01*
X72119047Y-58559580D02*
X72214285Y-58416723D01*
X72214285Y-58416723D02*
X72261904Y-58226247D01*
X72261904Y-58226247D02*
X72261904Y-57845295D01*
X72261904Y-57845295D02*
X72214285Y-57750057D01*
X72214285Y-57750057D02*
X72166666Y-57702438D01*
X72166666Y-57702438D02*
X72071428Y-57654819D01*
X72071428Y-57654819D02*
X71880952Y-57654819D01*
X71880952Y-57654819D02*
X71785714Y-57702438D01*
X71785714Y-57702438D02*
X71738095Y-57750057D01*
X71738095Y-57750057D02*
X71690476Y-57845295D01*
X71690476Y-57845295D02*
X71690476Y-58083390D01*
X71690476Y-58083390D02*
X71738095Y-58178628D01*
X71738095Y-58178628D02*
X71785714Y-58226247D01*
X71785714Y-58226247D02*
X71880952Y-58273866D01*
X71880952Y-58273866D02*
X72071428Y-58273866D01*
X72071428Y-58273866D02*
X72166666Y-58226247D01*
X72166666Y-58226247D02*
X72214285Y-58178628D01*
X72214285Y-58178628D02*
X72261904Y-58083390D01*
X92854819Y-58042857D02*
X92378628Y-58376190D01*
X92854819Y-58614285D02*
X91854819Y-58614285D01*
X91854819Y-58614285D02*
X91854819Y-58233333D01*
X91854819Y-58233333D02*
X91902438Y-58138095D01*
X91902438Y-58138095D02*
X91950057Y-58090476D01*
X91950057Y-58090476D02*
X92045295Y-58042857D01*
X92045295Y-58042857D02*
X92188152Y-58042857D01*
X92188152Y-58042857D02*
X92283390Y-58090476D01*
X92283390Y-58090476D02*
X92331009Y-58138095D01*
X92331009Y-58138095D02*
X92378628Y-58233333D01*
X92378628Y-58233333D02*
X92378628Y-58614285D01*
X91854819Y-57709523D02*
X91854819Y-57090476D01*
X91854819Y-57090476D02*
X92235771Y-57423809D01*
X92235771Y-57423809D02*
X92235771Y-57280952D01*
X92235771Y-57280952D02*
X92283390Y-57185714D01*
X92283390Y-57185714D02*
X92331009Y-57138095D01*
X92331009Y-57138095D02*
X92426247Y-57090476D01*
X92426247Y-57090476D02*
X92664342Y-57090476D01*
X92664342Y-57090476D02*
X92759580Y-57138095D01*
X92759580Y-57138095D02*
X92807200Y-57185714D01*
X92807200Y-57185714D02*
X92854819Y-57280952D01*
X92854819Y-57280952D02*
X92854819Y-57566666D01*
X92854819Y-57566666D02*
X92807200Y-57661904D01*
X92807200Y-57661904D02*
X92759580Y-57709523D01*
X91854819Y-56757142D02*
X91854819Y-56090476D01*
X91854819Y-56090476D02*
X92854819Y-56519047D01*
X135838095Y-59254819D02*
X135838095Y-60064342D01*
X135838095Y-60064342D02*
X135885714Y-60159580D01*
X135885714Y-60159580D02*
X135933333Y-60207200D01*
X135933333Y-60207200D02*
X136028571Y-60254819D01*
X136028571Y-60254819D02*
X136219047Y-60254819D01*
X136219047Y-60254819D02*
X136314285Y-60207200D01*
X136314285Y-60207200D02*
X136361904Y-60159580D01*
X136361904Y-60159580D02*
X136409523Y-60064342D01*
X136409523Y-60064342D02*
X136409523Y-59254819D01*
X137314285Y-59254819D02*
X137123809Y-59254819D01*
X137123809Y-59254819D02*
X137028571Y-59302438D01*
X137028571Y-59302438D02*
X136980952Y-59350057D01*
X136980952Y-59350057D02*
X136885714Y-59492914D01*
X136885714Y-59492914D02*
X136838095Y-59683390D01*
X136838095Y-59683390D02*
X136838095Y-60064342D01*
X136838095Y-60064342D02*
X136885714Y-60159580D01*
X136885714Y-60159580D02*
X136933333Y-60207200D01*
X136933333Y-60207200D02*
X137028571Y-60254819D01*
X137028571Y-60254819D02*
X137219047Y-60254819D01*
X137219047Y-60254819D02*
X137314285Y-60207200D01*
X137314285Y-60207200D02*
X137361904Y-60159580D01*
X137361904Y-60159580D02*
X137409523Y-60064342D01*
X137409523Y-60064342D02*
X137409523Y-59826247D01*
X137409523Y-59826247D02*
X137361904Y-59731009D01*
X137361904Y-59731009D02*
X137314285Y-59683390D01*
X137314285Y-59683390D02*
X137219047Y-59635771D01*
X137219047Y-59635771D02*
X137028571Y-59635771D01*
X137028571Y-59635771D02*
X136933333Y-59683390D01*
X136933333Y-59683390D02*
X136885714Y-59731009D01*
X136885714Y-59731009D02*
X136838095Y-59826247D01*
X186854819Y-52842857D02*
X186378628Y-53176190D01*
X186854819Y-53414285D02*
X185854819Y-53414285D01*
X185854819Y-53414285D02*
X185854819Y-53033333D01*
X185854819Y-53033333D02*
X185902438Y-52938095D01*
X185902438Y-52938095D02*
X185950057Y-52890476D01*
X185950057Y-52890476D02*
X186045295Y-52842857D01*
X186045295Y-52842857D02*
X186188152Y-52842857D01*
X186188152Y-52842857D02*
X186283390Y-52890476D01*
X186283390Y-52890476D02*
X186331009Y-52938095D01*
X186331009Y-52938095D02*
X186378628Y-53033333D01*
X186378628Y-53033333D02*
X186378628Y-53414285D01*
X186854819Y-51890476D02*
X186854819Y-52461904D01*
X186854819Y-52176190D02*
X185854819Y-52176190D01*
X185854819Y-52176190D02*
X185997676Y-52271428D01*
X185997676Y-52271428D02*
X186092914Y-52366666D01*
X186092914Y-52366666D02*
X186140533Y-52461904D01*
X185854819Y-50985714D02*
X185854819Y-51461904D01*
X185854819Y-51461904D02*
X186331009Y-51509523D01*
X186331009Y-51509523D02*
X186283390Y-51461904D01*
X186283390Y-51461904D02*
X186235771Y-51366666D01*
X186235771Y-51366666D02*
X186235771Y-51128571D01*
X186235771Y-51128571D02*
X186283390Y-51033333D01*
X186283390Y-51033333D02*
X186331009Y-50985714D01*
X186331009Y-50985714D02*
X186426247Y-50938095D01*
X186426247Y-50938095D02*
X186664342Y-50938095D01*
X186664342Y-50938095D02*
X186759580Y-50985714D01*
X186759580Y-50985714D02*
X186807200Y-51033333D01*
X186807200Y-51033333D02*
X186854819Y-51128571D01*
X186854819Y-51128571D02*
X186854819Y-51366666D01*
X186854819Y-51366666D02*
X186807200Y-51461904D01*
X186807200Y-51461904D02*
X186759580Y-51509523D01*
X143959580Y-67042857D02*
X144007200Y-67090476D01*
X144007200Y-67090476D02*
X144054819Y-67233333D01*
X144054819Y-67233333D02*
X144054819Y-67328571D01*
X144054819Y-67328571D02*
X144007200Y-67471428D01*
X144007200Y-67471428D02*
X143911961Y-67566666D01*
X143911961Y-67566666D02*
X143816723Y-67614285D01*
X143816723Y-67614285D02*
X143626247Y-67661904D01*
X143626247Y-67661904D02*
X143483390Y-67661904D01*
X143483390Y-67661904D02*
X143292914Y-67614285D01*
X143292914Y-67614285D02*
X143197676Y-67566666D01*
X143197676Y-67566666D02*
X143102438Y-67471428D01*
X143102438Y-67471428D02*
X143054819Y-67328571D01*
X143054819Y-67328571D02*
X143054819Y-67233333D01*
X143054819Y-67233333D02*
X143102438Y-67090476D01*
X143102438Y-67090476D02*
X143150057Y-67042857D01*
X143054819Y-66709523D02*
X143054819Y-66090476D01*
X143054819Y-66090476D02*
X143435771Y-66423809D01*
X143435771Y-66423809D02*
X143435771Y-66280952D01*
X143435771Y-66280952D02*
X143483390Y-66185714D01*
X143483390Y-66185714D02*
X143531009Y-66138095D01*
X143531009Y-66138095D02*
X143626247Y-66090476D01*
X143626247Y-66090476D02*
X143864342Y-66090476D01*
X143864342Y-66090476D02*
X143959580Y-66138095D01*
X143959580Y-66138095D02*
X144007200Y-66185714D01*
X144007200Y-66185714D02*
X144054819Y-66280952D01*
X144054819Y-66280952D02*
X144054819Y-66566666D01*
X144054819Y-66566666D02*
X144007200Y-66661904D01*
X144007200Y-66661904D02*
X143959580Y-66709523D01*
X143054819Y-65471428D02*
X143054819Y-65376190D01*
X143054819Y-65376190D02*
X143102438Y-65280952D01*
X143102438Y-65280952D02*
X143150057Y-65233333D01*
X143150057Y-65233333D02*
X143245295Y-65185714D01*
X143245295Y-65185714D02*
X143435771Y-65138095D01*
X143435771Y-65138095D02*
X143673866Y-65138095D01*
X143673866Y-65138095D02*
X143864342Y-65185714D01*
X143864342Y-65185714D02*
X143959580Y-65233333D01*
X143959580Y-65233333D02*
X144007200Y-65280952D01*
X144007200Y-65280952D02*
X144054819Y-65376190D01*
X144054819Y-65376190D02*
X144054819Y-65471428D01*
X144054819Y-65471428D02*
X144007200Y-65566666D01*
X144007200Y-65566666D02*
X143959580Y-65614285D01*
X143959580Y-65614285D02*
X143864342Y-65661904D01*
X143864342Y-65661904D02*
X143673866Y-65709523D01*
X143673866Y-65709523D02*
X143435771Y-65709523D01*
X143435771Y-65709523D02*
X143245295Y-65661904D01*
X143245295Y-65661904D02*
X143150057Y-65614285D01*
X143150057Y-65614285D02*
X143102438Y-65566666D01*
X143102438Y-65566666D02*
X143054819Y-65471428D01*
D12*
X98542580Y-90390476D02*
X97828295Y-90390476D01*
X97828295Y-90390476D02*
X97685438Y-90342857D01*
X97685438Y-90342857D02*
X97590200Y-90247619D01*
X97590200Y-90247619D02*
X97542580Y-90104762D01*
X97542580Y-90104762D02*
X97542580Y-90009524D01*
X97542580Y-91390476D02*
X97542580Y-90819048D01*
X97542580Y-91104762D02*
X98542580Y-91104762D01*
X98542580Y-91104762D02*
X98399723Y-91009524D01*
X98399723Y-91009524D02*
X98304485Y-90914286D01*
X98304485Y-90914286D02*
X98256866Y-90819048D01*
X97542580Y-91866667D02*
X97542580Y-92057143D01*
X97542580Y-92057143D02*
X97590200Y-92152381D01*
X97590200Y-92152381D02*
X97637819Y-92200000D01*
X97637819Y-92200000D02*
X97780676Y-92295238D01*
X97780676Y-92295238D02*
X97971152Y-92342857D01*
X97971152Y-92342857D02*
X98352104Y-92342857D01*
X98352104Y-92342857D02*
X98447342Y-92295238D01*
X98447342Y-92295238D02*
X98494961Y-92247619D01*
X98494961Y-92247619D02*
X98542580Y-92152381D01*
X98542580Y-92152381D02*
X98542580Y-91961905D01*
X98542580Y-91961905D02*
X98494961Y-91866667D01*
X98494961Y-91866667D02*
X98447342Y-91819048D01*
X98447342Y-91819048D02*
X98352104Y-91771429D01*
X98352104Y-91771429D02*
X98114009Y-91771429D01*
X98114009Y-91771429D02*
X98018771Y-91819048D01*
X98018771Y-91819048D02*
X97971152Y-91866667D01*
X97971152Y-91866667D02*
X97923533Y-91961905D01*
X97923533Y-91961905D02*
X97923533Y-92152381D01*
X97923533Y-92152381D02*
X97971152Y-92247619D01*
X97971152Y-92247619D02*
X98018771Y-92295238D01*
X98018771Y-92295238D02*
X98114009Y-92342857D01*
X84357419Y-76809523D02*
X85071704Y-76809523D01*
X85071704Y-76809523D02*
X85214561Y-76857142D01*
X85214561Y-76857142D02*
X85309800Y-76952380D01*
X85309800Y-76952380D02*
X85357419Y-77095237D01*
X85357419Y-77095237D02*
X85357419Y-77190475D01*
X85357419Y-75809523D02*
X85357419Y-76380951D01*
X85357419Y-76095237D02*
X84357419Y-76095237D01*
X84357419Y-76095237D02*
X84500276Y-76190475D01*
X84500276Y-76190475D02*
X84595514Y-76285713D01*
X84595514Y-76285713D02*
X84643133Y-76380951D01*
X84357419Y-75476189D02*
X84357419Y-74809523D01*
X84357419Y-74809523D02*
X85357419Y-75238094D01*
D11*
X66957142Y-59759580D02*
X66909523Y-59807200D01*
X66909523Y-59807200D02*
X66766666Y-59854819D01*
X66766666Y-59854819D02*
X66671428Y-59854819D01*
X66671428Y-59854819D02*
X66528571Y-59807200D01*
X66528571Y-59807200D02*
X66433333Y-59711961D01*
X66433333Y-59711961D02*
X66385714Y-59616723D01*
X66385714Y-59616723D02*
X66338095Y-59426247D01*
X66338095Y-59426247D02*
X66338095Y-59283390D01*
X66338095Y-59283390D02*
X66385714Y-59092914D01*
X66385714Y-59092914D02*
X66433333Y-58997676D01*
X66433333Y-58997676D02*
X66528571Y-58902438D01*
X66528571Y-58902438D02*
X66671428Y-58854819D01*
X66671428Y-58854819D02*
X66766666Y-58854819D01*
X66766666Y-58854819D02*
X66909523Y-58902438D01*
X66909523Y-58902438D02*
X66957142Y-58950057D01*
X67909523Y-59854819D02*
X67338095Y-59854819D01*
X67623809Y-59854819D02*
X67623809Y-58854819D01*
X67623809Y-58854819D02*
X67528571Y-58997676D01*
X67528571Y-58997676D02*
X67433333Y-59092914D01*
X67433333Y-59092914D02*
X67338095Y-59140533D01*
X68290476Y-58950057D02*
X68338095Y-58902438D01*
X68338095Y-58902438D02*
X68433333Y-58854819D01*
X68433333Y-58854819D02*
X68671428Y-58854819D01*
X68671428Y-58854819D02*
X68766666Y-58902438D01*
X68766666Y-58902438D02*
X68814285Y-58950057D01*
X68814285Y-58950057D02*
X68861904Y-59045295D01*
X68861904Y-59045295D02*
X68861904Y-59140533D01*
X68861904Y-59140533D02*
X68814285Y-59283390D01*
X68814285Y-59283390D02*
X68242857Y-59854819D01*
X68242857Y-59854819D02*
X68861904Y-59854819D01*
X183590476Y-111654819D02*
X183590476Y-112369104D01*
X183590476Y-112369104D02*
X183542857Y-112511961D01*
X183542857Y-112511961D02*
X183447619Y-112607200D01*
X183447619Y-112607200D02*
X183304762Y-112654819D01*
X183304762Y-112654819D02*
X183209524Y-112654819D01*
X184019048Y-111750057D02*
X184066667Y-111702438D01*
X184066667Y-111702438D02*
X184161905Y-111654819D01*
X184161905Y-111654819D02*
X184400000Y-111654819D01*
X184400000Y-111654819D02*
X184495238Y-111702438D01*
X184495238Y-111702438D02*
X184542857Y-111750057D01*
X184542857Y-111750057D02*
X184590476Y-111845295D01*
X184590476Y-111845295D02*
X184590476Y-111940533D01*
X184590476Y-111940533D02*
X184542857Y-112083390D01*
X184542857Y-112083390D02*
X183971429Y-112654819D01*
X183971429Y-112654819D02*
X184590476Y-112654819D01*
X185447619Y-111988152D02*
X185447619Y-112654819D01*
X185209524Y-111607200D02*
X184971429Y-112321485D01*
X184971429Y-112321485D02*
X185590476Y-112321485D01*
X56117319Y-88959523D02*
X56831604Y-88959523D01*
X56831604Y-88959523D02*
X56974461Y-89007142D01*
X56974461Y-89007142D02*
X57069700Y-89102380D01*
X57069700Y-89102380D02*
X57117319Y-89245237D01*
X57117319Y-89245237D02*
X57117319Y-89340475D01*
X57117319Y-87959523D02*
X57117319Y-88530951D01*
X57117319Y-88245237D02*
X56117319Y-88245237D01*
X56117319Y-88245237D02*
X56260176Y-88340475D01*
X56260176Y-88340475D02*
X56355414Y-88435713D01*
X56355414Y-88435713D02*
X56403033Y-88530951D01*
X57117319Y-87007142D02*
X57117319Y-87578570D01*
X57117319Y-87292856D02*
X56117319Y-87292856D01*
X56117319Y-87292856D02*
X56260176Y-87388094D01*
X56260176Y-87388094D02*
X56355414Y-87483332D01*
X56355414Y-87483332D02*
X56403033Y-87578570D01*
X67838095Y-53054819D02*
X67838095Y-53864342D01*
X67838095Y-53864342D02*
X67885714Y-53959580D01*
X67885714Y-53959580D02*
X67933333Y-54007200D01*
X67933333Y-54007200D02*
X68028571Y-54054819D01*
X68028571Y-54054819D02*
X68219047Y-54054819D01*
X68219047Y-54054819D02*
X68314285Y-54007200D01*
X68314285Y-54007200D02*
X68361904Y-53959580D01*
X68361904Y-53959580D02*
X68409523Y-53864342D01*
X68409523Y-53864342D02*
X68409523Y-53054819D01*
X68838095Y-53150057D02*
X68885714Y-53102438D01*
X68885714Y-53102438D02*
X68980952Y-53054819D01*
X68980952Y-53054819D02*
X69219047Y-53054819D01*
X69219047Y-53054819D02*
X69314285Y-53102438D01*
X69314285Y-53102438D02*
X69361904Y-53150057D01*
X69361904Y-53150057D02*
X69409523Y-53245295D01*
X69409523Y-53245295D02*
X69409523Y-53340533D01*
X69409523Y-53340533D02*
X69361904Y-53483390D01*
X69361904Y-53483390D02*
X68790476Y-54054819D01*
X68790476Y-54054819D02*
X69409523Y-54054819D01*
X155757142Y-57654819D02*
X155423809Y-57178628D01*
X155185714Y-57654819D02*
X155185714Y-56654819D01*
X155185714Y-56654819D02*
X155566666Y-56654819D01*
X155566666Y-56654819D02*
X155661904Y-56702438D01*
X155661904Y-56702438D02*
X155709523Y-56750057D01*
X155709523Y-56750057D02*
X155757142Y-56845295D01*
X155757142Y-56845295D02*
X155757142Y-56988152D01*
X155757142Y-56988152D02*
X155709523Y-57083390D01*
X155709523Y-57083390D02*
X155661904Y-57131009D01*
X155661904Y-57131009D02*
X155566666Y-57178628D01*
X155566666Y-57178628D02*
X155185714Y-57178628D01*
X156138095Y-56750057D02*
X156185714Y-56702438D01*
X156185714Y-56702438D02*
X156280952Y-56654819D01*
X156280952Y-56654819D02*
X156519047Y-56654819D01*
X156519047Y-56654819D02*
X156614285Y-56702438D01*
X156614285Y-56702438D02*
X156661904Y-56750057D01*
X156661904Y-56750057D02*
X156709523Y-56845295D01*
X156709523Y-56845295D02*
X156709523Y-56940533D01*
X156709523Y-56940533D02*
X156661904Y-57083390D01*
X156661904Y-57083390D02*
X156090476Y-57654819D01*
X156090476Y-57654819D02*
X156709523Y-57654819D01*
X157328571Y-56654819D02*
X157423809Y-56654819D01*
X157423809Y-56654819D02*
X157519047Y-56702438D01*
X157519047Y-56702438D02*
X157566666Y-56750057D01*
X157566666Y-56750057D02*
X157614285Y-56845295D01*
X157614285Y-56845295D02*
X157661904Y-57035771D01*
X157661904Y-57035771D02*
X157661904Y-57273866D01*
X157661904Y-57273866D02*
X157614285Y-57464342D01*
X157614285Y-57464342D02*
X157566666Y-57559580D01*
X157566666Y-57559580D02*
X157519047Y-57607200D01*
X157519047Y-57607200D02*
X157423809Y-57654819D01*
X157423809Y-57654819D02*
X157328571Y-57654819D01*
X157328571Y-57654819D02*
X157233333Y-57607200D01*
X157233333Y-57607200D02*
X157185714Y-57559580D01*
X157185714Y-57559580D02*
X157138095Y-57464342D01*
X157138095Y-57464342D02*
X157090476Y-57273866D01*
X157090476Y-57273866D02*
X157090476Y-57035771D01*
X157090476Y-57035771D02*
X157138095Y-56845295D01*
X157138095Y-56845295D02*
X157185714Y-56750057D01*
X157185714Y-56750057D02*
X157233333Y-56702438D01*
X157233333Y-56702438D02*
X157328571Y-56654819D01*
X48754819Y-55333333D02*
X49469104Y-55333333D01*
X49469104Y-55333333D02*
X49611961Y-55380952D01*
X49611961Y-55380952D02*
X49707200Y-55476190D01*
X49707200Y-55476190D02*
X49754819Y-55619047D01*
X49754819Y-55619047D02*
X49754819Y-55714285D01*
X48754819Y-54952380D02*
X48754819Y-54285714D01*
X48754819Y-54285714D02*
X49754819Y-54714285D01*
X61159580Y-58942857D02*
X61207200Y-58990476D01*
X61207200Y-58990476D02*
X61254819Y-59133333D01*
X61254819Y-59133333D02*
X61254819Y-59228571D01*
X61254819Y-59228571D02*
X61207200Y-59371428D01*
X61207200Y-59371428D02*
X61111961Y-59466666D01*
X61111961Y-59466666D02*
X61016723Y-59514285D01*
X61016723Y-59514285D02*
X60826247Y-59561904D01*
X60826247Y-59561904D02*
X60683390Y-59561904D01*
X60683390Y-59561904D02*
X60492914Y-59514285D01*
X60492914Y-59514285D02*
X60397676Y-59466666D01*
X60397676Y-59466666D02*
X60302438Y-59371428D01*
X60302438Y-59371428D02*
X60254819Y-59228571D01*
X60254819Y-59228571D02*
X60254819Y-59133333D01*
X60254819Y-59133333D02*
X60302438Y-58990476D01*
X60302438Y-58990476D02*
X60350057Y-58942857D01*
X61254819Y-57990476D02*
X61254819Y-58561904D01*
X61254819Y-58276190D02*
X60254819Y-58276190D01*
X60254819Y-58276190D02*
X60397676Y-58371428D01*
X60397676Y-58371428D02*
X60492914Y-58466666D01*
X60492914Y-58466666D02*
X60540533Y-58561904D01*
X60254819Y-57371428D02*
X60254819Y-57276190D01*
X60254819Y-57276190D02*
X60302438Y-57180952D01*
X60302438Y-57180952D02*
X60350057Y-57133333D01*
X60350057Y-57133333D02*
X60445295Y-57085714D01*
X60445295Y-57085714D02*
X60635771Y-57038095D01*
X60635771Y-57038095D02*
X60873866Y-57038095D01*
X60873866Y-57038095D02*
X61064342Y-57085714D01*
X61064342Y-57085714D02*
X61159580Y-57133333D01*
X61159580Y-57133333D02*
X61207200Y-57180952D01*
X61207200Y-57180952D02*
X61254819Y-57276190D01*
X61254819Y-57276190D02*
X61254819Y-57371428D01*
X61254819Y-57371428D02*
X61207200Y-57466666D01*
X61207200Y-57466666D02*
X61159580Y-57514285D01*
X61159580Y-57514285D02*
X61064342Y-57561904D01*
X61064342Y-57561904D02*
X60873866Y-57609523D01*
X60873866Y-57609523D02*
X60635771Y-57609523D01*
X60635771Y-57609523D02*
X60445295Y-57561904D01*
X60445295Y-57561904D02*
X60350057Y-57514285D01*
X60350057Y-57514285D02*
X60302438Y-57466666D01*
X60302438Y-57466666D02*
X60254819Y-57371428D01*
X185359580Y-52966666D02*
X185407200Y-53014285D01*
X185407200Y-53014285D02*
X185454819Y-53157142D01*
X185454819Y-53157142D02*
X185454819Y-53252380D01*
X185454819Y-53252380D02*
X185407200Y-53395237D01*
X185407200Y-53395237D02*
X185311961Y-53490475D01*
X185311961Y-53490475D02*
X185216723Y-53538094D01*
X185216723Y-53538094D02*
X185026247Y-53585713D01*
X185026247Y-53585713D02*
X184883390Y-53585713D01*
X184883390Y-53585713D02*
X184692914Y-53538094D01*
X184692914Y-53538094D02*
X184597676Y-53490475D01*
X184597676Y-53490475D02*
X184502438Y-53395237D01*
X184502438Y-53395237D02*
X184454819Y-53252380D01*
X184454819Y-53252380D02*
X184454819Y-53157142D01*
X184454819Y-53157142D02*
X184502438Y-53014285D01*
X184502438Y-53014285D02*
X184550057Y-52966666D01*
X184454819Y-52633332D02*
X184454819Y-51966666D01*
X184454819Y-51966666D02*
X185454819Y-52395237D01*
X172590476Y-52054819D02*
X172590476Y-52769104D01*
X172590476Y-52769104D02*
X172542857Y-52911961D01*
X172542857Y-52911961D02*
X172447619Y-53007200D01*
X172447619Y-53007200D02*
X172304762Y-53054819D01*
X172304762Y-53054819D02*
X172209524Y-53054819D01*
X173590476Y-53054819D02*
X173019048Y-53054819D01*
X173304762Y-53054819D02*
X173304762Y-52054819D01*
X173304762Y-52054819D02*
X173209524Y-52197676D01*
X173209524Y-52197676D02*
X173114286Y-52292914D01*
X173114286Y-52292914D02*
X173019048Y-52340533D01*
X174209524Y-52054819D02*
X174304762Y-52054819D01*
X174304762Y-52054819D02*
X174400000Y-52102438D01*
X174400000Y-52102438D02*
X174447619Y-52150057D01*
X174447619Y-52150057D02*
X174495238Y-52245295D01*
X174495238Y-52245295D02*
X174542857Y-52435771D01*
X174542857Y-52435771D02*
X174542857Y-52673866D01*
X174542857Y-52673866D02*
X174495238Y-52864342D01*
X174495238Y-52864342D02*
X174447619Y-52959580D01*
X174447619Y-52959580D02*
X174400000Y-53007200D01*
X174400000Y-53007200D02*
X174304762Y-53054819D01*
X174304762Y-53054819D02*
X174209524Y-53054819D01*
X174209524Y-53054819D02*
X174114286Y-53007200D01*
X174114286Y-53007200D02*
X174066667Y-52959580D01*
X174066667Y-52959580D02*
X174019048Y-52864342D01*
X174019048Y-52864342D02*
X173971429Y-52673866D01*
X173971429Y-52673866D02*
X173971429Y-52435771D01*
X173971429Y-52435771D02*
X174019048Y-52245295D01*
X174019048Y-52245295D02*
X174066667Y-52150057D01*
X174066667Y-52150057D02*
X174114286Y-52102438D01*
X174114286Y-52102438D02*
X174209524Y-52054819D01*
X73557142Y-54759580D02*
X73509523Y-54807200D01*
X73509523Y-54807200D02*
X73366666Y-54854819D01*
X73366666Y-54854819D02*
X73271428Y-54854819D01*
X73271428Y-54854819D02*
X73128571Y-54807200D01*
X73128571Y-54807200D02*
X73033333Y-54711961D01*
X73033333Y-54711961D02*
X72985714Y-54616723D01*
X72985714Y-54616723D02*
X72938095Y-54426247D01*
X72938095Y-54426247D02*
X72938095Y-54283390D01*
X72938095Y-54283390D02*
X72985714Y-54092914D01*
X72985714Y-54092914D02*
X73033333Y-53997676D01*
X73033333Y-53997676D02*
X73128571Y-53902438D01*
X73128571Y-53902438D02*
X73271428Y-53854819D01*
X73271428Y-53854819D02*
X73366666Y-53854819D01*
X73366666Y-53854819D02*
X73509523Y-53902438D01*
X73509523Y-53902438D02*
X73557142Y-53950057D01*
X74509523Y-54854819D02*
X73938095Y-54854819D01*
X74223809Y-54854819D02*
X74223809Y-53854819D01*
X74223809Y-53854819D02*
X74128571Y-53997676D01*
X74128571Y-53997676D02*
X74033333Y-54092914D01*
X74033333Y-54092914D02*
X73938095Y-54140533D01*
X74842857Y-53854819D02*
X75461904Y-53854819D01*
X75461904Y-53854819D02*
X75128571Y-54235771D01*
X75128571Y-54235771D02*
X75271428Y-54235771D01*
X75271428Y-54235771D02*
X75366666Y-54283390D01*
X75366666Y-54283390D02*
X75414285Y-54331009D01*
X75414285Y-54331009D02*
X75461904Y-54426247D01*
X75461904Y-54426247D02*
X75461904Y-54664342D01*
X75461904Y-54664342D02*
X75414285Y-54759580D01*
X75414285Y-54759580D02*
X75366666Y-54807200D01*
X75366666Y-54807200D02*
X75271428Y-54854819D01*
X75271428Y-54854819D02*
X74985714Y-54854819D01*
X74985714Y-54854819D02*
X74890476Y-54807200D01*
X74890476Y-54807200D02*
X74842857Y-54759580D01*
X76557142Y-79789580D02*
X76509523Y-79837200D01*
X76509523Y-79837200D02*
X76366666Y-79884819D01*
X76366666Y-79884819D02*
X76271428Y-79884819D01*
X76271428Y-79884819D02*
X76128571Y-79837200D01*
X76128571Y-79837200D02*
X76033333Y-79741961D01*
X76033333Y-79741961D02*
X75985714Y-79646723D01*
X75985714Y-79646723D02*
X75938095Y-79456247D01*
X75938095Y-79456247D02*
X75938095Y-79313390D01*
X75938095Y-79313390D02*
X75985714Y-79122914D01*
X75985714Y-79122914D02*
X76033333Y-79027676D01*
X76033333Y-79027676D02*
X76128571Y-78932438D01*
X76128571Y-78932438D02*
X76271428Y-78884819D01*
X76271428Y-78884819D02*
X76366666Y-78884819D01*
X76366666Y-78884819D02*
X76509523Y-78932438D01*
X76509523Y-78932438D02*
X76557142Y-78980057D01*
X77509523Y-79884819D02*
X76938095Y-79884819D01*
X77223809Y-79884819D02*
X77223809Y-78884819D01*
X77223809Y-78884819D02*
X77128571Y-79027676D01*
X77128571Y-79027676D02*
X77033333Y-79122914D01*
X77033333Y-79122914D02*
X76938095Y-79170533D01*
X78366666Y-78884819D02*
X78176190Y-78884819D01*
X78176190Y-78884819D02*
X78080952Y-78932438D01*
X78080952Y-78932438D02*
X78033333Y-78980057D01*
X78033333Y-78980057D02*
X77938095Y-79122914D01*
X77938095Y-79122914D02*
X77890476Y-79313390D01*
X77890476Y-79313390D02*
X77890476Y-79694342D01*
X77890476Y-79694342D02*
X77938095Y-79789580D01*
X77938095Y-79789580D02*
X77985714Y-79837200D01*
X77985714Y-79837200D02*
X78080952Y-79884819D01*
X78080952Y-79884819D02*
X78271428Y-79884819D01*
X78271428Y-79884819D02*
X78366666Y-79837200D01*
X78366666Y-79837200D02*
X78414285Y-79789580D01*
X78414285Y-79789580D02*
X78461904Y-79694342D01*
X78461904Y-79694342D02*
X78461904Y-79456247D01*
X78461904Y-79456247D02*
X78414285Y-79361009D01*
X78414285Y-79361009D02*
X78366666Y-79313390D01*
X78366666Y-79313390D02*
X78271428Y-79265771D01*
X78271428Y-79265771D02*
X78080952Y-79265771D01*
X78080952Y-79265771D02*
X77985714Y-79313390D01*
X77985714Y-79313390D02*
X77938095Y-79361009D01*
X77938095Y-79361009D02*
X77890476Y-79456247D01*
X101759580Y-61067857D02*
X101807200Y-61115476D01*
X101807200Y-61115476D02*
X101854819Y-61258333D01*
X101854819Y-61258333D02*
X101854819Y-61353571D01*
X101854819Y-61353571D02*
X101807200Y-61496428D01*
X101807200Y-61496428D02*
X101711961Y-61591666D01*
X101711961Y-61591666D02*
X101616723Y-61639285D01*
X101616723Y-61639285D02*
X101426247Y-61686904D01*
X101426247Y-61686904D02*
X101283390Y-61686904D01*
X101283390Y-61686904D02*
X101092914Y-61639285D01*
X101092914Y-61639285D02*
X100997676Y-61591666D01*
X100997676Y-61591666D02*
X100902438Y-61496428D01*
X100902438Y-61496428D02*
X100854819Y-61353571D01*
X100854819Y-61353571D02*
X100854819Y-61258333D01*
X100854819Y-61258333D02*
X100902438Y-61115476D01*
X100902438Y-61115476D02*
X100950057Y-61067857D01*
X100950057Y-60686904D02*
X100902438Y-60639285D01*
X100902438Y-60639285D02*
X100854819Y-60544047D01*
X100854819Y-60544047D02*
X100854819Y-60305952D01*
X100854819Y-60305952D02*
X100902438Y-60210714D01*
X100902438Y-60210714D02*
X100950057Y-60163095D01*
X100950057Y-60163095D02*
X101045295Y-60115476D01*
X101045295Y-60115476D02*
X101140533Y-60115476D01*
X101140533Y-60115476D02*
X101283390Y-60163095D01*
X101283390Y-60163095D02*
X101854819Y-60734523D01*
X101854819Y-60734523D02*
X101854819Y-60115476D01*
X101854819Y-59639285D02*
X101854819Y-59448809D01*
X101854819Y-59448809D02*
X101807200Y-59353571D01*
X101807200Y-59353571D02*
X101759580Y-59305952D01*
X101759580Y-59305952D02*
X101616723Y-59210714D01*
X101616723Y-59210714D02*
X101426247Y-59163095D01*
X101426247Y-59163095D02*
X101045295Y-59163095D01*
X101045295Y-59163095D02*
X100950057Y-59210714D01*
X100950057Y-59210714D02*
X100902438Y-59258333D01*
X100902438Y-59258333D02*
X100854819Y-59353571D01*
X100854819Y-59353571D02*
X100854819Y-59544047D01*
X100854819Y-59544047D02*
X100902438Y-59639285D01*
X100902438Y-59639285D02*
X100950057Y-59686904D01*
X100950057Y-59686904D02*
X101045295Y-59734523D01*
X101045295Y-59734523D02*
X101283390Y-59734523D01*
X101283390Y-59734523D02*
X101378628Y-59686904D01*
X101378628Y-59686904D02*
X101426247Y-59639285D01*
X101426247Y-59639285D02*
X101473866Y-59544047D01*
X101473866Y-59544047D02*
X101473866Y-59353571D01*
X101473866Y-59353571D02*
X101426247Y-59258333D01*
X101426247Y-59258333D02*
X101378628Y-59210714D01*
X101378628Y-59210714D02*
X101283390Y-59163095D01*
X182433333Y-51559580D02*
X182385714Y-51607200D01*
X182385714Y-51607200D02*
X182242857Y-51654819D01*
X182242857Y-51654819D02*
X182147619Y-51654819D01*
X182147619Y-51654819D02*
X182004762Y-51607200D01*
X182004762Y-51607200D02*
X181909524Y-51511961D01*
X181909524Y-51511961D02*
X181861905Y-51416723D01*
X181861905Y-51416723D02*
X181814286Y-51226247D01*
X181814286Y-51226247D02*
X181814286Y-51083390D01*
X181814286Y-51083390D02*
X181861905Y-50892914D01*
X181861905Y-50892914D02*
X181909524Y-50797676D01*
X181909524Y-50797676D02*
X182004762Y-50702438D01*
X182004762Y-50702438D02*
X182147619Y-50654819D01*
X182147619Y-50654819D02*
X182242857Y-50654819D01*
X182242857Y-50654819D02*
X182385714Y-50702438D01*
X182385714Y-50702438D02*
X182433333Y-50750057D01*
X183338095Y-50654819D02*
X182861905Y-50654819D01*
X182861905Y-50654819D02*
X182814286Y-51131009D01*
X182814286Y-51131009D02*
X182861905Y-51083390D01*
X182861905Y-51083390D02*
X182957143Y-51035771D01*
X182957143Y-51035771D02*
X183195238Y-51035771D01*
X183195238Y-51035771D02*
X183290476Y-51083390D01*
X183290476Y-51083390D02*
X183338095Y-51131009D01*
X183338095Y-51131009D02*
X183385714Y-51226247D01*
X183385714Y-51226247D02*
X183385714Y-51464342D01*
X183385714Y-51464342D02*
X183338095Y-51559580D01*
X183338095Y-51559580D02*
X183290476Y-51607200D01*
X183290476Y-51607200D02*
X183195238Y-51654819D01*
X183195238Y-51654819D02*
X182957143Y-51654819D01*
X182957143Y-51654819D02*
X182861905Y-51607200D01*
X182861905Y-51607200D02*
X182814286Y-51559580D01*
X189654819Y-52442857D02*
X189178628Y-52776190D01*
X189654819Y-53014285D02*
X188654819Y-53014285D01*
X188654819Y-53014285D02*
X188654819Y-52633333D01*
X188654819Y-52633333D02*
X188702438Y-52538095D01*
X188702438Y-52538095D02*
X188750057Y-52490476D01*
X188750057Y-52490476D02*
X188845295Y-52442857D01*
X188845295Y-52442857D02*
X188988152Y-52442857D01*
X188988152Y-52442857D02*
X189083390Y-52490476D01*
X189083390Y-52490476D02*
X189131009Y-52538095D01*
X189131009Y-52538095D02*
X189178628Y-52633333D01*
X189178628Y-52633333D02*
X189178628Y-53014285D01*
X189654819Y-51490476D02*
X189654819Y-52061904D01*
X189654819Y-51776190D02*
X188654819Y-51776190D01*
X188654819Y-51776190D02*
X188797676Y-51871428D01*
X188797676Y-51871428D02*
X188892914Y-51966666D01*
X188892914Y-51966666D02*
X188940533Y-52061904D01*
X189654819Y-50538095D02*
X189654819Y-51109523D01*
X189654819Y-50823809D02*
X188654819Y-50823809D01*
X188654819Y-50823809D02*
X188797676Y-50919047D01*
X188797676Y-50919047D02*
X188892914Y-51014285D01*
X188892914Y-51014285D02*
X188940533Y-51109523D01*
X177159580Y-51766666D02*
X177207200Y-51814285D01*
X177207200Y-51814285D02*
X177254819Y-51957142D01*
X177254819Y-51957142D02*
X177254819Y-52052380D01*
X177254819Y-52052380D02*
X177207200Y-52195237D01*
X177207200Y-52195237D02*
X177111961Y-52290475D01*
X177111961Y-52290475D02*
X177016723Y-52338094D01*
X177016723Y-52338094D02*
X176826247Y-52385713D01*
X176826247Y-52385713D02*
X176683390Y-52385713D01*
X176683390Y-52385713D02*
X176492914Y-52338094D01*
X176492914Y-52338094D02*
X176397676Y-52290475D01*
X176397676Y-52290475D02*
X176302438Y-52195237D01*
X176302438Y-52195237D02*
X176254819Y-52052380D01*
X176254819Y-52052380D02*
X176254819Y-51957142D01*
X176254819Y-51957142D02*
X176302438Y-51814285D01*
X176302438Y-51814285D02*
X176350057Y-51766666D01*
X176588152Y-50909523D02*
X177254819Y-50909523D01*
X176207200Y-51147618D02*
X176921485Y-51385713D01*
X176921485Y-51385713D02*
X176921485Y-50766666D01*
X95757142Y-61959580D02*
X95709523Y-62007200D01*
X95709523Y-62007200D02*
X95566666Y-62054819D01*
X95566666Y-62054819D02*
X95471428Y-62054819D01*
X95471428Y-62054819D02*
X95328571Y-62007200D01*
X95328571Y-62007200D02*
X95233333Y-61911961D01*
X95233333Y-61911961D02*
X95185714Y-61816723D01*
X95185714Y-61816723D02*
X95138095Y-61626247D01*
X95138095Y-61626247D02*
X95138095Y-61483390D01*
X95138095Y-61483390D02*
X95185714Y-61292914D01*
X95185714Y-61292914D02*
X95233333Y-61197676D01*
X95233333Y-61197676D02*
X95328571Y-61102438D01*
X95328571Y-61102438D02*
X95471428Y-61054819D01*
X95471428Y-61054819D02*
X95566666Y-61054819D01*
X95566666Y-61054819D02*
X95709523Y-61102438D01*
X95709523Y-61102438D02*
X95757142Y-61150057D01*
X96138095Y-61150057D02*
X96185714Y-61102438D01*
X96185714Y-61102438D02*
X96280952Y-61054819D01*
X96280952Y-61054819D02*
X96519047Y-61054819D01*
X96519047Y-61054819D02*
X96614285Y-61102438D01*
X96614285Y-61102438D02*
X96661904Y-61150057D01*
X96661904Y-61150057D02*
X96709523Y-61245295D01*
X96709523Y-61245295D02*
X96709523Y-61340533D01*
X96709523Y-61340533D02*
X96661904Y-61483390D01*
X96661904Y-61483390D02*
X96090476Y-62054819D01*
X96090476Y-62054819D02*
X96709523Y-62054819D01*
X97566666Y-61054819D02*
X97376190Y-61054819D01*
X97376190Y-61054819D02*
X97280952Y-61102438D01*
X97280952Y-61102438D02*
X97233333Y-61150057D01*
X97233333Y-61150057D02*
X97138095Y-61292914D01*
X97138095Y-61292914D02*
X97090476Y-61483390D01*
X97090476Y-61483390D02*
X97090476Y-61864342D01*
X97090476Y-61864342D02*
X97138095Y-61959580D01*
X97138095Y-61959580D02*
X97185714Y-62007200D01*
X97185714Y-62007200D02*
X97280952Y-62054819D01*
X97280952Y-62054819D02*
X97471428Y-62054819D01*
X97471428Y-62054819D02*
X97566666Y-62007200D01*
X97566666Y-62007200D02*
X97614285Y-61959580D01*
X97614285Y-61959580D02*
X97661904Y-61864342D01*
X97661904Y-61864342D02*
X97661904Y-61626247D01*
X97661904Y-61626247D02*
X97614285Y-61531009D01*
X97614285Y-61531009D02*
X97566666Y-61483390D01*
X97566666Y-61483390D02*
X97471428Y-61435771D01*
X97471428Y-61435771D02*
X97280952Y-61435771D01*
X97280952Y-61435771D02*
X97185714Y-61483390D01*
X97185714Y-61483390D02*
X97138095Y-61531009D01*
X97138095Y-61531009D02*
X97090476Y-61626247D01*
X77033333Y-57854819D02*
X76700000Y-57378628D01*
X76461905Y-57854819D02*
X76461905Y-56854819D01*
X76461905Y-56854819D02*
X76842857Y-56854819D01*
X76842857Y-56854819D02*
X76938095Y-56902438D01*
X76938095Y-56902438D02*
X76985714Y-56950057D01*
X76985714Y-56950057D02*
X77033333Y-57045295D01*
X77033333Y-57045295D02*
X77033333Y-57188152D01*
X77033333Y-57188152D02*
X76985714Y-57283390D01*
X76985714Y-57283390D02*
X76938095Y-57331009D01*
X76938095Y-57331009D02*
X76842857Y-57378628D01*
X76842857Y-57378628D02*
X76461905Y-57378628D01*
X77509524Y-57854819D02*
X77700000Y-57854819D01*
X77700000Y-57854819D02*
X77795238Y-57807200D01*
X77795238Y-57807200D02*
X77842857Y-57759580D01*
X77842857Y-57759580D02*
X77938095Y-57616723D01*
X77938095Y-57616723D02*
X77985714Y-57426247D01*
X77985714Y-57426247D02*
X77985714Y-57045295D01*
X77985714Y-57045295D02*
X77938095Y-56950057D01*
X77938095Y-56950057D02*
X77890476Y-56902438D01*
X77890476Y-56902438D02*
X77795238Y-56854819D01*
X77795238Y-56854819D02*
X77604762Y-56854819D01*
X77604762Y-56854819D02*
X77509524Y-56902438D01*
X77509524Y-56902438D02*
X77461905Y-56950057D01*
X77461905Y-56950057D02*
X77414286Y-57045295D01*
X77414286Y-57045295D02*
X77414286Y-57283390D01*
X77414286Y-57283390D02*
X77461905Y-57378628D01*
X77461905Y-57378628D02*
X77509524Y-57426247D01*
X77509524Y-57426247D02*
X77604762Y-57473866D01*
X77604762Y-57473866D02*
X77795238Y-57473866D01*
X77795238Y-57473866D02*
X77890476Y-57426247D01*
X77890476Y-57426247D02*
X77938095Y-57378628D01*
X77938095Y-57378628D02*
X77985714Y-57283390D01*
X74654819Y-60566666D02*
X74178628Y-60899999D01*
X74654819Y-61138094D02*
X73654819Y-61138094D01*
X73654819Y-61138094D02*
X73654819Y-60757142D01*
X73654819Y-60757142D02*
X73702438Y-60661904D01*
X73702438Y-60661904D02*
X73750057Y-60614285D01*
X73750057Y-60614285D02*
X73845295Y-60566666D01*
X73845295Y-60566666D02*
X73988152Y-60566666D01*
X73988152Y-60566666D02*
X74083390Y-60614285D01*
X74083390Y-60614285D02*
X74131009Y-60661904D01*
X74131009Y-60661904D02*
X74178628Y-60757142D01*
X74178628Y-60757142D02*
X74178628Y-61138094D01*
X74083390Y-59995237D02*
X74035771Y-60090475D01*
X74035771Y-60090475D02*
X73988152Y-60138094D01*
X73988152Y-60138094D02*
X73892914Y-60185713D01*
X73892914Y-60185713D02*
X73845295Y-60185713D01*
X73845295Y-60185713D02*
X73750057Y-60138094D01*
X73750057Y-60138094D02*
X73702438Y-60090475D01*
X73702438Y-60090475D02*
X73654819Y-59995237D01*
X73654819Y-59995237D02*
X73654819Y-59804761D01*
X73654819Y-59804761D02*
X73702438Y-59709523D01*
X73702438Y-59709523D02*
X73750057Y-59661904D01*
X73750057Y-59661904D02*
X73845295Y-59614285D01*
X73845295Y-59614285D02*
X73892914Y-59614285D01*
X73892914Y-59614285D02*
X73988152Y-59661904D01*
X73988152Y-59661904D02*
X74035771Y-59709523D01*
X74035771Y-59709523D02*
X74083390Y-59804761D01*
X74083390Y-59804761D02*
X74083390Y-59995237D01*
X74083390Y-59995237D02*
X74131009Y-60090475D01*
X74131009Y-60090475D02*
X74178628Y-60138094D01*
X74178628Y-60138094D02*
X74273866Y-60185713D01*
X74273866Y-60185713D02*
X74464342Y-60185713D01*
X74464342Y-60185713D02*
X74559580Y-60138094D01*
X74559580Y-60138094D02*
X74607200Y-60090475D01*
X74607200Y-60090475D02*
X74654819Y-59995237D01*
X74654819Y-59995237D02*
X74654819Y-59804761D01*
X74654819Y-59804761D02*
X74607200Y-59709523D01*
X74607200Y-59709523D02*
X74559580Y-59661904D01*
X74559580Y-59661904D02*
X74464342Y-59614285D01*
X74464342Y-59614285D02*
X74273866Y-59614285D01*
X74273866Y-59614285D02*
X74178628Y-59661904D01*
X74178628Y-59661904D02*
X74131009Y-59709523D01*
X74131009Y-59709523D02*
X74083390Y-59804761D01*
X144454819Y-55242857D02*
X143978628Y-55576190D01*
X144454819Y-55814285D02*
X143454819Y-55814285D01*
X143454819Y-55814285D02*
X143454819Y-55433333D01*
X143454819Y-55433333D02*
X143502438Y-55338095D01*
X143502438Y-55338095D02*
X143550057Y-55290476D01*
X143550057Y-55290476D02*
X143645295Y-55242857D01*
X143645295Y-55242857D02*
X143788152Y-55242857D01*
X143788152Y-55242857D02*
X143883390Y-55290476D01*
X143883390Y-55290476D02*
X143931009Y-55338095D01*
X143931009Y-55338095D02*
X143978628Y-55433333D01*
X143978628Y-55433333D02*
X143978628Y-55814285D01*
X143454819Y-54909523D02*
X143454819Y-54290476D01*
X143454819Y-54290476D02*
X143835771Y-54623809D01*
X143835771Y-54623809D02*
X143835771Y-54480952D01*
X143835771Y-54480952D02*
X143883390Y-54385714D01*
X143883390Y-54385714D02*
X143931009Y-54338095D01*
X143931009Y-54338095D02*
X144026247Y-54290476D01*
X144026247Y-54290476D02*
X144264342Y-54290476D01*
X144264342Y-54290476D02*
X144359580Y-54338095D01*
X144359580Y-54338095D02*
X144407200Y-54385714D01*
X144407200Y-54385714D02*
X144454819Y-54480952D01*
X144454819Y-54480952D02*
X144454819Y-54766666D01*
X144454819Y-54766666D02*
X144407200Y-54861904D01*
X144407200Y-54861904D02*
X144359580Y-54909523D01*
X143454819Y-53385714D02*
X143454819Y-53861904D01*
X143454819Y-53861904D02*
X143931009Y-53909523D01*
X143931009Y-53909523D02*
X143883390Y-53861904D01*
X143883390Y-53861904D02*
X143835771Y-53766666D01*
X143835771Y-53766666D02*
X143835771Y-53528571D01*
X143835771Y-53528571D02*
X143883390Y-53433333D01*
X143883390Y-53433333D02*
X143931009Y-53385714D01*
X143931009Y-53385714D02*
X144026247Y-53338095D01*
X144026247Y-53338095D02*
X144264342Y-53338095D01*
X144264342Y-53338095D02*
X144359580Y-53385714D01*
X144359580Y-53385714D02*
X144407200Y-53433333D01*
X144407200Y-53433333D02*
X144454819Y-53528571D01*
X144454819Y-53528571D02*
X144454819Y-53766666D01*
X144454819Y-53766666D02*
X144407200Y-53861904D01*
X144407200Y-53861904D02*
X144359580Y-53909523D01*
X70557142Y-52359580D02*
X70509523Y-52407200D01*
X70509523Y-52407200D02*
X70366666Y-52454819D01*
X70366666Y-52454819D02*
X70271428Y-52454819D01*
X70271428Y-52454819D02*
X70128571Y-52407200D01*
X70128571Y-52407200D02*
X70033333Y-52311961D01*
X70033333Y-52311961D02*
X69985714Y-52216723D01*
X69985714Y-52216723D02*
X69938095Y-52026247D01*
X69938095Y-52026247D02*
X69938095Y-51883390D01*
X69938095Y-51883390D02*
X69985714Y-51692914D01*
X69985714Y-51692914D02*
X70033333Y-51597676D01*
X70033333Y-51597676D02*
X70128571Y-51502438D01*
X70128571Y-51502438D02*
X70271428Y-51454819D01*
X70271428Y-51454819D02*
X70366666Y-51454819D01*
X70366666Y-51454819D02*
X70509523Y-51502438D01*
X70509523Y-51502438D02*
X70557142Y-51550057D01*
X71509523Y-52454819D02*
X70938095Y-52454819D01*
X71223809Y-52454819D02*
X71223809Y-51454819D01*
X71223809Y-51454819D02*
X71128571Y-51597676D01*
X71128571Y-51597676D02*
X71033333Y-51692914D01*
X71033333Y-51692914D02*
X70938095Y-51740533D01*
X72461904Y-52454819D02*
X71890476Y-52454819D01*
X72176190Y-52454819D02*
X72176190Y-51454819D01*
X72176190Y-51454819D02*
X72080952Y-51597676D01*
X72080952Y-51597676D02*
X71985714Y-51692914D01*
X71985714Y-51692914D02*
X71890476Y-51740533D01*
X133054819Y-61242857D02*
X132578628Y-61576190D01*
X133054819Y-61814285D02*
X132054819Y-61814285D01*
X132054819Y-61814285D02*
X132054819Y-61433333D01*
X132054819Y-61433333D02*
X132102438Y-61338095D01*
X132102438Y-61338095D02*
X132150057Y-61290476D01*
X132150057Y-61290476D02*
X132245295Y-61242857D01*
X132245295Y-61242857D02*
X132388152Y-61242857D01*
X132388152Y-61242857D02*
X132483390Y-61290476D01*
X132483390Y-61290476D02*
X132531009Y-61338095D01*
X132531009Y-61338095D02*
X132578628Y-61433333D01*
X132578628Y-61433333D02*
X132578628Y-61814285D01*
X132150057Y-60861904D02*
X132102438Y-60814285D01*
X132102438Y-60814285D02*
X132054819Y-60719047D01*
X132054819Y-60719047D02*
X132054819Y-60480952D01*
X132054819Y-60480952D02*
X132102438Y-60385714D01*
X132102438Y-60385714D02*
X132150057Y-60338095D01*
X132150057Y-60338095D02*
X132245295Y-60290476D01*
X132245295Y-60290476D02*
X132340533Y-60290476D01*
X132340533Y-60290476D02*
X132483390Y-60338095D01*
X132483390Y-60338095D02*
X133054819Y-60909523D01*
X133054819Y-60909523D02*
X133054819Y-60290476D01*
X133054819Y-59814285D02*
X133054819Y-59623809D01*
X133054819Y-59623809D02*
X133007200Y-59528571D01*
X133007200Y-59528571D02*
X132959580Y-59480952D01*
X132959580Y-59480952D02*
X132816723Y-59385714D01*
X132816723Y-59385714D02*
X132626247Y-59338095D01*
X132626247Y-59338095D02*
X132245295Y-59338095D01*
X132245295Y-59338095D02*
X132150057Y-59385714D01*
X132150057Y-59385714D02*
X132102438Y-59433333D01*
X132102438Y-59433333D02*
X132054819Y-59528571D01*
X132054819Y-59528571D02*
X132054819Y-59719047D01*
X132054819Y-59719047D02*
X132102438Y-59814285D01*
X132102438Y-59814285D02*
X132150057Y-59861904D01*
X132150057Y-59861904D02*
X132245295Y-59909523D01*
X132245295Y-59909523D02*
X132483390Y-59909523D01*
X132483390Y-59909523D02*
X132578628Y-59861904D01*
X132578628Y-59861904D02*
X132626247Y-59814285D01*
X132626247Y-59814285D02*
X132673866Y-59719047D01*
X132673866Y-59719047D02*
X132673866Y-59528571D01*
X132673866Y-59528571D02*
X132626247Y-59433333D01*
X132626247Y-59433333D02*
X132578628Y-59385714D01*
X132578628Y-59385714D02*
X132483390Y-59338095D01*
X101390476Y-106654819D02*
X101390476Y-107369104D01*
X101390476Y-107369104D02*
X101342857Y-107511961D01*
X101342857Y-107511961D02*
X101247619Y-107607200D01*
X101247619Y-107607200D02*
X101104762Y-107654819D01*
X101104762Y-107654819D02*
X101009524Y-107654819D01*
X101819048Y-106750057D02*
X101866667Y-106702438D01*
X101866667Y-106702438D02*
X101961905Y-106654819D01*
X101961905Y-106654819D02*
X102200000Y-106654819D01*
X102200000Y-106654819D02*
X102295238Y-106702438D01*
X102295238Y-106702438D02*
X102342857Y-106750057D01*
X102342857Y-106750057D02*
X102390476Y-106845295D01*
X102390476Y-106845295D02*
X102390476Y-106940533D01*
X102390476Y-106940533D02*
X102342857Y-107083390D01*
X102342857Y-107083390D02*
X101771429Y-107654819D01*
X101771429Y-107654819D02*
X102390476Y-107654819D01*
X103342857Y-107654819D02*
X102771429Y-107654819D01*
X103057143Y-107654819D02*
X103057143Y-106654819D01*
X103057143Y-106654819D02*
X102961905Y-106797676D01*
X102961905Y-106797676D02*
X102866667Y-106892914D01*
X102866667Y-106892914D02*
X102771429Y-106940533D01*
X108228571Y-108514700D02*
X109371429Y-108514700D01*
X96028571Y-108514700D02*
X97171429Y-108514700D01*
X96600000Y-109086128D02*
X96600000Y-107943271D01*
X142359580Y-67042857D02*
X142407200Y-67090476D01*
X142407200Y-67090476D02*
X142454819Y-67233333D01*
X142454819Y-67233333D02*
X142454819Y-67328571D01*
X142454819Y-67328571D02*
X142407200Y-67471428D01*
X142407200Y-67471428D02*
X142311961Y-67566666D01*
X142311961Y-67566666D02*
X142216723Y-67614285D01*
X142216723Y-67614285D02*
X142026247Y-67661904D01*
X142026247Y-67661904D02*
X141883390Y-67661904D01*
X141883390Y-67661904D02*
X141692914Y-67614285D01*
X141692914Y-67614285D02*
X141597676Y-67566666D01*
X141597676Y-67566666D02*
X141502438Y-67471428D01*
X141502438Y-67471428D02*
X141454819Y-67328571D01*
X141454819Y-67328571D02*
X141454819Y-67233333D01*
X141454819Y-67233333D02*
X141502438Y-67090476D01*
X141502438Y-67090476D02*
X141550057Y-67042857D01*
X141454819Y-66709523D02*
X141454819Y-66090476D01*
X141454819Y-66090476D02*
X141835771Y-66423809D01*
X141835771Y-66423809D02*
X141835771Y-66280952D01*
X141835771Y-66280952D02*
X141883390Y-66185714D01*
X141883390Y-66185714D02*
X141931009Y-66138095D01*
X141931009Y-66138095D02*
X142026247Y-66090476D01*
X142026247Y-66090476D02*
X142264342Y-66090476D01*
X142264342Y-66090476D02*
X142359580Y-66138095D01*
X142359580Y-66138095D02*
X142407200Y-66185714D01*
X142407200Y-66185714D02*
X142454819Y-66280952D01*
X142454819Y-66280952D02*
X142454819Y-66566666D01*
X142454819Y-66566666D02*
X142407200Y-66661904D01*
X142407200Y-66661904D02*
X142359580Y-66709523D01*
X141550057Y-65709523D02*
X141502438Y-65661904D01*
X141502438Y-65661904D02*
X141454819Y-65566666D01*
X141454819Y-65566666D02*
X141454819Y-65328571D01*
X141454819Y-65328571D02*
X141502438Y-65233333D01*
X141502438Y-65233333D02*
X141550057Y-65185714D01*
X141550057Y-65185714D02*
X141645295Y-65138095D01*
X141645295Y-65138095D02*
X141740533Y-65138095D01*
X141740533Y-65138095D02*
X141883390Y-65185714D01*
X141883390Y-65185714D02*
X142454819Y-65757142D01*
X142454819Y-65757142D02*
X142454819Y-65138095D01*
X99838095Y-56254819D02*
X99838095Y-57064342D01*
X99838095Y-57064342D02*
X99885714Y-57159580D01*
X99885714Y-57159580D02*
X99933333Y-57207200D01*
X99933333Y-57207200D02*
X100028571Y-57254819D01*
X100028571Y-57254819D02*
X100219047Y-57254819D01*
X100219047Y-57254819D02*
X100314285Y-57207200D01*
X100314285Y-57207200D02*
X100361904Y-57159580D01*
X100361904Y-57159580D02*
X100409523Y-57064342D01*
X100409523Y-57064342D02*
X100409523Y-56254819D01*
X100933333Y-57254819D02*
X101123809Y-57254819D01*
X101123809Y-57254819D02*
X101219047Y-57207200D01*
X101219047Y-57207200D02*
X101266666Y-57159580D01*
X101266666Y-57159580D02*
X101361904Y-57016723D01*
X101361904Y-57016723D02*
X101409523Y-56826247D01*
X101409523Y-56826247D02*
X101409523Y-56445295D01*
X101409523Y-56445295D02*
X101361904Y-56350057D01*
X101361904Y-56350057D02*
X101314285Y-56302438D01*
X101314285Y-56302438D02*
X101219047Y-56254819D01*
X101219047Y-56254819D02*
X101028571Y-56254819D01*
X101028571Y-56254819D02*
X100933333Y-56302438D01*
X100933333Y-56302438D02*
X100885714Y-56350057D01*
X100885714Y-56350057D02*
X100838095Y-56445295D01*
X100838095Y-56445295D02*
X100838095Y-56683390D01*
X100838095Y-56683390D02*
X100885714Y-56778628D01*
X100885714Y-56778628D02*
X100933333Y-56826247D01*
X100933333Y-56826247D02*
X101028571Y-56873866D01*
X101028571Y-56873866D02*
X101219047Y-56873866D01*
X101219047Y-56873866D02*
X101314285Y-56826247D01*
X101314285Y-56826247D02*
X101361904Y-56778628D01*
X101361904Y-56778628D02*
X101409523Y-56683390D01*
X66033333Y-52959580D02*
X65985714Y-53007200D01*
X65985714Y-53007200D02*
X65842857Y-53054819D01*
X65842857Y-53054819D02*
X65747619Y-53054819D01*
X65747619Y-53054819D02*
X65604762Y-53007200D01*
X65604762Y-53007200D02*
X65509524Y-52911961D01*
X65509524Y-52911961D02*
X65461905Y-52816723D01*
X65461905Y-52816723D02*
X65414286Y-52626247D01*
X65414286Y-52626247D02*
X65414286Y-52483390D01*
X65414286Y-52483390D02*
X65461905Y-52292914D01*
X65461905Y-52292914D02*
X65509524Y-52197676D01*
X65509524Y-52197676D02*
X65604762Y-52102438D01*
X65604762Y-52102438D02*
X65747619Y-52054819D01*
X65747619Y-52054819D02*
X65842857Y-52054819D01*
X65842857Y-52054819D02*
X65985714Y-52102438D01*
X65985714Y-52102438D02*
X66033333Y-52150057D01*
X66604762Y-52483390D02*
X66509524Y-52435771D01*
X66509524Y-52435771D02*
X66461905Y-52388152D01*
X66461905Y-52388152D02*
X66414286Y-52292914D01*
X66414286Y-52292914D02*
X66414286Y-52245295D01*
X66414286Y-52245295D02*
X66461905Y-52150057D01*
X66461905Y-52150057D02*
X66509524Y-52102438D01*
X66509524Y-52102438D02*
X66604762Y-52054819D01*
X66604762Y-52054819D02*
X66795238Y-52054819D01*
X66795238Y-52054819D02*
X66890476Y-52102438D01*
X66890476Y-52102438D02*
X66938095Y-52150057D01*
X66938095Y-52150057D02*
X66985714Y-52245295D01*
X66985714Y-52245295D02*
X66985714Y-52292914D01*
X66985714Y-52292914D02*
X66938095Y-52388152D01*
X66938095Y-52388152D02*
X66890476Y-52435771D01*
X66890476Y-52435771D02*
X66795238Y-52483390D01*
X66795238Y-52483390D02*
X66604762Y-52483390D01*
X66604762Y-52483390D02*
X66509524Y-52531009D01*
X66509524Y-52531009D02*
X66461905Y-52578628D01*
X66461905Y-52578628D02*
X66414286Y-52673866D01*
X66414286Y-52673866D02*
X66414286Y-52864342D01*
X66414286Y-52864342D02*
X66461905Y-52959580D01*
X66461905Y-52959580D02*
X66509524Y-53007200D01*
X66509524Y-53007200D02*
X66604762Y-53054819D01*
X66604762Y-53054819D02*
X66795238Y-53054819D01*
X66795238Y-53054819D02*
X66890476Y-53007200D01*
X66890476Y-53007200D02*
X66938095Y-52959580D01*
X66938095Y-52959580D02*
X66985714Y-52864342D01*
X66985714Y-52864342D02*
X66985714Y-52673866D01*
X66985714Y-52673866D02*
X66938095Y-52578628D01*
X66938095Y-52578628D02*
X66890476Y-52531009D01*
X66890476Y-52531009D02*
X66795238Y-52483390D01*
X48754819Y-65333333D02*
X49469104Y-65333333D01*
X49469104Y-65333333D02*
X49611961Y-65380952D01*
X49611961Y-65380952D02*
X49707200Y-65476190D01*
X49707200Y-65476190D02*
X49754819Y-65619047D01*
X49754819Y-65619047D02*
X49754819Y-65714285D01*
X49088152Y-64428571D02*
X49754819Y-64428571D01*
X48707200Y-64666666D02*
X49421485Y-64904761D01*
X49421485Y-64904761D02*
X49421485Y-64285714D01*
X91390476Y-54254819D02*
X91390476Y-54969104D01*
X91390476Y-54969104D02*
X91342857Y-55111961D01*
X91342857Y-55111961D02*
X91247619Y-55207200D01*
X91247619Y-55207200D02*
X91104762Y-55254819D01*
X91104762Y-55254819D02*
X91009524Y-55254819D01*
X92390476Y-55254819D02*
X91819048Y-55254819D01*
X92104762Y-55254819D02*
X92104762Y-54254819D01*
X92104762Y-54254819D02*
X92009524Y-54397676D01*
X92009524Y-54397676D02*
X91914286Y-54492914D01*
X91914286Y-54492914D02*
X91819048Y-54540533D01*
X93295238Y-54254819D02*
X92819048Y-54254819D01*
X92819048Y-54254819D02*
X92771429Y-54731009D01*
X92771429Y-54731009D02*
X92819048Y-54683390D01*
X92819048Y-54683390D02*
X92914286Y-54635771D01*
X92914286Y-54635771D02*
X93152381Y-54635771D01*
X93152381Y-54635771D02*
X93247619Y-54683390D01*
X93247619Y-54683390D02*
X93295238Y-54731009D01*
X93295238Y-54731009D02*
X93342857Y-54826247D01*
X93342857Y-54826247D02*
X93342857Y-55064342D01*
X93342857Y-55064342D02*
X93295238Y-55159580D01*
X93295238Y-55159580D02*
X93247619Y-55207200D01*
X93247619Y-55207200D02*
X93152381Y-55254819D01*
X93152381Y-55254819D02*
X92914286Y-55254819D01*
X92914286Y-55254819D02*
X92819048Y-55207200D01*
X92819048Y-55207200D02*
X92771429Y-55159580D01*
X141861905Y-58129819D02*
X141861905Y-58939342D01*
X141861905Y-58939342D02*
X141909524Y-59034580D01*
X141909524Y-59034580D02*
X141957143Y-59082200D01*
X141957143Y-59082200D02*
X142052381Y-59129819D01*
X142052381Y-59129819D02*
X142242857Y-59129819D01*
X142242857Y-59129819D02*
X142338095Y-59082200D01*
X142338095Y-59082200D02*
X142385714Y-59034580D01*
X142385714Y-59034580D02*
X142433333Y-58939342D01*
X142433333Y-58939342D02*
X142433333Y-58129819D01*
X143433333Y-59129819D02*
X142861905Y-59129819D01*
X143147619Y-59129819D02*
X143147619Y-58129819D01*
X143147619Y-58129819D02*
X143052381Y-58272676D01*
X143052381Y-58272676D02*
X142957143Y-58367914D01*
X142957143Y-58367914D02*
X142861905Y-58415533D01*
X144385714Y-59129819D02*
X143814286Y-59129819D01*
X144100000Y-59129819D02*
X144100000Y-58129819D01*
X144100000Y-58129819D02*
X144004762Y-58272676D01*
X144004762Y-58272676D02*
X143909524Y-58367914D01*
X143909524Y-58367914D02*
X143814286Y-58415533D01*
D12*
X120530080Y-81840476D02*
X119815795Y-81840476D01*
X119815795Y-81840476D02*
X119672938Y-81792857D01*
X119672938Y-81792857D02*
X119577700Y-81697619D01*
X119577700Y-81697619D02*
X119530080Y-81554762D01*
X119530080Y-81554762D02*
X119530080Y-81459524D01*
X120434842Y-82269048D02*
X120482461Y-82316667D01*
X120482461Y-82316667D02*
X120530080Y-82411905D01*
X120530080Y-82411905D02*
X120530080Y-82650000D01*
X120530080Y-82650000D02*
X120482461Y-82745238D01*
X120482461Y-82745238D02*
X120434842Y-82792857D01*
X120434842Y-82792857D02*
X120339604Y-82840476D01*
X120339604Y-82840476D02*
X120244366Y-82840476D01*
X120244366Y-82840476D02*
X120101509Y-82792857D01*
X120101509Y-82792857D02*
X119530080Y-82221429D01*
X119530080Y-82221429D02*
X119530080Y-82840476D01*
X120530080Y-83459524D02*
X120530080Y-83554762D01*
X120530080Y-83554762D02*
X120482461Y-83650000D01*
X120482461Y-83650000D02*
X120434842Y-83697619D01*
X120434842Y-83697619D02*
X120339604Y-83745238D01*
X120339604Y-83745238D02*
X120149128Y-83792857D01*
X120149128Y-83792857D02*
X119911033Y-83792857D01*
X119911033Y-83792857D02*
X119720557Y-83745238D01*
X119720557Y-83745238D02*
X119625319Y-83697619D01*
X119625319Y-83697619D02*
X119577700Y-83650000D01*
X119577700Y-83650000D02*
X119530080Y-83554762D01*
X119530080Y-83554762D02*
X119530080Y-83459524D01*
X119530080Y-83459524D02*
X119577700Y-83364286D01*
X119577700Y-83364286D02*
X119625319Y-83316667D01*
X119625319Y-83316667D02*
X119720557Y-83269048D01*
X119720557Y-83269048D02*
X119911033Y-83221429D01*
X119911033Y-83221429D02*
X120149128Y-83221429D01*
X120149128Y-83221429D02*
X120339604Y-83269048D01*
X120339604Y-83269048D02*
X120434842Y-83316667D01*
X120434842Y-83316667D02*
X120482461Y-83364286D01*
X120482461Y-83364286D02*
X120530080Y-83459524D01*
D11*
X82210714Y-105454819D02*
X82210714Y-104454819D01*
X82210714Y-104454819D02*
X82448809Y-104454819D01*
X82448809Y-104454819D02*
X82591666Y-104502438D01*
X82591666Y-104502438D02*
X82686904Y-104597676D01*
X82686904Y-104597676D02*
X82734523Y-104692914D01*
X82734523Y-104692914D02*
X82782142Y-104883390D01*
X82782142Y-104883390D02*
X82782142Y-105026247D01*
X82782142Y-105026247D02*
X82734523Y-105216723D01*
X82734523Y-105216723D02*
X82686904Y-105311961D01*
X82686904Y-105311961D02*
X82591666Y-105407200D01*
X82591666Y-105407200D02*
X82448809Y-105454819D01*
X82448809Y-105454819D02*
X82210714Y-105454819D01*
X83734523Y-105454819D02*
X83163095Y-105454819D01*
X83448809Y-105454819D02*
X83448809Y-104454819D01*
X83448809Y-104454819D02*
X83353571Y-104597676D01*
X83353571Y-104597676D02*
X83258333Y-104692914D01*
X83258333Y-104692914D02*
X83163095Y-104740533D01*
X84353571Y-104454819D02*
X84448809Y-104454819D01*
X84448809Y-104454819D02*
X84544047Y-104502438D01*
X84544047Y-104502438D02*
X84591666Y-104550057D01*
X84591666Y-104550057D02*
X84639285Y-104645295D01*
X84639285Y-104645295D02*
X84686904Y-104835771D01*
X84686904Y-104835771D02*
X84686904Y-105073866D01*
X84686904Y-105073866D02*
X84639285Y-105264342D01*
X84639285Y-105264342D02*
X84591666Y-105359580D01*
X84591666Y-105359580D02*
X84544047Y-105407200D01*
X84544047Y-105407200D02*
X84448809Y-105454819D01*
X84448809Y-105454819D02*
X84353571Y-105454819D01*
X84353571Y-105454819D02*
X84258333Y-105407200D01*
X84258333Y-105407200D02*
X84210714Y-105359580D01*
X84210714Y-105359580D02*
X84163095Y-105264342D01*
X84163095Y-105264342D02*
X84115476Y-105073866D01*
X84115476Y-105073866D02*
X84115476Y-104835771D01*
X84115476Y-104835771D02*
X84163095Y-104645295D01*
X84163095Y-104645295D02*
X84210714Y-104550057D01*
X84210714Y-104550057D02*
X84258333Y-104502438D01*
X84258333Y-104502438D02*
X84353571Y-104454819D01*
X79679819Y-110338094D02*
X78679819Y-110338094D01*
X78679819Y-110338094D02*
X78679819Y-110099999D01*
X78679819Y-110099999D02*
X78727438Y-109957142D01*
X78727438Y-109957142D02*
X78822676Y-109861904D01*
X78822676Y-109861904D02*
X78917914Y-109814285D01*
X78917914Y-109814285D02*
X79108390Y-109766666D01*
X79108390Y-109766666D02*
X79251247Y-109766666D01*
X79251247Y-109766666D02*
X79441723Y-109814285D01*
X79441723Y-109814285D02*
X79536961Y-109861904D01*
X79536961Y-109861904D02*
X79632200Y-109957142D01*
X79632200Y-109957142D02*
X79679819Y-110099999D01*
X79679819Y-110099999D02*
X79679819Y-110338094D01*
X79679819Y-109290475D02*
X79679819Y-109099999D01*
X79679819Y-109099999D02*
X79632200Y-109004761D01*
X79632200Y-109004761D02*
X79584580Y-108957142D01*
X79584580Y-108957142D02*
X79441723Y-108861904D01*
X79441723Y-108861904D02*
X79251247Y-108814285D01*
X79251247Y-108814285D02*
X78870295Y-108814285D01*
X78870295Y-108814285D02*
X78775057Y-108861904D01*
X78775057Y-108861904D02*
X78727438Y-108909523D01*
X78727438Y-108909523D02*
X78679819Y-109004761D01*
X78679819Y-109004761D02*
X78679819Y-109195237D01*
X78679819Y-109195237D02*
X78727438Y-109290475D01*
X78727438Y-109290475D02*
X78775057Y-109338094D01*
X78775057Y-109338094D02*
X78870295Y-109385713D01*
X78870295Y-109385713D02*
X79108390Y-109385713D01*
X79108390Y-109385713D02*
X79203628Y-109338094D01*
X79203628Y-109338094D02*
X79251247Y-109290475D01*
X79251247Y-109290475D02*
X79298866Y-109195237D01*
X79298866Y-109195237D02*
X79298866Y-109004761D01*
X79298866Y-109004761D02*
X79251247Y-108909523D01*
X79251247Y-108909523D02*
X79203628Y-108861904D01*
X79203628Y-108861904D02*
X79108390Y-108814285D01*
X78079819Y-104642857D02*
X77603628Y-104976190D01*
X78079819Y-105214285D02*
X77079819Y-105214285D01*
X77079819Y-105214285D02*
X77079819Y-104833333D01*
X77079819Y-104833333D02*
X77127438Y-104738095D01*
X77127438Y-104738095D02*
X77175057Y-104690476D01*
X77175057Y-104690476D02*
X77270295Y-104642857D01*
X77270295Y-104642857D02*
X77413152Y-104642857D01*
X77413152Y-104642857D02*
X77508390Y-104690476D01*
X77508390Y-104690476D02*
X77556009Y-104738095D01*
X77556009Y-104738095D02*
X77603628Y-104833333D01*
X77603628Y-104833333D02*
X77603628Y-105214285D01*
X77175057Y-104261904D02*
X77127438Y-104214285D01*
X77127438Y-104214285D02*
X77079819Y-104119047D01*
X77079819Y-104119047D02*
X77079819Y-103880952D01*
X77079819Y-103880952D02*
X77127438Y-103785714D01*
X77127438Y-103785714D02*
X77175057Y-103738095D01*
X77175057Y-103738095D02*
X77270295Y-103690476D01*
X77270295Y-103690476D02*
X77365533Y-103690476D01*
X77365533Y-103690476D02*
X77508390Y-103738095D01*
X77508390Y-103738095D02*
X78079819Y-104309523D01*
X78079819Y-104309523D02*
X78079819Y-103690476D01*
X77508390Y-103119047D02*
X77460771Y-103214285D01*
X77460771Y-103214285D02*
X77413152Y-103261904D01*
X77413152Y-103261904D02*
X77317914Y-103309523D01*
X77317914Y-103309523D02*
X77270295Y-103309523D01*
X77270295Y-103309523D02*
X77175057Y-103261904D01*
X77175057Y-103261904D02*
X77127438Y-103214285D01*
X77127438Y-103214285D02*
X77079819Y-103119047D01*
X77079819Y-103119047D02*
X77079819Y-102928571D01*
X77079819Y-102928571D02*
X77127438Y-102833333D01*
X77127438Y-102833333D02*
X77175057Y-102785714D01*
X77175057Y-102785714D02*
X77270295Y-102738095D01*
X77270295Y-102738095D02*
X77317914Y-102738095D01*
X77317914Y-102738095D02*
X77413152Y-102785714D01*
X77413152Y-102785714D02*
X77460771Y-102833333D01*
X77460771Y-102833333D02*
X77508390Y-102928571D01*
X77508390Y-102928571D02*
X77508390Y-103119047D01*
X77508390Y-103119047D02*
X77556009Y-103214285D01*
X77556009Y-103214285D02*
X77603628Y-103261904D01*
X77603628Y-103261904D02*
X77698866Y-103309523D01*
X77698866Y-103309523D02*
X77889342Y-103309523D01*
X77889342Y-103309523D02*
X77984580Y-103261904D01*
X77984580Y-103261904D02*
X78032200Y-103214285D01*
X78032200Y-103214285D02*
X78079819Y-103119047D01*
X78079819Y-103119047D02*
X78079819Y-102928571D01*
X78079819Y-102928571D02*
X78032200Y-102833333D01*
X78032200Y-102833333D02*
X77984580Y-102785714D01*
X77984580Y-102785714D02*
X77889342Y-102738095D01*
X77889342Y-102738095D02*
X77698866Y-102738095D01*
X77698866Y-102738095D02*
X77603628Y-102785714D01*
X77603628Y-102785714D02*
X77556009Y-102833333D01*
X77556009Y-102833333D02*
X77508390Y-102928571D01*
X195654819Y-55333333D02*
X196369104Y-55333333D01*
X196369104Y-55333333D02*
X196511961Y-55380952D01*
X196511961Y-55380952D02*
X196607200Y-55476190D01*
X196607200Y-55476190D02*
X196654819Y-55619047D01*
X196654819Y-55619047D02*
X196654819Y-55714285D01*
X195654819Y-54428571D02*
X195654819Y-54619047D01*
X195654819Y-54619047D02*
X195702438Y-54714285D01*
X195702438Y-54714285D02*
X195750057Y-54761904D01*
X195750057Y-54761904D02*
X195892914Y-54857142D01*
X195892914Y-54857142D02*
X196083390Y-54904761D01*
X196083390Y-54904761D02*
X196464342Y-54904761D01*
X196464342Y-54904761D02*
X196559580Y-54857142D01*
X196559580Y-54857142D02*
X196607200Y-54809523D01*
X196607200Y-54809523D02*
X196654819Y-54714285D01*
X196654819Y-54714285D02*
X196654819Y-54523809D01*
X196654819Y-54523809D02*
X196607200Y-54428571D01*
X196607200Y-54428571D02*
X196559580Y-54380952D01*
X196559580Y-54380952D02*
X196464342Y-54333333D01*
X196464342Y-54333333D02*
X196226247Y-54333333D01*
X196226247Y-54333333D02*
X196131009Y-54380952D01*
X196131009Y-54380952D02*
X196083390Y-54428571D01*
X196083390Y-54428571D02*
X196035771Y-54523809D01*
X196035771Y-54523809D02*
X196035771Y-54714285D01*
X196035771Y-54714285D02*
X196083390Y-54809523D01*
X196083390Y-54809523D02*
X196131009Y-54857142D01*
X196131009Y-54857142D02*
X196226247Y-54904761D01*
D13*
%TO.C,U12*%
X104340000Y-57677500D02*
X104340000Y-57167500D01*
X104340000Y-63147500D02*
X104340000Y-62397500D01*
X105090000Y-56927500D02*
X104640000Y-56927500D01*
X105090000Y-63147500D02*
X104340000Y-63147500D01*
X109810000Y-56927500D02*
X110560000Y-56927500D01*
X109810000Y-63147500D02*
X110560000Y-63147500D01*
X110560000Y-56927500D02*
X110560000Y-57677500D01*
X110560000Y-63147500D02*
X110560000Y-62397500D01*
X104340000Y-56927500D02*
X104100000Y-56597500D01*
X104580000Y-56597500D01*
X104340000Y-56927500D01*
G36*
X104340000Y-56927500D02*
G01*
X104100000Y-56597500D01*
X104580000Y-56597500D01*
X104340000Y-56927500D01*
G37*
%TO.C,J3*%
X190340000Y-61390000D02*
X190340000Y-63190000D01*
X190340000Y-63190000D02*
X189400000Y-63190000D01*
X190340000Y-68610000D02*
X190340000Y-66810000D01*
X191940000Y-61390000D02*
X190340000Y-61390000D01*
X191940000Y-68610000D02*
X190340000Y-68610000D01*
X194810000Y-62660000D02*
X194810000Y-67340000D01*
%TO.C,C21*%
X133690000Y-57740580D02*
X133690000Y-57459420D01*
X134710000Y-57740580D02*
X134710000Y-57459420D01*
%TO.C,J9*%
X145290000Y-53560000D02*
X145290000Y-55160000D01*
X145290000Y-55160000D02*
X147090000Y-55160000D01*
X146560000Y-50690000D02*
X159990000Y-50690000D01*
X147090000Y-55160000D02*
X147090000Y-56100000D01*
X161260000Y-53560000D02*
X161260000Y-55160000D01*
X161260000Y-55160000D02*
X159460000Y-55160000D01*
%TO.C,J12*%
X119740000Y-50440000D02*
X128960000Y-50440000D01*
X119740000Y-50890000D02*
X119740000Y-50440000D01*
X119740000Y-53710000D02*
X119740000Y-54360000D01*
X119740000Y-54360000D02*
X121490000Y-54360000D01*
X121490000Y-54360000D02*
X121490000Y-56250000D01*
X128960000Y-50440000D02*
X128960000Y-50890000D01*
X128960000Y-53710000D02*
X128960000Y-54360000D01*
X128960000Y-54360000D02*
X127210000Y-54360000D01*
%TO.C,R30*%
X81387742Y-105677500D02*
X81862258Y-105677500D01*
X81387742Y-106722500D02*
X81862258Y-106722500D01*
%TO.C,R14*%
X58837258Y-51077500D02*
X58362742Y-51077500D01*
X58837258Y-52122500D02*
X58362742Y-52122500D01*
%TO.C,C9*%
X62859420Y-57290000D02*
X63140580Y-57290000D01*
X62859420Y-58310000D02*
X63140580Y-58310000D01*
%TO.C,C27*%
X94890000Y-57740580D02*
X94890000Y-57459420D01*
X95910000Y-57740580D02*
X95910000Y-57459420D01*
%TO.C,J5*%
X50690000Y-77340000D02*
X50690000Y-72660000D01*
X53560000Y-71390000D02*
X55160000Y-71390000D01*
X53560000Y-78610000D02*
X55160000Y-78610000D01*
X55160000Y-71390000D02*
X55160000Y-73190000D01*
X55160000Y-76810000D02*
X56100000Y-76810000D01*
X55160000Y-78610000D02*
X55160000Y-76810000D01*
D11*
%TO.C,U3*%
X178975000Y-53775000D02*
X178975000Y-54000000D01*
X178975000Y-57025000D02*
X178975000Y-56800000D01*
X182225000Y-53775000D02*
X178975000Y-53775000D01*
X182225000Y-53775000D02*
X182225000Y-54000000D01*
X182225000Y-57025000D02*
X178975000Y-57025000D01*
X182225000Y-57025000D02*
X182225000Y-56800000D01*
D13*
X182940000Y-57130000D02*
X182460000Y-57130000D01*
X182700000Y-56800000D01*
X182940000Y-57130000D01*
G36*
X182940000Y-57130000D02*
G01*
X182460000Y-57130000D01*
X182700000Y-56800000D01*
X182940000Y-57130000D01*
G37*
%TO.C,R10*%
X74837258Y-55277500D02*
X74362742Y-55277500D01*
X74837258Y-56322500D02*
X74362742Y-56322500D01*
%TO.C,R17*%
X58837258Y-53677500D02*
X58362742Y-53677500D01*
X58837258Y-54722500D02*
X58362742Y-54722500D01*
%TO.C,C20*%
X138690000Y-57740580D02*
X138690000Y-57459420D01*
X139710000Y-57740580D02*
X139710000Y-57459420D01*
%TO.C,R12*%
X186962742Y-57277500D02*
X187437258Y-57277500D01*
X186962742Y-58322500D02*
X187437258Y-58322500D01*
%TO.C,J2*%
X190340000Y-71390000D02*
X190340000Y-73190000D01*
X190340000Y-73190000D02*
X189400000Y-73190000D01*
X190340000Y-78610000D02*
X190340000Y-76810000D01*
X191940000Y-71390000D02*
X190340000Y-71390000D01*
X191940000Y-78610000D02*
X190340000Y-78610000D01*
X194810000Y-72660000D02*
X194810000Y-77340000D01*
%TO.C,C6*%
X182659420Y-57490000D02*
X182940580Y-57490000D01*
X182659420Y-58510000D02*
X182940580Y-58510000D01*
%TO.C,C17*%
X77340580Y-75890000D02*
X77059420Y-75890000D01*
X77340580Y-76910000D02*
X77059420Y-76910000D01*
%TO.C,R18*%
X58837258Y-55477500D02*
X58362742Y-55477500D01*
X58837258Y-56522500D02*
X58362742Y-56522500D01*
%TO.C,R13*%
X58362742Y-58477500D02*
X58837258Y-58477500D01*
X58362742Y-59522500D02*
X58837258Y-59522500D01*
%TO.C,C31*%
X102490000Y-61659420D02*
X102490000Y-61940580D01*
X103510000Y-61659420D02*
X103510000Y-61940580D01*
%TO.C,J18*%
X132490000Y-53810000D02*
X132490000Y-54760000D01*
X132490000Y-54760000D02*
X133440000Y-54760000D01*
X139760000Y-54760000D02*
X139760000Y-55450000D01*
X140340000Y-50840000D02*
X132860000Y-50840000D01*
X140710000Y-53810000D02*
X140710000Y-54760000D01*
X140710000Y-54760000D02*
X139760000Y-54760000D01*
%TO.C,R16*%
X186762742Y-55677500D02*
X187237258Y-55677500D01*
X186762742Y-56722500D02*
X187237258Y-56722500D01*
%TO.C,R19*%
X70962742Y-56077500D02*
X71437258Y-56077500D01*
X70962742Y-57122500D02*
X71437258Y-57122500D01*
%TO.C,R37*%
X93277500Y-57362742D02*
X93277500Y-57837258D01*
X94322500Y-57362742D02*
X94322500Y-57837258D01*
%TO.C,U6*%
X136090000Y-56440000D02*
X137500000Y-56440000D01*
X136100000Y-58760000D02*
X137500000Y-58760000D01*
X135720000Y-56490000D02*
X135480000Y-56160000D01*
X135960000Y-56160000D01*
X135720000Y-56490000D01*
G36*
X135720000Y-56490000D02*
G01*
X135480000Y-56160000D01*
X135960000Y-56160000D01*
X135720000Y-56490000D01*
G37*
%TO.C,R15*%
X186762742Y-53877500D02*
X187237258Y-53877500D01*
X186762742Y-54922500D02*
X187237258Y-54922500D01*
%TO.C,C30*%
X143090000Y-63259420D02*
X143090000Y-63540580D01*
X144110000Y-63259420D02*
X144110000Y-63540580D01*
%TO.C,C12*%
X66259420Y-57290000D02*
X66540580Y-57290000D01*
X66259420Y-58310000D02*
X66540580Y-58310000D01*
%TO.C,J24*%
X175165000Y-109240000D02*
X176115000Y-109240000D01*
X175165000Y-110190000D02*
X175165000Y-109240000D01*
X175535000Y-113160000D02*
X179265000Y-113160000D01*
X176115000Y-109240000D02*
X176115000Y-108550000D01*
X179635000Y-109240000D02*
X178685000Y-109240000D01*
X179635000Y-110190000D02*
X179635000Y-109240000D01*
D11*
%TO.C,U2*%
X63175000Y-53575000D02*
X63175000Y-53800000D01*
X63175000Y-53575000D02*
X66425000Y-53575000D01*
X63175000Y-56825000D02*
X63175000Y-56600000D01*
X63175000Y-56825000D02*
X66425000Y-56825000D01*
X66425000Y-53575000D02*
X66425000Y-53800000D01*
X66425000Y-56825000D02*
X66425000Y-56600000D01*
D13*
X62700000Y-53800000D02*
X62460000Y-53470000D01*
X62940000Y-53470000D01*
X62700000Y-53800000D01*
G36*
X62700000Y-53800000D02*
G01*
X62460000Y-53470000D01*
X62940000Y-53470000D01*
X62700000Y-53800000D01*
G37*
%TO.C,R20*%
X153162742Y-56877500D02*
X153637258Y-56877500D01*
X153162742Y-57922500D02*
X153637258Y-57922500D01*
%TO.C,J7*%
X50690000Y-57340000D02*
X50690000Y-52660000D01*
X53560000Y-51390000D02*
X55160000Y-51390000D01*
X53560000Y-58610000D02*
X55160000Y-58610000D01*
X55160000Y-51390000D02*
X55160000Y-53190000D01*
X55160000Y-56810000D02*
X56100000Y-56810000D01*
X55160000Y-58610000D02*
X55160000Y-56810000D01*
%TO.C,C10*%
X60490000Y-55259420D02*
X60490000Y-55540580D01*
X61510000Y-55259420D02*
X61510000Y-55540580D01*
%TO.C,C7*%
X184090000Y-55440580D02*
X184090000Y-55159420D01*
X185110000Y-55440580D02*
X185110000Y-55159420D01*
%TO.C,J10*%
X163490000Y-52760000D02*
X163490000Y-53910000D01*
X163490000Y-53910000D02*
X164540000Y-53910000D01*
X164540000Y-53910000D02*
X164540000Y-54900000D01*
X164660000Y-50790000D02*
X168540000Y-50790000D01*
X169710000Y-52760000D02*
X169710000Y-53910000D01*
X169710000Y-53910000D02*
X168660000Y-53910000D01*
%TO.C,C13*%
X71059420Y-54490000D02*
X71340580Y-54490000D01*
X71059420Y-55510000D02*
X71340580Y-55510000D01*
%TO.C,C16*%
X77340580Y-77490000D02*
X77059420Y-77490000D01*
X77340580Y-78510000D02*
X77059420Y-78510000D01*
%TO.C,C29*%
X100890000Y-63259420D02*
X100890000Y-63540580D01*
X101910000Y-63259420D02*
X101910000Y-63540580D01*
%TO.C,C5*%
X182740580Y-52090000D02*
X182459420Y-52090000D01*
X182740580Y-53110000D02*
X182459420Y-53110000D01*
%TO.C,R11*%
X187277500Y-52237258D02*
X187277500Y-51762742D01*
X188322500Y-52237258D02*
X188322500Y-51762742D01*
%TO.C,C4*%
X176290000Y-54340580D02*
X176290000Y-54059420D01*
X177310000Y-54340580D02*
X177310000Y-54059420D01*
%TO.C,C26*%
X96340580Y-59490000D02*
X96059420Y-59490000D01*
X96340580Y-60510000D02*
X96059420Y-60510000D01*
%TO.C,R9*%
X74362742Y-56877500D02*
X74837258Y-56877500D01*
X74362742Y-57922500D02*
X74837258Y-57922500D01*
%TO.C,R8*%
X75077500Y-60362742D02*
X75077500Y-60837258D01*
X76122500Y-60362742D02*
X76122500Y-60837258D01*
%TO.C,R35*%
X143437258Y-56277500D02*
X142962742Y-56277500D01*
X143437258Y-57322500D02*
X142962742Y-57322500D01*
%TO.C,C11*%
X71059420Y-52890000D02*
X71340580Y-52890000D01*
X71059420Y-53910000D02*
X71340580Y-53910000D01*
%TO.C,R29*%
X132077500Y-57362742D02*
X132077500Y-57837258D01*
X133122500Y-57362742D02*
X133122500Y-57837258D01*
%TO.C,J21*%
X97990000Y-113510000D02*
X97990000Y-108090000D01*
X106710000Y-108090000D02*
X97990000Y-108090000D01*
X106710000Y-113510000D02*
X97990000Y-113510000D01*
X108410000Y-109390000D02*
X106710000Y-108090000D01*
X108410000Y-112210000D02*
X106710000Y-113510000D01*
X108410000Y-112210000D02*
X108410000Y-109390000D01*
%TO.C,C32*%
X141490000Y-63259420D02*
X141490000Y-63540580D01*
X142510000Y-63259420D02*
X142510000Y-63540580D01*
%TO.C,U9*%
X97290000Y-56440000D02*
X98700000Y-56440000D01*
X97300000Y-58760000D02*
X98700000Y-58760000D01*
X96920000Y-56490000D02*
X96680000Y-56160000D01*
X97160000Y-56160000D01*
X96920000Y-56490000D01*
G36*
X96920000Y-56490000D02*
G01*
X96680000Y-56160000D01*
X97160000Y-56160000D01*
X96920000Y-56490000D01*
G37*
%TO.C,C8*%
X63740580Y-52090000D02*
X63459420Y-52090000D01*
X63740580Y-53110000D02*
X63459420Y-53110000D01*
%TO.C,J4*%
X50690000Y-67340000D02*
X50690000Y-62660000D01*
X53560000Y-61390000D02*
X55160000Y-61390000D01*
X53560000Y-68610000D02*
X55160000Y-68610000D01*
X55160000Y-61390000D02*
X55160000Y-63190000D01*
X55160000Y-66810000D02*
X56100000Y-66810000D01*
X55160000Y-68610000D02*
X55160000Y-66810000D01*
%TO.C,J15*%
X93890000Y-53810000D02*
X93890000Y-54760000D01*
X93890000Y-54760000D02*
X94840000Y-54760000D01*
X101160000Y-54760000D02*
X101160000Y-55450000D01*
X101740000Y-50840000D02*
X94260000Y-50840000D01*
X102110000Y-53810000D02*
X102110000Y-54760000D01*
X102110000Y-54760000D02*
X101160000Y-54760000D01*
%TO.C,U11*%
X145040000Y-59277500D02*
X145040000Y-58767500D01*
X145040000Y-64747500D02*
X145040000Y-63997500D01*
X145790000Y-58527500D02*
X145340000Y-58527500D01*
X145790000Y-64747500D02*
X145040000Y-64747500D01*
X150510000Y-58527500D02*
X151260000Y-58527500D01*
X150510000Y-64747500D02*
X151260000Y-64747500D01*
X151260000Y-58527500D02*
X151260000Y-59277500D01*
X151260000Y-64747500D02*
X151260000Y-63997500D01*
X145040000Y-58527500D02*
X144800000Y-58197500D01*
X145280000Y-58197500D01*
X145040000Y-58527500D01*
G36*
X145040000Y-58527500D02*
G01*
X144800000Y-58197500D01*
X145280000Y-58197500D01*
X145040000Y-58527500D01*
G37*
%TO.C,D10*%
X79225000Y-105335000D02*
X81510000Y-105335000D01*
X81510000Y-103865000D02*
X79225000Y-103865000D01*
X81510000Y-105335000D02*
X81510000Y-103865000D01*
%TO.C,D9*%
X78490000Y-106200000D02*
X78490000Y-108485000D01*
X78490000Y-108485000D02*
X79960000Y-108485000D01*
X79960000Y-108485000D02*
X79960000Y-106200000D01*
%TO.C,R28*%
X77102500Y-106762742D02*
X77102500Y-107237258D01*
X78147500Y-106762742D02*
X78147500Y-107237258D01*
%TO.C,J6*%
X190340000Y-51390000D02*
X190340000Y-53190000D01*
X190340000Y-53190000D02*
X189400000Y-53190000D01*
X190340000Y-58610000D02*
X190340000Y-56810000D01*
X191940000Y-51390000D02*
X190340000Y-51390000D01*
X191940000Y-58610000D02*
X190340000Y-58610000D01*
X194810000Y-52660000D02*
X194810000Y-57340000D01*
%TD*%
M02*
